P1
# CREATOR: GIMP PNM Filter Version 1.1
112 20
0011111111111111111111111111111111111111111111111111111111111111111111
1111111111111111111111111111111111111111000011111111111111111111111111
1111111111111111111111111111111111111111111111111111111111111111111111
1111111111110000111111111111111111111111111111111111111111111111111111
1111111111111111111111111111111111111111111111111111110000111111111111
1111111111111111111111111111111111111111111111111111111111111111111111
1111111111111111111111111100001111111111111111111111111111111111111111
1111111111111111111111111111111111111111111111111111111111111111111100
0011111111111111111111111111111111111111111111111111111111111111111111
1111111111111111111111111111111111111111000011111111111111111111111111
1111111111111111111111111111111111111111111111111111111111111111111111
1111111111110000111111111111111111111111111111111111111111111111111111
1111111111111111111111111111111111111111111111111111110000111111111111
1111111111111111111111111111111111111111111111111111111111111111111111
1111111111111111111111111100001111111111111111111111111111111111111111
1111111111111111111111111111111111111111111111111111111111111111111100
0011111111111111111111111111111111111111111111111111111111111111111111
1111111111111111111111111111111111111111000011111111111111111111111111
1111111111111111111111111111111111111111111111111111111111111111111111
1111111111110000111111111111111111111111111111111111111111111111111111
1111111111111111111111111111111111111111111111111111110000111111111111
1111111111111111111111111111111111111111111111111111111111111111111111
1111111111111111111111111100001111111111111111111111111111111111111111
1111111111111111111111111111111111111111111111111111111111111111111100
0011111111111111111111111111111111111111111111111111111111111111111111
1111111111111111111111111111111111111111000011111111111111111111111111
1111111111111111111111111111111111111111111111111111111111111111111111
1111111111110000101010101010101010101010101010101010101010101010101010
1010101010101010101010101010101010101010101010101010100000000000000000
0000000000000000000000000000000000000000000000000000000000000000000000
0000000000000000000000000000000000000000000000000000000000000000000000
0000000000000000000000000000000000000000000000000000000000000000000000