G04 start of page 8 for group -4079 idx -4079 *
G04 Title: Dot-Flip Control, topsilk *
G04 Creator: pcb 20110918 *
G04 CreationDate: Tue 04 Dec 2012 09:28:54 AM GMT UTC *
G04 For: bertho *
G04 Format: Gerber/RS-274X *
G04 PCB-Dimensions: 450000 250000 *
G04 PCB-Coordinate-Origin: lower left *
%MOIN*%
%FSLAX25Y25*%
%LNTOPSILK*%
%ADD90C,0.0200*%
%ADD89C,0.0075*%
%ADD88C,0.0070*%
%ADD87C,0.0080*%
G54D87*X24000Y230000D02*X358500D01*
X362500Y226000D02*Y37500D01*
X358500Y33500D02*X24000D01*
X20000Y37500D02*Y226000D01*
X362500Y37500D02*G75*G02X358500Y33500I-4000J0D01*G01*
Y230000D02*G75*G02X362500Y226000I0J-4000D01*G01*
X20000D02*G75*G02X24000Y230000I4000J0D01*G01*
Y33500D02*G75*G02X20000Y37500I0J4000D01*G01*
G54D88*X54500Y63600D02*X55100Y63000D01*
X54500Y67200D02*X55100Y67800D01*
X54500Y67200D02*Y63600D01*
X57140Y65400D02*X58940D01*
X56540Y64800D02*X57140Y65400D01*
X56540Y64800D02*Y63600D01*
X57140Y63000D01*
X58940D01*
X60380Y67800D02*X60980Y67200D01*
Y63600D01*
X60380Y63000D02*X60980Y63600D01*
X64580Y67200D02*X65180Y67800D01*
X66980D01*
X67580Y67200D01*
Y66000D01*
X64580Y63000D02*X67580Y66000D01*
X64580Y63000D02*X67580D01*
X69020Y63600D02*X69620Y63000D01*
X69020Y67200D02*Y63600D01*
Y67200D02*X69620Y67800D01*
X70820D01*
X71420Y67200D01*
Y63600D01*
X70820Y63000D02*X71420Y63600D01*
X69620Y63000D02*X70820D01*
X69020Y64200D02*X71420Y66600D01*
X72860Y66840D02*X73820Y67800D01*
Y63000D01*
X72860D02*X74660D01*
X76100Y67200D02*X76700Y67800D01*
X78500D01*
X79100Y67200D01*
Y66000D01*
X76100Y63000D02*X79100Y66000D01*
X76100Y63000D02*X79100D01*
X82700Y67800D02*X83900Y63000D01*
X85100Y67800D01*
X88340Y65400D02*X88940Y64800D01*
X87140Y65400D02*X88340D01*
X86540Y64800D02*X87140Y65400D01*
X86540Y64800D02*Y63600D01*
X87140Y63000D01*
X88940Y65400D02*Y63600D01*
X89540Y63000D01*
X87140D02*X88340D01*
X88940Y63600D01*
X92780Y65400D02*X93380Y64800D01*
X91580Y65400D02*X92780D01*
X90980Y64800D02*X91580Y65400D01*
X90980Y64800D02*Y63600D01*
X91580Y63000D01*
X92780D01*
X93380Y63600D01*
X90980Y61800D02*X91580Y61200D01*
X92780D01*
X93380Y61800D01*
Y65400D02*Y61800D01*
X95420Y64800D02*Y63000D01*
Y64800D02*X96020Y65400D01*
X97220D01*
X94820D02*X95420Y64800D01*
X99260Y63000D02*X101060D01*
X98660Y63600D02*X99260Y63000D01*
X98660Y64800D02*Y63600D01*
Y64800D02*X99260Y65400D01*
X100460D01*
X101060Y64800D01*
X98660Y64200D02*X101060D01*
Y64800D02*Y64200D01*
X104300Y65400D02*X104900Y64800D01*
X103100Y65400D02*X104300D01*
X102500Y64800D02*X103100Y65400D01*
X102500Y64800D02*Y63600D01*
X103100Y63000D01*
X104900Y65400D02*Y63600D01*
X105500Y63000D01*
X103100D02*X104300D01*
X104900Y63600D01*
X107540Y64800D02*Y63000D01*
Y64800D02*X108140Y65400D01*
X109340D01*
X106940D02*X107540Y64800D01*
X112580Y65400D02*X113180Y64800D01*
X111380Y65400D02*X112580D01*
X110780Y64800D02*X111380Y65400D01*
X110780Y64800D02*Y63600D01*
X111380Y63000D01*
X112580D01*
X113180Y63600D01*
X110780Y61800D02*X111380Y61200D01*
X112580D01*
X113180Y61800D01*
Y65400D02*Y61800D01*
X62340Y52500D02*X63900D01*
X61500Y53340D02*X62340Y52500D01*
X61500Y56460D02*Y53340D01*
Y56460D02*X62340Y57300D01*
X63900D01*
X66180Y52500D02*X67740D01*
X65340Y53340D02*X66180Y52500D01*
X65340Y56460D02*Y53340D01*
Y56460D02*X66180Y57300D01*
X67740D01*
X69180Y54900D02*X71580D01*
X73020Y52500D02*X75420D01*
X76020Y53100D01*
Y54540D02*Y53100D01*
X75420Y55140D02*X76020Y54540D01*
X73620Y55140D02*X75420D01*
X73620Y57300D02*Y52500D01*
X73020Y57300D02*X75420D01*
X76020Y56700D01*
Y55740D01*
X75420Y55140D02*X76020Y55740D01*
X77460Y57300D02*X78660Y54900D01*
X79860Y57300D01*
X78660Y54900D02*Y52500D01*
X81300Y54900D02*X83700D01*
X87540Y57300D02*X88140Y56700D01*
X85740Y57300D02*X87540D01*
X85140Y56700D02*X85740Y57300D01*
X85140Y56700D02*Y55500D01*
X85740Y54900D01*
X87540D01*
X88140Y54300D01*
Y53100D01*
X87540Y52500D02*X88140Y53100D01*
X85740Y52500D02*X87540D01*
X85140Y53100D02*X85740Y52500D01*
X89580Y56100D02*Y52500D01*
Y56100D02*X90420Y57300D01*
X91740D01*
X92580Y56100D01*
Y52500D01*
X89580Y54900D02*X92580D01*
X94020D02*X96420D01*
X97860Y56700D02*X98460Y57300D01*
X99660D01*
X100260Y56700D01*
X99660Y52500D02*X100260Y53100D01*
X98460Y52500D02*X99660D01*
X97860Y53100D02*X98460Y52500D01*
Y55140D02*X99660D01*
X100260Y56700D02*Y55740D01*
Y54540D02*Y53100D01*
Y54540D02*X99660Y55140D01*
X100260Y55740D02*X99660Y55140D01*
X101700Y52500D02*X102300D01*
X103740Y53100D02*X104340Y52500D01*
X103740Y56700D02*Y53100D01*
Y56700D02*X104340Y57300D01*
X105540D01*
X106140Y56700D01*
Y53100D01*
X105540Y52500D02*X106140Y53100D01*
X104340Y52500D02*X105540D01*
X103740Y53700D02*X106140Y56100D01*
X65500Y167000D02*X64750Y166250D01*
X65500Y169250D02*Y167000D01*
X64750Y170000D02*X65500Y169250D01*
X60250Y170000D02*X64750D01*
X60250D02*X59500Y169250D01*
Y167000D01*
X60250Y166250D01*
X61750D01*
X62500Y167000D02*X61750Y166250D01*
X62500Y168500D02*Y167000D01*
X59500Y164450D02*X65500D01*
X59500Y160700D01*
X65500D01*
X59500Y158150D02*X65500D01*
Y156200D02*X64450Y155150D01*
X60550D02*X64450D01*
X59500Y156200D02*X60550Y155150D01*
X59500Y158900D02*Y156200D01*
X65500Y158900D02*Y156200D01*
Y186500D02*X59500Y185000D01*
X65500Y183500D01*
X62500Y181700D02*Y178700D01*
X61000Y180200D02*X64000D01*
X203250Y225000D02*Y219000D01*
X205200Y225000D02*X206250Y223950D01*
Y220050D01*
X205200Y219000D02*X206250Y220050D01*
X202500Y219000D02*X205200D01*
X202500Y225000D02*X205200D01*
X208050Y221250D02*Y219750D01*
Y221250D02*X208800Y222000D01*
X210300D01*
X211050Y221250D01*
Y219750D01*
X210300Y219000D02*X211050Y219750D01*
X208800Y219000D02*X210300D01*
X208050Y219750D02*X208800Y219000D01*
X213600Y225000D02*Y219750D01*
X214350Y219000D01*
X212850Y222750D02*X214350D01*
X215850Y222000D02*X218850D01*
X220650Y225000D02*Y219000D01*
Y225000D02*X223650D01*
X220650Y222300D02*X222900D01*
X225450Y225000D02*Y219750D01*
X226200Y219000D01*
G54D89*X227700Y223500D02*Y223350D01*
G54D88*Y221250D02*Y219000D01*
X229950Y221250D02*Y216750D01*
X229200Y222000D02*X229950Y221250D01*
X230700Y222000D01*
X232200D01*
X232950Y221250D01*
Y219750D01*
X232200Y219000D02*X232950Y219750D01*
X230700Y219000D02*X232200D01*
X229950Y219750D02*X230700Y219000D01*
X238500D02*X240450D01*
X237450Y220050D02*X238500Y219000D01*
X237450Y223950D02*Y220050D01*
Y223950D02*X238500Y225000D01*
X240450D01*
X242250Y221250D02*Y219750D01*
Y221250D02*X243000Y222000D01*
X244500D01*
X245250Y221250D01*
Y219750D01*
X244500Y219000D02*X245250Y219750D01*
X243000Y219000D02*X244500D01*
X242250Y219750D02*X243000Y219000D01*
X247800Y221250D02*Y219000D01*
Y221250D02*X248550Y222000D01*
X249300D01*
X250050Y221250D01*
Y219000D01*
X247050Y222000D02*X247800Y221250D01*
X252600Y225000D02*Y219750D01*
X253350Y219000D01*
X251850Y222750D02*X253350D01*
X255600Y221250D02*Y219000D01*
Y221250D02*X256350Y222000D01*
X257850D01*
X254850D02*X255600Y221250D01*
X259650D02*Y219750D01*
Y221250D02*X260400Y222000D01*
X261900D01*
X262650Y221250D01*
Y219750D01*
X261900Y219000D02*X262650Y219750D01*
X260400Y219000D02*X261900D01*
X259650Y219750D02*X260400Y219000D01*
X264450Y225000D02*Y219750D01*
X265200Y219000D01*
X202500Y215000D02*Y209000D01*
Y211250D02*X203250Y212000D01*
X204750D01*
X205500Y211250D01*
Y209000D01*
X208050Y215000D02*Y209750D01*
X208800Y209000D01*
X207300Y212750D02*X208800D01*
X211050Y215000D02*Y209750D01*
X211800Y209000D01*
X210300Y212750D02*X211800D01*
X214050Y211250D02*Y206750D01*
X213300Y212000D02*X214050Y211250D01*
X214800Y212000D01*
X216300D01*
X217050Y211250D01*
Y209750D01*
X216300Y209000D02*X217050Y209750D01*
X214800Y209000D02*X216300D01*
X214050Y209750D02*X214800Y209000D01*
X218850Y212750D02*X219600D01*
X218850Y211250D02*X219600D01*
X221400Y209750D02*X225900Y214250D01*
X227700Y209750D02*X232200Y214250D01*
X234000Y211250D02*Y209750D01*
Y211250D02*X234750Y212000D01*
X236250D01*
X237000Y211250D01*
Y209750D01*
X236250Y209000D02*X237000Y209750D01*
X234750Y209000D02*X236250D01*
X234000Y209750D02*X234750Y209000D01*
X239550D02*X241800D01*
X242550Y209750D01*
X241800Y210500D02*X242550Y209750D01*
X239550Y210500D02*X241800D01*
X238800Y211250D02*X239550Y210500D01*
X238800Y211250D02*X239550Y212000D01*
X241800D01*
X242550Y211250D01*
X238800Y209750D02*X239550Y209000D01*
X246600Y212000D02*X247350Y211250D01*
X245100Y212000D02*X246600D01*
X244350Y211250D02*X245100Y212000D01*
X244350Y211250D02*Y209750D01*
X245100Y209000D01*
X247350Y212000D02*Y209750D01*
X248100Y209000D01*
X245100D02*X246600D01*
X247350Y209750D01*
X252150Y212000D02*X252900Y211250D01*
X250650Y212000D02*X252150D01*
X249900Y211250D02*X250650Y212000D01*
X249900Y211250D02*Y209750D01*
X250650Y209000D01*
X252900Y212000D02*Y209750D01*
X253650Y209000D01*
X250650D02*X252150D01*
X252900Y209750D01*
X255450Y209000D02*X256200D01*
X261000Y215000D02*Y209000D01*
X260250D02*X261000Y209750D01*
X258750Y209000D02*X260250D01*
X258000Y209750D02*X258750Y209000D01*
X258000Y211250D02*Y209750D01*
Y211250D02*X258750Y212000D01*
X260250D01*
X261000Y211250D01*
X262800Y215000D02*Y209000D01*
Y211250D02*X265050Y209000D01*
X262800Y211250D02*X264300Y212750D01*
X358000Y101000D02*Y99500D01*
Y101000D02*X357500Y101500D01*
X357000Y101000D02*X357500Y101500D01*
X357000Y101000D02*Y99500D01*
X356500Y99000D02*X357000Y99500D01*
X356500Y99000D02*X356000Y99500D01*
Y101000D02*Y99500D01*
Y101000D02*X356500Y101500D01*
X357500Y99000D02*X358000Y99500D01*
X355000Y102700D02*X355100D01*
X356500D02*X358000D01*
X354000Y103700D02*X357500D01*
X358000Y104200D01*
X354000Y105200D02*X358000D01*
X356500D02*X358000Y106700D01*
X356500Y105200D02*X355500Y106200D01*
X354000Y108400D02*X357500D01*
X358000Y108900D01*
X355500D02*Y107900D01*
X356500Y109900D02*X357500D01*
X356500D02*X356000Y110400D01*
Y111400D02*Y110400D01*
Y111400D02*X356500Y111900D01*
X357500D01*
X358000Y111400D02*X357500Y111900D01*
X358000Y111400D02*Y110400D01*
X357500Y109900D02*X358000Y110400D01*
X356500Y113600D02*X359500D01*
X356000Y113100D02*X356500Y113600D01*
X356000Y114100D01*
Y115100D02*Y114100D01*
Y115100D02*X356500Y115600D01*
X357500D01*
X358000Y115100D02*X357500Y115600D01*
X358000Y115100D02*Y114100D01*
X357500Y113600D02*X358000Y114100D01*
G54D87*X323500Y102500D02*Y77000D01*
X310500Y33500D01*
X300500D02*X310500D01*
X300500D02*X291500Y49500D01*
X145500D02*X291500D01*
X145500D02*X140500Y33500D01*
X130500D02*X140500D01*
X130500D02*X117500Y77000D01*
Y102500D02*Y77000D01*
X316500Y102500D02*X323500D01*
X117500D02*X124500D01*
X228000Y67000D02*Y49500D01*
X213000Y67000D02*X228000D01*
X213000D02*Y49500D01*
X285500D02*X280500Y60500D01*
X275500Y49500D01*
X269700Y155000D02*Y144000D01*
X263300Y155000D02*Y144000D01*
Y155000D02*X269700D01*
X263300Y144000D02*X269700D01*
X203000Y153200D02*X214000D01*
X203000Y146800D02*X214000D01*
X203000Y153200D02*Y146800D01*
X214000Y153200D02*Y146800D01*
X263300Y142500D02*Y131500D01*
X269700Y142500D02*Y131500D01*
X263300D02*X269700D01*
X263300Y142500D02*X269700D01*
X203000Y138200D02*X214000D01*
X203000Y131800D02*X214000D01*
X203000Y138200D02*Y131800D01*
X214000Y138200D02*Y131800D01*
X203000Y145700D02*X214000D01*
X203000Y139300D02*X214000D01*
X203000Y145700D02*Y139300D01*
X214000Y145700D02*Y139300D01*
X343500Y38500D02*Y37500D01*
X358000Y53000D02*X359000D01*
X329000D02*X328000D01*
X343500Y67500D02*Y68500D01*
X329000Y53000D02*G75*G03X329000Y53000I14500J0D01*G01*
X299500Y140300D02*X310500D01*
X299500Y146700D02*X310500D01*
Y140300D01*
X299500Y146700D02*Y140300D01*
X312500Y146700D02*X323500D01*
X312500Y140300D02*X323500D01*
X312500Y146700D02*Y140300D01*
X323500Y146700D02*Y140300D01*
X335500Y144200D02*X346500D01*
X335500Y137800D02*X346500D01*
X335500Y144200D02*Y137800D01*
X346500Y144200D02*Y137800D01*
X287878Y117158D02*X335123D01*
X287878Y136842D02*X335123D01*
X337090Y134873D02*G75*G03X335121Y136842I-1969J0D01*G01*
X287878D02*G75*G03X285909Y134873I0J-1969D01*G01*
X285910Y119127D02*G75*G03X287879Y117158I1969J0D01*G01*
X335124D02*G75*G03X337093Y119127I0J1969D01*G01*
X343500Y196000D02*Y195000D01*
X358000Y210500D02*X359000D01*
X329000D02*X328000D01*
X343500Y225000D02*Y226000D01*
X329000Y210500D02*G75*G03X329000Y210500I14500J0D01*G01*
X300700Y177000D02*Y166000D01*
X294300Y177000D02*Y166000D01*
Y177000D02*X300700D01*
X294300Y166000D02*X300700D01*
X294300Y192000D02*Y181000D01*
X300700Y192000D02*Y181000D01*
X294300D02*X300700D01*
X294300Y192000D02*X300700D01*
X335000Y184000D02*X350000D01*
X335000D02*Y170000D01*
X350000D01*
Y184000D02*Y170000D01*
X335500Y185300D02*X346500D01*
X335500Y191700D02*X346500D01*
Y185300D01*
X335500Y191700D02*Y185300D01*
Y153800D02*X346500D01*
X335500Y160200D02*X346500D01*
Y153800D01*
X335500Y160200D02*Y153800D01*
Y168200D02*X346500D01*
X335500Y161800D02*X346500D01*
X335500Y168200D02*Y161800D01*
X346500Y168200D02*Y161800D01*
X284843Y230031D02*X315157D01*
Y224323D01*
X284843Y230031D02*Y224323D01*
X302500Y180600D02*X330500D01*
Y162400D01*
X302500Y180600D02*Y174059D01*
Y168941D02*Y162400D01*
X330500D01*
X302500Y169000D02*G75*G03X302500Y174000I0J2500D01*G01*
X335500Y145800D02*X346500D01*
X335500Y152200D02*X346500D01*
Y145800D01*
X335500Y152200D02*Y145800D01*
X155039Y195039D02*X184961D01*
X155039Y202323D02*Y195039D01*
Y224961D02*X184961D01*
Y202323D02*Y195039D01*
X155039Y224961D02*Y217677D01*
X184961Y224961D02*Y217677D01*
X151968Y171035D02*Y157468D01*
X185032D01*
X188032Y160468D01*
Y171035D02*Y160468D01*
X151968Y193532D02*Y179965D01*
Y193532D02*X185032D01*
X188032Y190532D01*
Y179965D01*
X224000Y201500D02*X254000D01*
X224000D02*Y181500D01*
X254000D01*
Y201500D02*Y181500D01*
X244000Y201500D02*Y191500D01*
X254000D01*
X211500Y199700D02*X222500D01*
X211500Y193300D02*X222500D01*
X211500Y199700D02*Y193300D01*
X222500Y199700D02*Y193300D01*
X225621Y127621D02*X249479D01*
X225621Y154379D02*Y127621D01*
Y154379D02*X252379D01*
Y130521D01*
X249479Y127621D01*
X250479Y130521D02*G75*G03X250479Y130521I-1000J0D01*G01*
G54D88*X141000Y203600D02*X146000D01*
X141000Y200400D02*X146000D01*
X141000D02*X143500Y203600D01*
X146000Y200400D01*
G54D90*X140000Y217300D02*X147000D01*
G54D87*X140000D02*X138700Y216000D01*
Y187700D01*
X148300D01*
Y216000D02*Y187700D01*
Y216000D02*X147000Y217300D01*
X71468Y220532D02*X85035D01*
X71468D02*Y187468D01*
X74468Y184468D01*
X85035D01*
X93965Y220532D02*X107532D01*
Y187468D01*
X104532Y184468D01*
X93965D02*X104532D01*
X112000Y208500D02*X132000D01*
X112000D02*Y176500D01*
X132000D01*
Y208500D02*Y195000D01*
Y190000D02*Y176500D01*
Y195000D02*G75*G03X132000Y190000I0J-2500D01*G01*
X111500Y210300D02*X122500D01*
X111500Y216700D02*X122500D01*
Y210300D01*
X111500Y216700D02*Y210300D01*
X39000Y196000D02*Y195000D01*
X53500Y210500D02*X54500D01*
X24500D02*X23500D01*
X39000Y225000D02*Y226000D01*
X24500Y210500D02*G75*G03X24500Y210500I14500J0D01*G01*
X57500Y192500D02*Y152500D01*
X25000D02*X57500D01*
X25000Y192500D02*Y152500D01*
Y192500D02*X57500D01*
X30000Y195000D02*Y192500D01*
X27500Y195000D02*X30000D01*
X27500D02*Y192500D01*
X30000Y155000D02*Y152500D01*
X27500Y155000D02*X30000D01*
X52500Y192500D02*Y152500D01*
X27500Y155000D02*Y152500D01*
X119000Y159700D02*X130000D01*
X119000Y153300D02*X130000D01*
X119000Y159700D02*Y153300D01*
X130000Y159700D02*Y153300D01*
X119000Y160800D02*X130000D01*
X119000Y167200D02*X130000D01*
Y160800D01*
X119000Y167200D02*Y160800D01*
Y174944D02*X130000D01*
X119000Y168544D02*X130000D01*
X119000Y174944D02*Y168544D01*
X130000Y174944D02*Y168544D01*
X107532Y181032D02*Y167465D01*
X74468Y181032D02*X107532D01*
X74468D02*X71468Y178032D01*
Y167465D01*
X107532Y158535D02*Y144968D01*
X74468D02*X107532D01*
X74468D02*X71468Y147968D01*
Y158535D02*Y147968D01*
X119468Y148532D02*X133035D01*
X119468D02*Y115468D01*
X122468Y112468D01*
X133035D01*
X141965Y148532D02*X155532D01*
Y115468D01*
X152532Y112468D01*
X141965D02*X152532D01*
G54D88*X94900Y139500D02*Y134500D01*
X98100Y139500D02*Y134500D01*
X94900Y137000D01*
X98100Y139500D01*
G54D90*X81200Y140500D02*Y133500D01*
G54D87*X82500Y132200D01*
X110800D01*
Y141800D02*Y132200D01*
X82500Y141800D02*X110800D01*
X82500D02*X81200Y140500D01*
X60894Y129106D02*X110106D01*
X60894Y79894D02*X110106D01*
X60894Y129106D02*Y116705D01*
Y92295D02*Y79894D01*
X110106Y92295D02*Y79894D01*
Y129106D02*Y116705D01*
X39000Y38500D02*Y37500D01*
X53500Y53000D02*X54500D01*
X24500D02*X23500D01*
X39000Y67500D02*Y68500D01*
X24500Y53000D02*G75*G03X24500Y53000I14500J0D01*G01*
X31000Y80800D02*X42000D01*
X31000Y87200D02*X42000D01*
Y80800D01*
X31000Y87200D02*Y80800D01*
Y88800D02*X42000D01*
X31000Y95200D02*X42000D01*
Y88800D01*
X31000Y95200D02*Y88800D01*
Y96800D02*X42000D01*
X31000Y103200D02*X42000D01*
Y96800D01*
X31000Y103200D02*Y96800D01*
X44000D02*X55000D01*
X44000Y103200D02*X55000D01*
Y96800D01*
X44000Y103200D02*Y96800D01*
X25800Y127000D02*Y116000D01*
X32200Y127000D02*Y116000D01*
X25800D02*X32200D01*
X25800Y127000D02*X32200D01*
X25800Y140000D02*Y129000D01*
X32200Y140000D02*Y129000D01*
X25800D02*X32200D01*
X25800Y140000D02*X32200D01*
X44000Y111200D02*X55000D01*
X44000Y104800D02*X55000D01*
X44000Y111200D02*Y104800D01*
X55000Y111200D02*Y104800D01*
X34500Y112000D02*X54500D01*
Y144000D02*Y112000D01*
X34500Y144000D02*X54500D01*
X34500Y125500D02*Y112000D01*
Y144000D02*Y130500D01*
Y125500D02*G75*G03X34500Y130500I0J2500D01*G01*
G54D88*X272200Y217000D02*X273000D01*
Y213500D01*
X272500Y213000D02*X273000Y213500D01*
X272000Y213000D02*X272500D01*
X271500Y213500D02*X272000Y213000D01*
X271500Y214000D02*Y213500D01*
X274200Y216500D02*X274700Y217000D01*
X276200D01*
X276700Y216500D01*
Y215500D01*
X274200Y213000D02*X276700Y215500D01*
X274200Y213000D02*X276700D01*
X186500Y224000D02*Y220000D01*
X188500D01*
X189700Y223500D02*X190200Y224000D01*
X191700D01*
X192200Y223500D01*
Y222500D01*
X189700Y220000D02*X192200Y222500D01*
X189700Y220000D02*X192200D01*
X190700Y185500D02*X192000D01*
X190000Y186200D02*X190700Y185500D01*
X190000Y188800D02*Y186200D01*
Y188800D02*X190700Y189500D01*
X192000D01*
X193200Y189000D02*X193700Y189500D01*
X194700D01*
X195200Y189000D01*
X194700Y185500D02*X195200Y186000D01*
X193700Y185500D02*X194700D01*
X193200Y186000D02*X193700Y185500D01*
Y187700D02*X194700D01*
X195200Y189000D02*Y188200D01*
Y187200D02*Y186000D01*
Y187200D02*X194700Y187700D01*
X195200Y188200D02*X194700Y187700D01*
X141500Y180000D02*X145500D01*
X141500Y181300D02*X142200Y182000D01*
X144800D01*
X145500Y181300D02*X144800Y182000D01*
X145500Y181300D02*Y179500D01*
X141500Y181300D02*Y179500D01*
X142000Y183200D02*X141500Y183700D01*
Y185200D02*Y183700D01*
Y185200D02*X142000Y185700D01*
X143000D01*
X145500Y183200D02*X143000Y185700D01*
X145500D02*Y183200D01*
X69500Y216000D02*Y214700D01*
X68800Y214000D02*X69500Y214700D01*
X66200Y214000D02*X68800D01*
X66200D02*X65500Y214700D01*
Y216000D02*Y214700D01*
Y219200D02*Y217200D01*
X67500D01*
X67000Y217700D01*
Y218700D02*Y217700D01*
Y218700D02*X67500Y219200D01*
X69000D01*
X69500Y218700D02*X69000Y219200D01*
X69500Y218700D02*Y217700D01*
X69000Y217200D02*X69500Y217700D01*
X134000Y184000D02*Y180500D01*
X134500Y180000D01*
X135500D01*
X136000Y180500D01*
Y184000D02*Y180500D01*
X137200Y183500D02*X137700Y184000D01*
X138700D01*
X139200Y183500D01*
X138700Y180000D02*X139200Y180500D01*
X137700Y180000D02*X138700D01*
X137200Y180500D02*X137700Y180000D01*
Y182200D02*X138700D01*
X139200Y183500D02*Y182700D01*
Y181700D02*Y180500D01*
Y181700D02*X138700Y182200D01*
X139200Y182700D02*X138700Y182200D01*
X125050Y211650D02*X126350D01*
X124350Y212350D02*X125050Y211650D01*
X124350Y214950D02*Y212350D01*
Y214950D02*X125050Y215650D01*
X126350D01*
X129050D02*X129550Y215150D01*
X128050Y215650D02*X129050D01*
X127550Y215150D02*X128050Y215650D01*
X127550Y215150D02*Y212150D01*
X128050Y211650D01*
X129050Y213850D02*X129550Y213350D01*
X127550Y213850D02*X129050D01*
X128050Y211650D02*X129050D01*
X129550Y212150D01*
Y213350D02*Y212150D01*
X256700Y200500D02*X257500D01*
Y197000D01*
X257000Y196500D02*X257500Y197000D01*
X256500Y196500D02*X257000D01*
X256000Y197000D02*X256500Y196500D01*
X256000Y197500D02*Y197000D01*
X258700Y200000D02*X259200Y200500D01*
X260200D01*
X260700Y200000D01*
X260200Y196500D02*X260700Y197000D01*
X259200Y196500D02*X260200D01*
X258700Y197000D02*X259200Y196500D01*
Y198700D02*X260200D01*
X260700Y200000D02*Y199200D01*
Y198200D02*Y197000D01*
Y198200D02*X260200Y198700D01*
X260700Y199200D02*X260200Y198700D01*
X204350Y198650D02*X206350D01*
X206850Y198150D01*
Y197150D01*
X206350Y196650D02*X206850Y197150D01*
X204850Y196650D02*X206350D01*
X204850Y198650D02*Y194650D01*
X205650Y196650D02*X206850Y194650D01*
X208050Y195150D02*X208550Y194650D01*
X208050Y195950D02*Y195150D01*
Y195950D02*X208750Y196650D01*
X209350D01*
X210050Y195950D01*
Y195150D01*
X209550Y194650D02*X210050Y195150D01*
X208550Y194650D02*X209550D01*
X208050Y197350D02*X208750Y196650D01*
X208050Y198150D02*Y197350D01*
Y198150D02*X208550Y198650D01*
X209550D01*
X210050Y198150D01*
Y197350D01*
X209350Y196650D02*X210050Y197350D01*
X51700Y199000D02*X52500D01*
Y195500D01*
X52000Y195000D02*X52500Y195500D01*
X51500Y195000D02*X52000D01*
X51000Y195500D02*X51500Y195000D01*
X51000Y196000D02*Y195500D01*
X53700Y196500D02*X55700Y199000D01*
X53700Y196500D02*X56200D01*
X55700Y199000D02*Y195000D01*
G54D87*X327400Y101500D02*X329000D01*
Y94500D01*
X328000Y93500D02*X329000Y94500D01*
X327000Y93500D02*X328000D01*
X326000Y94500D02*X327000Y93500D01*
X326000Y95500D02*Y94500D01*
X331400Y99900D02*X333000Y101500D01*
Y93500D01*
X331400D02*X334400D01*
G54D88*X329500Y111500D02*X332000Y115500D01*
X329500D02*X332000Y111500D01*
X333200Y114700D02*X334000Y115500D01*
Y111500D01*
X333200D02*X334700D01*
X284000Y113200D02*X285600D01*
X284800D02*Y110000D01*
X286960Y113200D02*Y110000D01*
X286560Y113200D02*X288160D01*
X288560Y112800D01*
Y112000D01*
X288160Y111600D02*X288560Y112000D01*
X286960Y111600D02*X288160D01*
X291120Y113200D02*X291520Y112800D01*
X289920Y113200D02*X291120D01*
X289520Y112800D02*X289920Y113200D01*
X289520Y112800D02*Y110400D01*
X289920Y110000D01*
X291120D01*
X291520Y110400D01*
Y111200D02*Y110400D01*
X291120Y111600D02*X291520Y111200D01*
X290320Y111600D02*X291120D01*
X292480Y113200D02*Y110000D01*
Y113200D02*X294480Y110000D01*
Y113200D02*Y110000D01*
X295840Y113200D02*Y110000D01*
X296880Y113200D02*X297440Y112640D01*
Y110560D01*
X296880Y110000D02*X297440Y110560D01*
X295440Y110000D02*X296880D01*
X295440Y113200D02*X296880D01*
X298400Y110000D02*X300000D01*
X300400Y110400D01*
Y111360D02*Y110400D01*
X300000Y111760D02*X300400Y111360D01*
X298800Y111760D02*X300000D01*
X298800Y113200D02*Y110000D01*
X298400Y113200D02*X300000D01*
X300400Y112800D01*
Y112160D01*
X300000Y111760D02*X300400Y112160D01*
X65700Y149000D02*X67000D01*
X65000Y149700D02*X65700Y149000D01*
X65000Y152300D02*Y149700D01*
Y152300D02*X65700Y153000D01*
X67000D01*
X68200Y152200D02*X69000Y153000D01*
Y149000D01*
X68200D02*X69700D01*
X56000Y136500D02*X59500D01*
X60000Y137000D01*
Y138000D02*Y137000D01*
Y138000D02*X59500Y138500D01*
X56000D02*X59500D01*
X58500Y139700D02*X56000Y141700D01*
X58500Y142200D02*Y139700D01*
X56000Y141700D02*X60000D01*
X73500Y139000D02*Y135000D01*
X74800Y139000D02*X75500Y138300D01*
Y135700D01*
X74800Y135000D02*X75500Y135700D01*
X73000Y135000D02*X74800D01*
X73000Y139000D02*X74800D01*
X76700Y138500D02*X77200Y139000D01*
X78200D01*
X78700Y138500D01*
X78200Y135000D02*X78700Y135500D01*
X77200Y135000D02*X78200D01*
X76700Y135500D02*X77200Y135000D01*
Y137200D02*X78200D01*
X78700Y138500D02*Y137700D01*
Y136700D02*Y135500D01*
Y136700D02*X78200Y137200D01*
X78700Y137700D02*X78200Y137200D01*
X194073Y147776D02*X195373D01*
X193373Y148476D02*X194073Y147776D01*
X193373Y151076D02*Y148476D01*
Y151076D02*X194073Y151776D01*
X195373D01*
X196573Y150976D02*X197373Y151776D01*
Y147776D01*
X196573D02*X198073D01*
X199273Y151776D02*X201273D01*
X199273D02*Y149776D01*
X199773Y150276D01*
X200773D01*
X201273Y149776D01*
Y148276D01*
X200773Y147776D02*X201273Y148276D01*
X199773Y147776D02*X200773D01*
X199273Y148276D02*X199773Y147776D01*
X195629Y136875D02*X197629D01*
X198129Y136375D01*
Y135375D01*
X197629Y134875D02*X198129Y135375D01*
X196129Y134875D02*X197629D01*
X196129Y136875D02*Y132875D01*
X196929Y134875D02*X198129Y132875D01*
X199829D02*X201329Y134875D01*
Y136375D02*Y134875D01*
X200829Y136875D02*X201329Y136375D01*
X199829Y136875D02*X200829D01*
X199329Y136375D02*X199829Y136875D01*
X199329Y136375D02*Y135375D01*
X199829Y134875D01*
X201329D01*
X194329Y140575D02*X195629D01*
X193629Y141275D02*X194329Y140575D01*
X193629Y143875D02*Y141275D01*
Y143875D02*X194329Y144575D01*
X195629D01*
X196829Y143775D02*X197629Y144575D01*
Y140575D01*
X196829D02*X198329D01*
X201029Y144575D02*X201529Y144075D01*
X200029Y144575D02*X201029D01*
X199529Y144075D02*X200029Y144575D01*
X199529Y144075D02*Y141075D01*
X200029Y140575D01*
X201029Y142775D02*X201529Y142275D01*
X199529Y142775D02*X201029D01*
X200029Y140575D02*X201029D01*
X201529Y141075D01*
Y142275D02*Y141075D01*
X24200Y98000D02*X25500D01*
X23500Y98700D02*X24200Y98000D01*
X23500Y101300D02*Y98700D01*
Y101300D02*X24200Y102000D01*
X25500D01*
X27200Y98000D02*X29200Y102000D01*
X26700D02*X29200D01*
X31000Y108000D02*Y106700D01*
X30300Y106000D02*X31000Y106700D01*
X27700Y106000D02*X30300D01*
X27700D02*X27000Y106700D01*
Y108000D02*Y106700D01*
X27800Y109200D02*X27000Y110000D01*
X31000D01*
Y110700D02*Y109200D01*
Y112400D02*X27000Y114400D01*
Y111900D01*
Y143500D02*Y141500D01*
Y143500D02*X27500Y144000D01*
X28500D01*
X29000Y143500D02*X28500Y144000D01*
X29000Y143500D02*Y142000D01*
X27000D02*X31000D01*
X29000Y142800D02*X31000Y144000D01*
X27800Y145200D02*X27000Y146000D01*
X31000D01*
Y146700D02*Y145200D01*
X27500Y147900D02*X27000Y148400D01*
Y149900D02*Y148400D01*
Y149900D02*X27500Y150400D01*
X28500D01*
X31000Y147900D02*X28500Y150400D01*
X31000D02*Y147900D01*
X161000Y116500D02*Y115200D01*
X160300Y114500D02*X161000Y115200D01*
X157700Y114500D02*X160300D01*
X157700D02*X157000Y115200D01*
Y116500D02*Y115200D01*
X157500Y117700D02*X157000Y118200D01*
Y119700D02*Y118200D01*
Y119700D02*X157500Y120200D01*
X158500D01*
X161000Y117700D02*X158500Y120200D01*
X161000D02*Y117700D01*
X44200Y82000D02*X45500D01*
X43500Y82700D02*X44200Y82000D01*
X43500Y85300D02*Y82700D01*
Y85300D02*X44200Y86000D01*
X45500D01*
X46700Y83500D02*X48700Y86000D01*
X46700Y83500D02*X49200D01*
X48700Y86000D02*Y82000D01*
X62000Y78500D02*Y74500D01*
X64000D01*
X65200Y77700D02*X66000Y78500D01*
Y74500D01*
X65200D02*X66700D01*
X48000Y94500D02*X50000D01*
X50500Y94000D01*
Y93000D01*
X50000Y92500D02*X50500Y93000D01*
X48500Y92500D02*X50000D01*
X48500Y94500D02*Y90500D01*
X49300Y92500D02*X50500Y90500D01*
X51700Y94500D02*X53700D01*
X51700D02*Y92500D01*
X52200Y93000D01*
X53200D01*
X53700Y92500D01*
Y91000D01*
X53200Y90500D02*X53700Y91000D01*
X52200Y90500D02*X53200D01*
X51700Y91000D02*X52200Y90500D01*
X35200Y106000D02*X36500D01*
X34500Y106700D02*X35200Y106000D01*
X34500Y109300D02*Y106700D01*
Y109300D02*X35200Y110000D01*
X36500D01*
X37700Y109200D02*X38500Y110000D01*
Y106000D01*
X37700D02*X39200D01*
X40400Y106500D02*X40900Y106000D01*
X40400Y107300D02*Y106500D01*
Y107300D02*X41100Y108000D01*
X41700D01*
X42400Y107300D01*
Y106500D01*
X41900Y106000D02*X42400Y106500D01*
X40900Y106000D02*X41900D01*
X40400Y108700D02*X41100Y108000D01*
X40400Y109500D02*Y108700D01*
Y109500D02*X40900Y110000D01*
X41900D01*
X42400Y109500D01*
Y108700D01*
X41700Y108000D02*X42400Y108700D01*
X164300Y117100D02*Y115500D01*
Y116300D02*X167500D01*
X164300Y118460D02*X167500D01*
X164300Y119660D02*Y118060D01*
Y119660D02*X164700Y120060D01*
X165500D01*
X165900Y119660D02*X165500Y120060D01*
X165900Y119660D02*Y118460D01*
X164700Y121020D02*X164300Y121420D01*
Y122620D02*Y121420D01*
Y122620D02*X164700Y123020D01*
X165500D01*
X167500Y121020D02*X165500Y123020D01*
X167500D02*Y121020D01*
X167100Y123980D02*X167500Y124380D01*
X164700Y123980D02*X167100D01*
X164700D02*X164300Y124380D01*
Y125180D02*Y124380D01*
Y125180D02*X164700Y125580D01*
X167100D01*
X167500Y125180D02*X167100Y125580D01*
X167500Y125180D02*Y124380D01*
X166700Y123980D02*X165100Y125580D01*
X164300Y126540D02*X167500Y127340D01*
X164300Y128140D01*
X23350Y94150D02*X25350D01*
X25850Y93650D01*
Y92650D01*
X25350Y92150D02*X25850Y92650D01*
X23850Y92150D02*X25350D01*
X23850Y94150D02*Y90150D01*
X24650Y92150D02*X25850Y90150D01*
X27050Y93650D02*X27550Y94150D01*
X29050D01*
X29550Y93650D01*
Y92650D01*
X27050Y90150D02*X29550Y92650D01*
X27050Y90150D02*X29550D01*
X299350Y161350D02*Y160050D01*
X298650Y159350D02*X299350Y160050D01*
X296050Y159350D02*X298650D01*
X296050D02*X295350Y160050D01*
Y161350D02*Y160050D01*
X299350Y163050D02*X297350Y164550D01*
X295850D02*X297350D01*
X295350Y164050D02*X295850Y164550D01*
X295350Y164050D02*Y163050D01*
X295850Y162550D02*X295350Y163050D01*
X295850Y162550D02*X296850D01*
X297350Y163050D01*
Y164550D02*Y163050D01*
X299500Y195500D02*Y194200D01*
X298800Y193500D02*X299500Y194200D01*
X296200Y193500D02*X298800D01*
X296200D02*X295500Y194200D01*
Y195500D02*Y194200D01*
X296300Y196700D02*X295500Y197500D01*
X299500D01*
Y198200D02*Y196700D01*
X296000Y199400D02*X295500Y199900D01*
Y201400D02*Y199900D01*
Y201400D02*X296000Y201900D01*
X297000D01*
X299500Y199400D02*X297000Y201900D01*
X299500D02*Y199400D01*
X352000Y179000D02*Y175000D01*
X353300Y179000D02*X354000Y178300D01*
Y175700D01*
X353300Y175000D02*X354000Y175700D01*
X351500Y175000D02*X353300D01*
X351500Y179000D02*X353300D01*
X355200Y178200D02*X356000Y179000D01*
Y175000D01*
X355200D02*X356700D01*
X348550Y186650D02*X349850D01*
X347850Y187350D02*X348550Y186650D01*
X347850Y189950D02*Y187350D01*
Y189950D02*X348550Y190650D01*
X349850D01*
X351050Y187150D02*X351550Y186650D01*
X351050Y187950D02*Y187150D01*
Y187950D02*X351750Y188650D01*
X352350D01*
X353050Y187950D01*
Y187150D01*
X352550Y186650D02*X353050Y187150D01*
X351550Y186650D02*X352550D01*
X351050Y189350D02*X351750Y188650D01*
X351050Y190150D02*Y189350D01*
Y190150D02*X351550Y190650D01*
X352550D01*
X353050Y190150D01*
Y189350D01*
X352350Y188650D02*X353050Y189350D01*
X348350Y167150D02*X350350D01*
X350850Y166650D01*
Y165650D01*
X350350Y165150D02*X350850Y165650D01*
X348850Y165150D02*X350350D01*
X348850Y167150D02*Y163150D01*
X349650Y165150D02*X350850Y163150D01*
X352050Y166350D02*X352850Y167150D01*
Y163150D01*
X352050D02*X353550D01*
X354750Y166350D02*X355550Y167150D01*
Y163150D01*
X354750D02*X356250D01*
X348350Y159150D02*X350350D01*
X350850Y158650D01*
Y157650D01*
X350350Y157150D02*X350850Y157650D01*
X348850Y157150D02*X350350D01*
X348850Y159150D02*Y155150D01*
X349650Y157150D02*X350850Y155150D01*
X353550Y159150D02*X354050Y158650D01*
X352550Y159150D02*X353550D01*
X352050Y158650D02*X352550Y159150D01*
X352050Y158650D02*Y155650D01*
X352550Y155150D01*
X353550Y157350D02*X354050Y156850D01*
X352050Y157350D02*X353550D01*
X352550Y155150D02*X353550D01*
X354050Y155650D01*
Y156850D02*Y155650D01*
X268350Y158350D02*Y157050D01*
X267650Y156350D02*X268350Y157050D01*
X265050Y156350D02*X267650D01*
X265050D02*X264350Y157050D01*
Y158350D02*Y157050D01*
X265150Y159550D02*X264350Y160350D01*
X268350D01*
Y161050D02*Y159550D01*
X266850Y162250D02*X264350Y164250D01*
X266850Y164750D02*Y162250D01*
X264350Y164250D02*X268350D01*
X298000Y150000D02*X301500D01*
X302000Y150500D01*
Y151500D02*Y150500D01*
Y151500D02*X301500Y152000D01*
X298000D02*X301500D01*
X298500Y153200D02*X298000Y153700D01*
Y155200D02*Y153700D01*
Y155200D02*X298500Y155700D01*
X299500D01*
X302000Y153200D02*X299500Y155700D01*
X302000D02*Y153200D01*
X291050Y141650D02*X292350D01*
X290350Y142350D02*X291050Y141650D01*
X290350Y144950D02*Y142350D01*
Y144950D02*X291050Y145650D01*
X292350D01*
X293550Y144850D02*X294350Y145650D01*
Y141650D01*
X293550D02*X295050D01*
X296250Y144850D02*X297050Y145650D01*
Y141650D01*
X296250D02*X297750D01*
X255000Y125500D02*Y122000D01*
X255500Y121500D01*
X256500D01*
X257000Y122000D01*
Y125500D02*Y122000D01*
X258200Y124700D02*X259000Y125500D01*
Y121500D01*
X258200D02*X259700D01*
X268500Y124000D02*Y122700D01*
X267800Y122000D02*X268500Y122700D01*
X265200Y122000D02*X267800D01*
X265200D02*X264500Y122700D01*
Y124000D02*Y122700D01*
X265300Y125200D02*X264500Y126000D01*
X268500D01*
Y126700D02*Y125200D01*
X265000Y127900D02*X264500Y128400D01*
Y129400D02*Y128400D01*
Y129400D02*X265000Y129900D01*
X268500Y129400D02*X268000Y129900D01*
X268500Y129400D02*Y128400D01*
X268000Y127900D02*X268500Y128400D01*
X266300Y129400D02*Y128400D01*
X265000Y129900D02*X265800D01*
X266800D02*X268000D01*
X266800D02*X266300Y129400D01*
X265800Y129900D02*X266300Y129400D01*
X348350Y151150D02*X350350D01*
X350850Y150650D01*
Y149650D01*
X350350Y149150D02*X350850Y149650D01*
X348850Y149150D02*X350350D01*
X348850Y151150D02*Y147150D01*
X349650Y149150D02*X350850Y147150D01*
X352550D02*X354550Y151150D01*
X352050D02*X354550D01*
X326050Y141650D02*X327350D01*
X325350Y142350D02*X326050Y141650D01*
X325350Y144950D02*Y142350D01*
Y144950D02*X326050Y145650D01*
X327350D01*
X328550Y144850D02*X329350Y145650D01*
Y141650D01*
X328550D02*X330050D01*
X331250Y142150D02*X331750Y141650D01*
X331250Y145150D02*Y142150D01*
Y145150D02*X331750Y145650D01*
X332750D01*
X333250Y145150D01*
Y142150D01*
X332750Y141650D02*X333250Y142150D01*
X331750Y141650D02*X332750D01*
X331250Y142650D02*X333250Y144650D01*
X348350Y143150D02*X350350D01*
X350850Y142650D01*
Y141650D01*
X350350Y141150D02*X350850Y141650D01*
X348850Y141150D02*X350350D01*
X348850Y143150D02*Y139150D01*
X349650Y141150D02*X350850Y139150D01*
X352050Y142350D02*X352850Y143150D01*
Y139150D01*
X352050D02*X353550D01*
X354750Y139650D02*X355250Y139150D01*
X354750Y142650D02*Y139650D01*
Y142650D02*X355250Y143150D01*
X356250D01*
X356750Y142650D01*
Y139650D01*
X356250Y139150D02*X356750Y139650D01*
X355250Y139150D02*X356250D01*
X354750Y140150D02*X356750Y142150D01*
X264000Y176200D02*X265600D01*
X264800D02*Y173000D01*
X266960Y176200D02*Y173000D01*
X266560Y176200D02*X268160D01*
X268560Y175800D01*
Y175000D01*
X268160Y174600D02*X268560Y175000D01*
X266960Y174600D02*X268160D01*
X269520Y176200D02*X271120D01*
X270320D02*Y173000D01*
X272080D02*X274080Y176200D01*
X272080D02*X274080Y173000D01*
X248000Y175200D02*X249600D01*
X248800D02*Y172000D01*
X250960Y175200D02*Y172000D01*
X250560Y175200D02*X252160D01*
X252560Y174800D01*
Y174000D01*
X252160Y173600D02*X252560Y174000D01*
X250960Y173600D02*X252160D01*
X253520Y175200D02*X255120D01*
X255520Y174800D01*
Y174000D01*
X255120Y173600D02*X255520Y174000D01*
X253920Y173600D02*X255120D01*
X253920Y175200D02*Y172000D01*
X254560Y173600D02*X255520Y172000D01*
X256480D02*X258480Y175200D01*
X256480D02*X258480Y172000D01*
X131850Y158650D02*X133850D01*
X134350Y158150D01*
Y157150D01*
X133850Y156650D02*X134350Y157150D01*
X132350Y156650D02*X133850D01*
X132350Y158650D02*Y154650D01*
X133150Y156650D02*X134350Y154650D01*
X135550Y156150D02*X137550Y158650D01*
X135550Y156150D02*X138050D01*
X137550Y158650D02*Y154650D01*
X131850Y166150D02*X133850D01*
X134350Y165650D01*
Y164650D01*
X133850Y164150D02*X134350Y164650D01*
X132350Y164150D02*X133850D01*
X132350Y166150D02*Y162150D01*
X133150Y164150D02*X134350Y162150D01*
X135550Y165650D02*X136050Y166150D01*
X137050D01*
X137550Y165650D01*
X137050Y162150D02*X137550Y162650D01*
X136050Y162150D02*X137050D01*
X135550Y162650D02*X136050Y162150D01*
Y164350D02*X137050D01*
X137550Y165650D02*Y164850D01*
Y163850D02*Y162650D01*
Y163850D02*X137050Y164350D01*
X137550Y164850D02*X137050Y164350D01*
X131850Y173894D02*X133850D01*
X134350Y173394D01*
Y172394D01*
X133850Y171894D02*X134350Y172394D01*
X132350Y171894D02*X133850D01*
X132350Y173894D02*Y169894D01*
X133150Y171894D02*X134350Y169894D01*
X135550Y173094D02*X136350Y173894D01*
Y169894D01*
X135550D02*X137050D01*
X201000Y162200D02*X202600D01*
X201800D02*Y159000D01*
X203960Y162200D02*Y159000D01*
X203560Y162200D02*X205160D01*
X205560Y161800D01*
Y161000D01*
X205160Y160600D02*X205560Y161000D01*
X203960Y160600D02*X205160D01*
X208120Y162200D02*X208520Y161800D01*
X206920Y162200D02*X208120D01*
X206520Y161800D02*X206920Y162200D01*
X206520Y161800D02*Y159400D01*
X206920Y159000D01*
X208120D01*
X208520Y159400D01*
Y160200D02*Y159400D01*
X208120Y160600D02*X208520Y160200D01*
X207320Y160600D02*X208120D01*
X209480Y162200D02*Y159000D01*
Y162200D02*X211480Y159000D01*
Y162200D02*Y159000D01*
X212840Y162200D02*Y159000D01*
X213880Y162200D02*X214440Y161640D01*
Y159560D01*
X213880Y159000D02*X214440Y159560D01*
X212440Y159000D02*X213880D01*
X212440Y162200D02*X213880D01*
X215400Y161400D02*Y159000D01*
Y161400D02*X215960Y162200D01*
X216840D01*
X217400Y161400D01*
Y159000D01*
X215400Y160600D02*X217400D01*
X201000Y171200D02*X202600D01*
X201800D02*Y168000D01*
X203960Y171200D02*Y168000D01*
X203560Y171200D02*X205160D01*
X205560Y170800D01*
Y170000D01*
X205160Y169600D02*X205560Y170000D01*
X203960Y169600D02*X205160D01*
X206520Y171200D02*X207320Y168000D01*
X208120Y171200D01*
X209640Y168000D02*X210680D01*
X209080Y168560D02*X209640Y168000D01*
X209080Y170640D02*Y168560D01*
Y170640D02*X209640Y171200D01*
X210680D01*
X212200Y168000D02*X213240D01*
X211640Y168560D02*X212200Y168000D01*
X211640Y170640D02*Y168560D01*
Y170640D02*X212200Y171200D01*
X213240D01*
M02*
