G04 start of page 10 for group -3984 idx -3984 *
G04 Title: Dot-Flip Control, fab *
G04 Creator: pcb 20110918 *
G04 CreationDate: Tue 04 Dec 2012 09:28:54 AM GMT UTC *
G04 For: bertho *
G04 Format: Gerber/RS-274X *
G04 PCB-Dimensions: 450000 250000 *
G04 PCB-Coordinate-Origin: lower left *
%MOIN*%
%FSLAX25Y25*%
%LNFAB*%
%ADD108C,0.0050*%
%ADD107C,0.0040*%
%ADD106C,0.0100*%
%ADD105C,0.0075*%
%ADD104C,0.0060*%
%ADD103C,0.0001*%
%ADD102R,0.0080X0.0080*%
G54D102*X343500Y210500D02*Y207300D01*
G54D103*G36*
X342954Y210647D02*X346420Y212646D01*
X346820Y211953D01*
X343353Y209954D01*
X342954Y210647D01*
G37*
G36*
X343647Y209954D02*X340180Y211953D01*
X340580Y212646D01*
X344046Y210647D01*
X343647Y209954D01*
G37*
G54D102*X341900Y210500D02*G75*G03X345100Y210500I1600J0D01*G01*
G75*G03X341900Y210500I-1600J0D01*G01*
X343500Y53000D02*Y49800D01*
G54D103*G36*
X342954Y53147D02*X346420Y55146D01*
X346820Y54453D01*
X343353Y52454D01*
X342954Y53147D01*
G37*
G36*
X343647Y52454D02*X340180Y54453D01*
X340580Y55146D01*
X344046Y53147D01*
X343647Y52454D01*
G37*
G54D102*X341900Y53000D02*G75*G03X345100Y53000I1600J0D01*G01*
G75*G03X341900Y53000I-1600J0D01*G01*
X39000D02*Y49800D01*
G54D103*G36*
X38454Y53147D02*X41920Y55146D01*
X42320Y54453D01*
X38853Y52454D01*
X38454Y53147D01*
G37*
G36*
X39147Y52454D02*X35680Y54453D01*
X36080Y55146D01*
X39546Y53147D01*
X39147Y52454D01*
G37*
G54D102*X37400Y53000D02*G75*G03X40600Y53000I1600J0D01*G01*
G75*G03X37400Y53000I-1600J0D01*G01*
X39000Y210500D02*Y207300D01*
G54D103*G36*
X38454Y210647D02*X41920Y212646D01*
X42320Y211953D01*
X38853Y209954D01*
X38454Y210647D01*
G37*
G36*
X39147Y209954D02*X35680Y211953D01*
X36080Y212646D01*
X39546Y210647D01*
X39147Y209954D01*
G37*
G54D102*X37400Y210500D02*G75*G03X40600Y210500I1600J0D01*G01*
G75*G03X37400Y210500I-1600J0D01*G01*
X15000Y261250D02*Y258050D01*
G54D103*G36*
X14454Y261397D02*X17920Y263396D01*
X18320Y262703D01*
X14853Y260704D01*
X14454Y261397D01*
G37*
G36*
X15147Y260704D02*X11680Y262703D01*
X12080Y263396D01*
X15546Y261397D01*
X15147Y260704D01*
G37*
G54D102*X13400Y261250D02*G75*G03X16600Y261250I1600J0D01*G01*
G75*G03X13400Y261250I-1600J0D01*G01*
G54D104*X135000Y263500D02*X136500Y260500D01*
X138000Y263500D01*
X136500Y260500D02*Y257500D01*
X139800Y260800D02*X142050D01*
X139800Y257500D02*X142800D01*
X139800Y263500D02*Y257500D01*
Y263500D02*X142800D01*
X147600D02*X148350Y262750D01*
X145350Y263500D02*X147600D01*
X144600Y262750D02*X145350Y263500D01*
X144600Y262750D02*Y261250D01*
X145350Y260500D01*
X147600D01*
X148350Y259750D01*
Y258250D01*
X147600Y257500D02*X148350Y258250D01*
X145350Y257500D02*X147600D01*
X144600Y258250D02*X145350Y257500D01*
X98000Y259750D02*X101000Y263500D01*
X98000Y259750D02*X101750D01*
X101000Y263500D02*Y257500D01*
X45000Y258250D02*X45750Y257500D01*
X45000Y262750D02*Y258250D01*
Y262750D02*X45750Y263500D01*
X47250D01*
X48000Y262750D01*
Y258250D01*
X47250Y257500D02*X48000Y258250D01*
X45750Y257500D02*X47250D01*
X45000Y259000D02*X48000Y262000D01*
X49800Y257500D02*X50550D01*
X52350Y262300D02*X53550Y263500D01*
Y257500D01*
X52350D02*X54600D01*
X56400Y262750D02*X57150Y263500D01*
X58650D01*
X59400Y262750D01*
X58650Y257500D02*X59400Y258250D01*
X57150Y257500D02*X58650D01*
X56400Y258250D02*X57150Y257500D01*
Y260800D02*X58650D01*
X59400Y262750D02*Y261550D01*
Y260050D02*Y258250D01*
Y260050D02*X58650Y260800D01*
X59400Y261550D02*X58650Y260800D01*
X61200Y258250D02*X61950Y257500D01*
X61200Y262750D02*Y258250D01*
Y262750D02*X61950Y263500D01*
X63450D01*
X64200Y262750D01*
Y258250D01*
X63450Y257500D02*X64200Y258250D01*
X61950Y257500D02*X63450D01*
X61200Y259000D02*X64200Y262000D01*
X301900Y94100D02*X305100D01*
X301900D02*Y90900D01*
X305100D01*
Y94100D02*Y90900D01*
X135900Y94100D02*X139100D01*
X135900D02*Y90900D01*
X139100D01*
Y94100D02*Y90900D01*
X13400Y277850D02*X16600D01*
X13400D02*Y274650D01*
X16600D01*
Y277850D02*Y274650D01*
X135000Y278500D02*X136500Y275500D01*
X138000Y278500D01*
X136500Y275500D02*Y272500D01*
X139800Y275800D02*X142050D01*
X139800Y272500D02*X142800D01*
X139800Y278500D02*Y272500D01*
Y278500D02*X142800D01*
X147600D02*X148350Y277750D01*
X145350Y278500D02*X147600D01*
X144600Y277750D02*X145350Y278500D01*
X144600Y277750D02*Y276250D01*
X145350Y275500D01*
X147600D01*
X148350Y274750D01*
Y273250D01*
X147600Y272500D02*X148350Y273250D01*
X145350Y272500D02*X147600D01*
X144600Y273250D02*X145350Y272500D01*
X98000Y277750D02*X98750Y278500D01*
X101000D01*
X101750Y277750D01*
Y276250D01*
X98000Y272500D02*X101750Y276250D01*
X98000Y272500D02*X101750D01*
X45000Y273250D02*X45750Y272500D01*
X45000Y277750D02*Y273250D01*
Y277750D02*X45750Y278500D01*
X47250D01*
X48000Y277750D01*
Y273250D01*
X47250Y272500D02*X48000Y273250D01*
X45750Y272500D02*X47250D01*
X45000Y274000D02*X48000Y277000D01*
X49800Y272500D02*X50550D01*
X52350Y277300D02*X53550Y278500D01*
Y272500D01*
X52350D02*X54600D01*
X56400Y277300D02*X57600Y278500D01*
Y272500D01*
X56400D02*X58650D01*
X60450Y273250D02*X61200Y272500D01*
X60450Y277750D02*Y273250D01*
Y277750D02*X61200Y278500D01*
X62700D01*
X63450Y277750D01*
Y273250D01*
X62700Y272500D02*X63450Y273250D01*
X61200Y272500D02*X62700D01*
X60450Y274000D02*X63450Y277000D01*
X41700Y182500D02*G75*G03X43300Y182500I800J0D01*G01*
G75*G03X41700Y182500I-800J0D01*G01*
Y162500D02*G75*G03X43300Y162500I800J0D01*G01*
G75*G03X41700Y162500I-800J0D01*G01*
X14200Y291250D02*G75*G03X15800Y291250I800J0D01*G01*
G75*G03X14200Y291250I-800J0D01*G01*
X135000Y293500D02*X136500Y290500D01*
X138000Y293500D01*
X136500Y290500D02*Y287500D01*
X139800Y290800D02*X142050D01*
X139800Y287500D02*X142800D01*
X139800Y293500D02*Y287500D01*
Y293500D02*X142800D01*
X147600D02*X148350Y292750D01*
X145350Y293500D02*X147600D01*
X144600Y292750D02*X145350Y293500D01*
X144600Y292750D02*Y291250D01*
X145350Y290500D01*
X147600D01*
X148350Y289750D01*
Y288250D01*
X147600Y287500D02*X148350Y288250D01*
X145350Y287500D02*X147600D01*
X144600Y288250D02*X145350Y287500D01*
X98000Y292750D02*X98750Y293500D01*
X101000D01*
X101750Y292750D01*
Y291250D01*
X98000Y287500D02*X101750Y291250D01*
X98000Y287500D02*X101750D01*
X45000Y288250D02*X45750Y287500D01*
X45000Y292750D02*Y288250D01*
Y292750D02*X45750Y293500D01*
X47250D01*
X48000Y292750D01*
Y288250D01*
X47250Y287500D02*X48000Y288250D01*
X45750Y287500D02*X47250D01*
X45000Y289000D02*X48000Y292000D01*
X49800Y287500D02*X50550D01*
X52350Y288250D02*X53100Y287500D01*
X52350Y292750D02*Y288250D01*
Y292750D02*X53100Y293500D01*
X54600D01*
X55350Y292750D01*
Y288250D01*
X54600Y287500D02*X55350Y288250D01*
X53100Y287500D02*X54600D01*
X52350Y289000D02*X55350Y292000D01*
X57150Y289750D02*X60150Y293500D01*
X57150Y289750D02*X60900D01*
X60150Y293500D02*Y287500D01*
X62700Y292750D02*X63450Y293500D01*
X64950D01*
X65700Y292750D01*
X64950Y287500D02*X65700Y288250D01*
X63450Y287500D02*X64950D01*
X62700Y288250D02*X63450Y287500D01*
Y290800D02*X64950D01*
X65700Y292750D02*Y291550D01*
Y290050D02*Y288250D01*
Y290050D02*X64950Y290800D01*
X65700Y291550D02*X64950Y290800D01*
X279300Y101700D02*X281700Y99300D01*
X279300D02*X281700Y101700D01*
X279300Y91700D02*X281700Y89300D01*
X279300D02*X281700Y91700D01*
X269300Y101700D02*X271700Y99300D01*
X269300D02*X271700Y101700D01*
X269300Y91700D02*X271700Y89300D01*
X269300D02*X271700Y91700D01*
X259300Y101700D02*X261700Y99300D01*
X259300D02*X261700Y101700D01*
X259300Y91700D02*X261700Y89300D01*
X259300D02*X261700Y91700D01*
X249300Y101700D02*X251700Y99300D01*
X249300D02*X251700Y101700D01*
X249300Y91700D02*X251700Y89300D01*
X249300D02*X251700Y91700D01*
X239300Y101700D02*X241700Y99300D01*
X239300D02*X241700Y101700D01*
X239300Y91700D02*X241700Y89300D01*
X239300D02*X241700Y91700D01*
X229300Y101700D02*X231700Y99300D01*
X229300D02*X231700Y101700D01*
X229300Y91700D02*X231700Y89300D01*
X229300D02*X231700Y91700D01*
X219300Y101700D02*X221700Y99300D01*
X219300D02*X221700Y101700D01*
X219300Y91700D02*X221700Y89300D01*
X219300D02*X221700Y91700D01*
X209300Y101700D02*X211700Y99300D01*
X209300D02*X211700Y101700D01*
X209300Y91700D02*X211700Y89300D01*
X209300D02*X211700Y91700D01*
X199300Y101700D02*X201700Y99300D01*
X199300D02*X201700Y101700D01*
X199300Y91700D02*X201700Y89300D01*
X199300D02*X201700Y91700D01*
X189300Y101700D02*X191700Y99300D01*
X189300D02*X191700Y101700D01*
X189300Y91700D02*X191700Y89300D01*
X189300D02*X191700Y91700D01*
X179300Y101700D02*X181700Y99300D01*
X179300D02*X181700Y101700D01*
X179300Y91700D02*X181700Y89300D01*
X179300D02*X181700Y91700D01*
X169300Y101700D02*X171700Y99300D01*
X169300D02*X171700Y101700D01*
X169300Y91700D02*X171700Y89300D01*
X169300D02*X171700Y91700D01*
X159300Y101700D02*X161700Y99300D01*
X159300D02*X161700Y101700D01*
X159300Y91700D02*X161700Y89300D01*
X159300D02*X161700Y91700D01*
X247800Y197700D02*X250200Y195300D01*
X247800D02*X250200Y197700D01*
X247800Y187700D02*X250200Y185300D01*
X247800D02*X250200Y187700D01*
X237800Y197700D02*X240200Y195300D01*
X237800D02*X240200Y197700D01*
X237800Y187700D02*X240200Y185300D01*
X237800D02*X240200Y187700D01*
X227800Y197700D02*X230200Y195300D01*
X227800D02*X230200Y197700D01*
X227800Y187700D02*X230200Y185300D01*
X227800D02*X230200Y187700D01*
X13800Y307450D02*X16200Y305050D01*
X13800D02*X16200Y307450D01*
X135000Y308500D02*X136500Y305500D01*
X138000Y308500D01*
X136500Y305500D02*Y302500D01*
X139800Y305800D02*X142050D01*
X139800Y302500D02*X142800D01*
X139800Y308500D02*Y302500D01*
Y308500D02*X142800D01*
X147600D02*X148350Y307750D01*
X145350Y308500D02*X147600D01*
X144600Y307750D02*X145350Y308500D01*
X144600Y307750D02*Y306250D01*
X145350Y305500D01*
X147600D01*
X148350Y304750D01*
Y303250D01*
X147600Y302500D02*X148350Y303250D01*
X145350Y302500D02*X147600D01*
X144600Y303250D02*X145350Y302500D01*
X98000Y307750D02*X98750Y308500D01*
X100250D01*
X101000Y307750D01*
X100250Y302500D02*X101000Y303250D01*
X98750Y302500D02*X100250D01*
X98000Y303250D02*X98750Y302500D01*
Y305800D02*X100250D01*
X101000Y307750D02*Y306550D01*
Y305050D02*Y303250D01*
Y305050D02*X100250Y305800D01*
X101000Y306550D02*X100250Y305800D01*
X102800Y307750D02*X103550Y308500D01*
X105800D01*
X106550Y307750D01*
Y306250D01*
X102800Y302500D02*X106550Y306250D01*
X102800Y302500D02*X106550D01*
X45000Y303250D02*X45750Y302500D01*
X45000Y307750D02*Y303250D01*
Y307750D02*X45750Y308500D01*
X47250D01*
X48000Y307750D01*
Y303250D01*
X47250Y302500D02*X48000Y303250D01*
X45750Y302500D02*X47250D01*
X45000Y304000D02*X48000Y307000D01*
X49800Y302500D02*X50550D01*
X52350Y303250D02*X53100Y302500D01*
X52350Y307750D02*Y303250D01*
Y307750D02*X53100Y308500D01*
X54600D01*
X55350Y307750D01*
Y303250D01*
X54600Y302500D02*X55350Y303250D01*
X53100Y302500D02*X54600D01*
X52350Y304000D02*X55350Y307000D01*
X57150Y307750D02*X57900Y308500D01*
X59400D01*
X60150Y307750D01*
X59400Y302500D02*X60150Y303250D01*
X57900Y302500D02*X59400D01*
X57150Y303250D02*X57900Y302500D01*
Y305800D02*X59400D01*
X60150Y307750D02*Y306550D01*
Y305050D02*Y303250D01*
Y305050D02*X59400Y305800D01*
X60150Y306550D02*X59400Y305800D01*
X61950Y308500D02*X64950D01*
X61950D02*Y305500D01*
X62700Y306250D01*
X64200D01*
X64950Y305500D01*
Y303250D01*
X64200Y302500D02*X64950Y303250D01*
X62700Y302500D02*X64200D01*
X61950Y303250D02*X62700Y302500D01*
X269500Y171100D02*Y167900D01*
X267900Y169500D02*X271100D01*
X254500Y170100D02*Y166900D01*
X252900Y168500D02*X256100D01*
X280500Y113100D02*Y109900D01*
X278900Y111500D02*X282100D01*
X165500Y113600D02*Y110400D01*
X163900Y112000D02*X167100D01*
X197500Y162100D02*Y158900D01*
X195900Y160500D02*X199100D01*
X197500Y171100D02*Y167900D01*
X195900Y169500D02*X199100D01*
X15000Y322850D02*Y319650D01*
X13400Y321250D02*X16600D01*
X135000Y323500D02*X136500Y320500D01*
X138000Y323500D01*
X136500Y320500D02*Y317500D01*
X139800Y320800D02*X142050D01*
X139800Y317500D02*X142800D01*
X139800Y323500D02*Y317500D01*
Y323500D02*X142800D01*
X147600D02*X148350Y322750D01*
X145350Y323500D02*X147600D01*
X144600Y322750D02*X145350Y323500D01*
X144600Y322750D02*Y321250D01*
X145350Y320500D01*
X147600D01*
X148350Y319750D01*
Y318250D01*
X147600Y317500D02*X148350Y318250D01*
X145350Y317500D02*X147600D01*
X144600Y318250D02*X145350Y317500D01*
X100250Y323500D02*X101000Y322750D01*
X98750Y323500D02*X100250D01*
X98000Y322750D02*X98750Y323500D01*
X98000Y322750D02*Y318250D01*
X98750Y317500D01*
X100250Y320800D02*X101000Y320050D01*
X98000Y320800D02*X100250D01*
X98750Y317500D02*X100250D01*
X101000Y318250D01*
Y320050D02*Y318250D01*
X45000D02*X45750Y317500D01*
X45000Y322750D02*Y318250D01*
Y322750D02*X45750Y323500D01*
X47250D01*
X48000Y322750D01*
Y318250D01*
X47250Y317500D02*X48000Y318250D01*
X45750Y317500D02*X47250D01*
X45000Y319000D02*X48000Y322000D01*
X49800Y317500D02*X50550D01*
X52350Y318250D02*X53100Y317500D01*
X52350Y322750D02*Y318250D01*
Y322750D02*X53100Y323500D01*
X54600D01*
X55350Y322750D01*
Y318250D01*
X54600Y317500D02*X55350Y318250D01*
X53100Y317500D02*X54600D01*
X52350Y319000D02*X55350Y322000D01*
X57150Y322750D02*X57900Y323500D01*
X60150D01*
X60900Y322750D01*
Y321250D01*
X57150Y317500D02*X60900Y321250D01*
X57150Y317500D02*X60900D01*
X62700Y318250D02*X63450Y317500D01*
X62700Y322750D02*Y318250D01*
Y322750D02*X63450Y323500D01*
X64950D01*
X65700Y322750D01*
Y318250D01*
X64950Y317500D02*X65700Y318250D01*
X63450Y317500D02*X64950D01*
X62700Y319000D02*X65700Y322000D01*
X225500Y111000D02*Y109400D01*
Y111000D02*X226887Y111800D01*
X225500Y111000D02*X224113Y111800D01*
X228000Y154000D02*Y152400D01*
Y154000D02*X229387Y154800D01*
X228000Y154000D02*X226613Y154800D01*
X234000Y154000D02*Y152400D01*
Y154000D02*X235387Y154800D01*
X234000Y154000D02*X232613Y154800D01*
X241000Y154000D02*Y152400D01*
Y154000D02*X242387Y154800D01*
X241000Y154000D02*X239613Y154800D01*
X238000Y149500D02*Y147900D01*
Y149500D02*X239387Y150300D01*
X238000Y149500D02*X236613Y150300D01*
X215500Y128000D02*Y126400D01*
Y128000D02*X216887Y128800D01*
X215500Y128000D02*X214113Y128800D01*
X200500Y128000D02*Y126400D01*
Y128000D02*X201887Y128800D01*
X200500Y128000D02*X199113Y128800D01*
X190500Y125500D02*Y123900D01*
Y125500D02*X191887Y126300D01*
X190500Y125500D02*X189113Y126300D01*
X180500Y122500D02*Y120900D01*
Y122500D02*X181887Y123300D01*
X180500Y122500D02*X179113Y123300D01*
X195500Y119500D02*Y117900D01*
Y119500D02*X196887Y120300D01*
X195500Y119500D02*X194113Y120300D01*
X221000Y119500D02*Y117900D01*
Y119500D02*X222387Y120300D01*
X221000Y119500D02*X219613Y120300D01*
X227500Y135000D02*Y133400D01*
Y135000D02*X228887Y135800D01*
X227500Y135000D02*X226113Y135800D01*
X215000Y139500D02*Y137900D01*
Y139500D02*X216387Y140300D01*
X215000Y139500D02*X213613Y140300D01*
X202500Y146500D02*Y144900D01*
Y146500D02*X203887Y147300D01*
X202500Y146500D02*X201113Y147300D01*
X271000Y134000D02*Y132400D01*
Y134000D02*X272387Y134800D01*
X271000Y134000D02*X269613Y134800D01*
X271000Y152500D02*Y150900D01*
Y152500D02*X272387Y153300D01*
X271000Y152500D02*X269613Y153300D01*
X311500Y143500D02*Y141900D01*
Y143500D02*X312887Y144300D01*
X311500Y143500D02*X310113Y144300D01*
X344000Y184000D02*Y182400D01*
Y184000D02*X345387Y184800D01*
X344000Y184000D02*X342613Y184800D01*
X293500Y201000D02*Y199400D01*
Y201000D02*X294887Y201800D01*
X293500Y201000D02*X292113Y201800D01*
X314000Y192000D02*Y190400D01*
Y192000D02*X315387Y192800D01*
X314000Y192000D02*X312613Y192800D01*
X302500Y192000D02*Y190400D01*
Y192000D02*X303887Y192800D01*
X302500Y192000D02*X301113Y192800D01*
X302000Y164000D02*Y162400D01*
Y164000D02*X303387Y164800D01*
X302000Y164000D02*X300613Y164800D01*
X302000Y179244D02*Y177644D01*
Y179244D02*X303387Y180044D01*
X302000Y179244D02*X300613Y180044D01*
X349000Y164000D02*Y162400D01*
Y164000D02*X350387Y164800D01*
X349000Y164000D02*X347613Y164800D01*
X333500Y173000D02*Y171400D01*
Y173000D02*X334887Y173800D01*
X333500Y173000D02*X332113Y173800D01*
X277000Y173000D02*Y171400D01*
Y173000D02*X278387Y173800D01*
X277000Y173000D02*X275613Y173800D01*
X148000Y175500D02*Y173900D01*
Y175500D02*X149387Y176300D01*
X148000Y175500D02*X146613Y176300D01*
X143500Y186500D02*Y184900D01*
Y186500D02*X144887Y187300D01*
X143500Y186500D02*X142113Y187300D01*
X114500Y196000D02*Y194400D01*
Y196000D02*X115887Y196800D01*
X114500Y196000D02*X113113Y196800D01*
X131000Y160000D02*Y158400D01*
Y160000D02*X132387Y160800D01*
X131000Y160000D02*X129613Y160800D01*
X344000Y169500D02*Y167900D01*
Y169500D02*X345387Y170300D01*
X344000Y169500D02*X342613Y170300D01*
X254500Y159000D02*Y157400D01*
Y159000D02*X255887Y159800D01*
X254500Y159000D02*X253113Y159800D01*
X344000Y136000D02*Y134400D01*
Y136000D02*X345387Y136800D01*
X344000Y136000D02*X342613Y136800D01*
X236000Y129500D02*Y127900D01*
Y129500D02*X237387Y130300D01*
X236000Y129500D02*X234613Y130300D01*
X220000Y157000D02*Y155400D01*
Y157000D02*X221387Y157800D01*
X220000Y157000D02*X218613Y157800D01*
X83500Y214500D02*Y212900D01*
Y214500D02*X84887Y215300D01*
X83500Y214500D02*X82113Y215300D01*
X95500Y214500D02*Y212900D01*
Y214500D02*X96887Y215300D01*
X95500Y214500D02*X94113Y215300D01*
X37000Y131500D02*Y129900D01*
Y131500D02*X38387Y132300D01*
X37000Y131500D02*X35613Y132300D01*
X42000Y131500D02*Y129900D01*
Y131500D02*X43387Y132300D01*
X42000Y131500D02*X40613Y132300D01*
X29000Y114500D02*Y112900D01*
Y114500D02*X30387Y115300D01*
X29000Y114500D02*X27613Y115300D01*
X52500Y95500D02*Y93900D01*
Y95500D02*X53887Y96300D01*
X52500Y95500D02*X51113Y96300D01*
X131500Y145500D02*Y143900D01*
Y145500D02*X132887Y146300D01*
X131500Y145500D02*X130113Y146300D01*
X143500Y140000D02*Y138400D01*
Y140000D02*X144887Y140800D01*
X143500Y140000D02*X142113Y140800D01*
X104500Y169000D02*Y167400D01*
Y169000D02*X105887Y169800D01*
X104500Y169000D02*X103113Y169800D01*
X99000Y157000D02*Y155400D01*
Y157000D02*X100387Y157800D01*
X99000Y157000D02*X97613Y157800D01*
X39500Y79500D02*Y77900D01*
Y79500D02*X40887Y80300D01*
X39500Y79500D02*X38113Y80300D01*
X153000Y77500D02*Y75900D01*
Y77500D02*X154387Y78300D01*
X153000Y77500D02*X151613Y78300D01*
X231000Y149500D02*Y147900D01*
Y149500D02*X232387Y150300D01*
X231000Y149500D02*X229613Y150300D01*
X250500Y139500D02*Y137900D01*
Y139500D02*X251887Y140300D01*
X250500Y139500D02*X249113Y140300D01*
X290000Y178000D02*Y176400D01*
Y178000D02*X291387Y178800D01*
X290000Y178000D02*X288613Y178800D01*
X290000Y153500D02*Y151900D01*
Y153500D02*X291387Y154300D01*
X290000Y153500D02*X288613Y154300D01*
X15000Y336250D02*Y334650D01*
Y336250D02*X16387Y337050D01*
X15000Y336250D02*X13613Y337050D01*
X135000Y338500D02*X136500Y335500D01*
X138000Y338500D01*
X136500Y335500D02*Y332500D01*
X139800Y335800D02*X142050D01*
X139800Y332500D02*X142800D01*
X139800Y338500D02*Y332500D01*
Y338500D02*X142800D01*
X147600D02*X148350Y337750D01*
X145350Y338500D02*X147600D01*
X144600Y337750D02*X145350Y338500D01*
X144600Y337750D02*Y336250D01*
X145350Y335500D01*
X147600D01*
X148350Y334750D01*
Y333250D01*
X147600Y332500D02*X148350Y333250D01*
X145350Y332500D02*X147600D01*
X144600Y333250D02*X145350Y332500D01*
X98000Y338500D02*X101000D01*
X98000D02*Y335500D01*
X98750Y336250D01*
X100250D01*
X101000Y335500D01*
Y333250D01*
X100250Y332500D02*X101000Y333250D01*
X98750Y332500D02*X100250D01*
X98000Y333250D02*X98750Y332500D01*
X102800Y337300D02*X104000Y338500D01*
Y332500D01*
X102800D02*X105050D01*
X45000Y333250D02*X45750Y332500D01*
X45000Y337750D02*Y333250D01*
Y337750D02*X45750Y338500D01*
X47250D01*
X48000Y337750D01*
Y333250D01*
X47250Y332500D02*X48000Y333250D01*
X45750Y332500D02*X47250D01*
X45000Y334000D02*X48000Y337000D01*
X49800Y332500D02*X50550D01*
X52350Y333250D02*X53100Y332500D01*
X52350Y337750D02*Y333250D01*
Y337750D02*X53100Y338500D01*
X54600D01*
X55350Y337750D01*
Y333250D01*
X54600Y332500D02*X55350Y333250D01*
X53100Y332500D02*X54600D01*
X52350Y334000D02*X55350Y337000D01*
X57150Y337300D02*X58350Y338500D01*
Y332500D01*
X57150D02*X59400D01*
X63450Y338500D02*X64200Y337750D01*
X61950Y338500D02*X63450D01*
X61200Y337750D02*X61950Y338500D01*
X61200Y337750D02*Y333250D01*
X61950Y332500D01*
X63450Y335800D02*X64200Y335050D01*
X61200Y335800D02*X63450D01*
X61950Y332500D02*X63450D01*
X64200Y333250D01*
Y335050D02*Y333250D01*
X3000Y353500D02*X3750Y352750D01*
X750Y353500D02*X3000D01*
X0Y352750D02*X750Y353500D01*
X0Y352750D02*Y351250D01*
X750Y350500D01*
X3000D01*
X3750Y349750D01*
Y348250D01*
X3000Y347500D02*X3750Y348250D01*
X750Y347500D02*X3000D01*
X0Y348250D02*X750Y347500D01*
X5550Y350500D02*Y348250D01*
X6300Y347500D01*
X8550Y350500D02*Y346000D01*
X7800Y345250D02*X8550Y346000D01*
X6300Y345250D02*X7800D01*
X5550Y346000D02*X6300Y345250D01*
Y347500D02*X7800D01*
X8550Y348250D01*
X11100Y349750D02*Y347500D01*
Y349750D02*X11850Y350500D01*
X12600D01*
X13350Y349750D01*
Y347500D01*
Y349750D02*X14100Y350500D01*
X14850D01*
X15600Y349750D01*
Y347500D01*
X10350Y350500D02*X11100Y349750D01*
X17400Y353500D02*Y347500D01*
Y348250D02*X18150Y347500D01*
X19650D01*
X20400Y348250D01*
Y349750D02*Y348250D01*
X19650Y350500D02*X20400Y349750D01*
X18150Y350500D02*X19650D01*
X17400Y349750D02*X18150Y350500D01*
X22200Y349750D02*Y348250D01*
Y349750D02*X22950Y350500D01*
X24450D01*
X25200Y349750D01*
Y348250D01*
X24450Y347500D02*X25200Y348250D01*
X22950Y347500D02*X24450D01*
X22200Y348250D02*X22950Y347500D01*
X27000Y353500D02*Y348250D01*
X27750Y347500D01*
X0Y344250D02*X29250D01*
X41750Y353500D02*Y347500D01*
X43700Y353500D02*X44750Y352450D01*
Y348550D01*
X43700Y347500D02*X44750Y348550D01*
X41000Y347500D02*X43700D01*
X41000Y353500D02*X43700D01*
G54D105*X46550Y352000D02*Y351850D01*
G54D104*Y349750D02*Y347500D01*
X50300Y350500D02*X51050Y349750D01*
X48800Y350500D02*X50300D01*
X48050Y349750D02*X48800Y350500D01*
X48050Y349750D02*Y348250D01*
X48800Y347500D01*
X51050Y350500D02*Y348250D01*
X51800Y347500D01*
X48800D02*X50300D01*
X51050Y348250D01*
X54350Y349750D02*Y347500D01*
Y349750D02*X55100Y350500D01*
X55850D01*
X56600Y349750D01*
Y347500D01*
Y349750D02*X57350Y350500D01*
X58100D01*
X58850Y349750D01*
Y347500D01*
X53600Y350500D02*X54350Y349750D01*
X60650Y347500D02*X61400D01*
X65900Y348250D02*X66650Y347500D01*
X65900Y352750D02*X66650Y353500D01*
X65900Y352750D02*Y348250D01*
X68450Y353500D02*X69950D01*
X69200D02*Y347500D01*
X68450D02*X69950D01*
X72500Y349750D02*Y347500D01*
Y349750D02*X73250Y350500D01*
X74000D01*
X74750Y349750D01*
Y347500D01*
X71750Y350500D02*X72500Y349750D01*
X77300Y350500D02*X79550D01*
X76550Y349750D02*X77300Y350500D01*
X76550Y349750D02*Y348250D01*
X77300Y347500D01*
X79550D01*
X81350Y353500D02*Y347500D01*
Y349750D02*X82100Y350500D01*
X83600D01*
X84350Y349750D01*
Y347500D01*
X86150Y353500D02*X86900Y352750D01*
Y348250D01*
X86150Y347500D02*X86900Y348250D01*
X41000Y344250D02*X88700D01*
X96050Y347500D02*X98000D01*
X95000Y348550D02*X96050Y347500D01*
X95000Y352450D02*Y348550D01*
Y352450D02*X96050Y353500D01*
X98000D01*
X99800Y349750D02*Y348250D01*
Y349750D02*X100550Y350500D01*
X102050D01*
X102800Y349750D01*
Y348250D01*
X102050Y347500D02*X102800Y348250D01*
X100550Y347500D02*X102050D01*
X99800Y348250D02*X100550Y347500D01*
X104600Y350500D02*Y348250D01*
X105350Y347500D01*
X106850D01*
X107600Y348250D01*
Y350500D02*Y348250D01*
X110150Y349750D02*Y347500D01*
Y349750D02*X110900Y350500D01*
X111650D01*
X112400Y349750D01*
Y347500D01*
X109400Y350500D02*X110150Y349750D01*
X114950Y353500D02*Y348250D01*
X115700Y347500D01*
X114200Y351250D02*X115700D01*
X95000Y344250D02*X117200D01*
X130750Y353500D02*Y347500D01*
X130000Y353500D02*X133000D01*
X133750Y352750D01*
Y351250D01*
X133000Y350500D02*X133750Y351250D01*
X130750Y350500D02*X133000D01*
X135550Y353500D02*Y348250D01*
X136300Y347500D01*
X140050Y350500D02*X140800Y349750D01*
X138550Y350500D02*X140050D01*
X137800Y349750D02*X138550Y350500D01*
X137800Y349750D02*Y348250D01*
X138550Y347500D01*
X140800Y350500D02*Y348250D01*
X141550Y347500D01*
X138550D02*X140050D01*
X140800Y348250D01*
X144100Y353500D02*Y348250D01*
X144850Y347500D01*
X143350Y351250D02*X144850D01*
X147100Y347500D02*X149350D01*
X146350Y348250D02*X147100Y347500D01*
X146350Y349750D02*Y348250D01*
Y349750D02*X147100Y350500D01*
X148600D01*
X149350Y349750D01*
X146350Y349000D02*X149350D01*
Y349750D02*Y349000D01*
X154150Y353500D02*Y347500D01*
X153400D02*X154150Y348250D01*
X151900Y347500D02*X153400D01*
X151150Y348250D02*X151900Y347500D01*
X151150Y349750D02*Y348250D01*
Y349750D02*X151900Y350500D01*
X153400D01*
X154150Y349750D01*
X157450Y350500D02*Y349750D01*
Y348250D02*Y347500D01*
X155950Y352750D02*Y352000D01*
Y352750D02*X156700Y353500D01*
X158200D01*
X158950Y352750D01*
Y352000D01*
X157450Y350500D02*X158950Y352000D01*
X130000Y344250D02*X160750D01*
X0Y368500D02*X3000D01*
X1500D02*Y362500D01*
X4800Y368500D02*Y362500D01*
Y364750D02*X5550Y365500D01*
X7050D01*
X7800Y364750D01*
Y362500D01*
X10350D02*X12600D01*
X9600Y363250D02*X10350Y362500D01*
X9600Y364750D02*Y363250D01*
Y364750D02*X10350Y365500D01*
X11850D01*
X12600Y364750D01*
X9600Y364000D02*X12600D01*
Y364750D02*Y364000D01*
X15150Y364750D02*Y362500D01*
Y364750D02*X15900Y365500D01*
X17400D01*
X14400D02*X15150Y364750D01*
X19950Y362500D02*X22200D01*
X19200Y363250D02*X19950Y362500D01*
X19200Y364750D02*Y363250D01*
Y364750D02*X19950Y365500D01*
X21450D01*
X22200Y364750D01*
X19200Y364000D02*X22200D01*
Y364750D02*Y364000D01*
X28950Y365500D02*X29700Y364750D01*
X27450Y365500D02*X28950D01*
X26700Y364750D02*X27450Y365500D01*
X26700Y364750D02*Y363250D01*
X27450Y362500D01*
X29700Y365500D02*Y363250D01*
X30450Y362500D01*
X27450D02*X28950D01*
X29700Y363250D01*
X33000Y364750D02*Y362500D01*
Y364750D02*X33750Y365500D01*
X35250D01*
X32250D02*X33000Y364750D01*
X37800Y362500D02*X40050D01*
X37050Y363250D02*X37800Y362500D01*
X37050Y364750D02*Y363250D01*
Y364750D02*X37800Y365500D01*
X39300D01*
X40050Y364750D01*
X37050Y364000D02*X40050D01*
Y364750D02*Y364000D01*
X46800Y368500D02*X47550Y367750D01*
X45300Y368500D02*X46800D01*
X44550Y367750D02*X45300Y368500D01*
X44550Y367750D02*Y363250D01*
X45300Y362500D01*
X46800Y365800D02*X47550Y365050D01*
X44550Y365800D02*X46800D01*
X45300Y362500D02*X46800D01*
X47550Y363250D01*
Y365050D02*Y363250D01*
X55050Y368500D02*Y362500D01*
X54300D02*X55050Y363250D01*
X52800Y362500D02*X54300D01*
X52050Y363250D02*X52800Y362500D01*
X52050Y364750D02*Y363250D01*
Y364750D02*X52800Y365500D01*
X54300D01*
X55050Y364750D01*
G54D105*X56850Y367000D02*Y366850D01*
G54D104*Y364750D02*Y362500D01*
X59100Y367750D02*Y362500D01*
Y367750D02*X59850Y368500D01*
X60600D01*
X58350Y365500D02*X59850D01*
X62850Y367750D02*Y362500D01*
Y367750D02*X63600Y368500D01*
X64350D01*
X62100Y365500D02*X63600D01*
X66600Y362500D02*X68850D01*
X65850Y363250D02*X66600Y362500D01*
X65850Y364750D02*Y363250D01*
Y364750D02*X66600Y365500D01*
X68100D01*
X68850Y364750D01*
X65850Y364000D02*X68850D01*
Y364750D02*Y364000D01*
X71400Y364750D02*Y362500D01*
Y364750D02*X72150Y365500D01*
X73650D01*
X70650D02*X71400Y364750D01*
X76200Y362500D02*X78450D01*
X75450Y363250D02*X76200Y362500D01*
X75450Y364750D02*Y363250D01*
Y364750D02*X76200Y365500D01*
X77700D01*
X78450Y364750D01*
X75450Y364000D02*X78450D01*
Y364750D02*Y364000D01*
X81000Y364750D02*Y362500D01*
Y364750D02*X81750Y365500D01*
X82500D01*
X83250Y364750D01*
Y362500D01*
X80250Y365500D02*X81000Y364750D01*
X85800Y368500D02*Y363250D01*
X86550Y362500D01*
X85050Y366250D02*X86550D01*
X93750Y368500D02*Y362500D01*
X93000D02*X93750Y363250D01*
X91500Y362500D02*X93000D01*
X90750Y363250D02*X91500Y362500D01*
X90750Y364750D02*Y363250D01*
Y364750D02*X91500Y365500D01*
X93000D01*
X93750Y364750D01*
X96300D02*Y362500D01*
Y364750D02*X97050Y365500D01*
X98550D01*
X95550D02*X96300Y364750D01*
G54D105*X100350Y367000D02*Y366850D01*
G54D104*Y364750D02*Y362500D01*
X101850Y368500D02*Y363250D01*
X102600Y362500D01*
X104100Y368500D02*Y363250D01*
X104850Y362500D01*
X109800D02*X112050D01*
X112800Y363250D01*
X112050Y364000D02*X112800Y363250D01*
X109800Y364000D02*X112050D01*
X109050Y364750D02*X109800Y364000D01*
X109050Y364750D02*X109800Y365500D01*
X112050D01*
X112800Y364750D01*
X109050Y363250D02*X109800Y362500D01*
G54D105*X114600Y367000D02*Y366850D01*
G54D104*Y364750D02*Y362500D01*
X116100Y365500D02*X119100D01*
X116100Y362500D02*X119100Y365500D01*
X116100Y362500D02*X119100D01*
X121650D02*X123900D01*
X120900Y363250D02*X121650Y362500D01*
X120900Y364750D02*Y363250D01*
Y364750D02*X121650Y365500D01*
X123150D01*
X123900Y364750D01*
X120900Y364000D02*X123900D01*
Y364750D02*Y364000D01*
X126450Y362500D02*X128700D01*
X129450Y363250D01*
X128700Y364000D02*X129450Y363250D01*
X126450Y364000D02*X128700D01*
X125700Y364750D02*X126450Y364000D01*
X125700Y364750D02*X126450Y365500D01*
X128700D01*
X129450Y364750D01*
X125700Y363250D02*X126450Y362500D01*
X133950Y365500D02*Y363250D01*
X134700Y362500D01*
X136200D01*
X136950Y363250D01*
Y365500D02*Y363250D01*
X139500Y362500D02*X141750D01*
X142500Y363250D01*
X141750Y364000D02*X142500Y363250D01*
X139500Y364000D02*X141750D01*
X138750Y364750D02*X139500Y364000D01*
X138750Y364750D02*X139500Y365500D01*
X141750D01*
X142500Y364750D01*
X138750Y363250D02*X139500Y362500D01*
X145050D02*X147300D01*
X144300Y363250D02*X145050Y362500D01*
X144300Y364750D02*Y363250D01*
Y364750D02*X145050Y365500D01*
X146550D01*
X147300Y364750D01*
X144300Y364000D02*X147300D01*
Y364750D02*Y364000D01*
X152100Y368500D02*Y362500D01*
X151350D02*X152100Y363250D01*
X149850Y362500D02*X151350D01*
X149100Y363250D02*X149850Y362500D01*
X149100Y364750D02*Y363250D01*
Y364750D02*X149850Y365500D01*
X151350D01*
X152100Y364750D01*
G54D105*X156600Y367000D02*Y366850D01*
G54D104*Y364750D02*Y362500D01*
X158850Y364750D02*Y362500D01*
Y364750D02*X159600Y365500D01*
X160350D01*
X161100Y364750D01*
Y362500D01*
X158100Y365500D02*X158850Y364750D01*
X166350Y368500D02*Y363250D01*
X167100Y362500D01*
X165600Y366250D02*X167100D01*
X168600Y368500D02*Y362500D01*
Y364750D02*X169350Y365500D01*
X170850D01*
X171600Y364750D01*
Y362500D01*
G54D105*X173400Y367000D02*Y366850D01*
G54D104*Y364750D02*Y362500D01*
X175650D02*X177900D01*
X178650Y363250D01*
X177900Y364000D02*X178650Y363250D01*
X175650Y364000D02*X177900D01*
X174900Y364750D02*X175650Y364000D01*
X174900Y364750D02*X175650Y365500D01*
X177900D01*
X178650Y364750D01*
X174900Y363250D02*X175650Y362500D01*
X183150Y368500D02*Y363250D01*
X183900Y362500D01*
X187650Y365500D02*X188400Y364750D01*
X186150Y365500D02*X187650D01*
X185400Y364750D02*X186150Y365500D01*
X185400Y364750D02*Y363250D01*
X186150Y362500D01*
X188400Y365500D02*Y363250D01*
X189150Y362500D01*
X186150D02*X187650D01*
X188400Y363250D01*
X190950Y365500D02*Y363250D01*
X191700Y362500D01*
X193950Y365500D02*Y361000D01*
X193200Y360250D02*X193950Y361000D01*
X191700Y360250D02*X193200D01*
X190950Y361000D02*X191700Y360250D01*
Y362500D02*X193200D01*
X193950Y363250D01*
X195750Y364750D02*Y363250D01*
Y364750D02*X196500Y365500D01*
X198000D01*
X198750Y364750D01*
Y363250D01*
X198000Y362500D02*X198750Y363250D01*
X196500Y362500D02*X198000D01*
X195750Y363250D02*X196500Y362500D01*
X200550Y365500D02*Y363250D01*
X201300Y362500D01*
X202800D01*
X203550Y363250D01*
Y365500D02*Y363250D01*
X206100Y368500D02*Y363250D01*
X206850Y362500D01*
X205350Y366250D02*X206850D01*
X208350Y361000D02*X209850Y362500D01*
X215100D02*X217350Y365500D01*
Y367750D02*Y365500D01*
X216600Y368500D02*X217350Y367750D01*
X215100Y368500D02*X216600D01*
X214350Y367750D02*X215100Y368500D01*
X214350Y367750D02*Y366250D01*
X215100Y365500D01*
X217350D01*
X219900Y362500D02*X222900Y368500D01*
X219150D02*X222900D01*
X227400D02*Y362500D01*
Y364750D02*X228150Y365500D01*
X229650D01*
X230400Y364750D01*
Y362500D01*
X232200Y364750D02*Y363250D01*
Y364750D02*X232950Y365500D01*
X234450D01*
X235200Y364750D01*
Y363250D01*
X234450Y362500D02*X235200Y363250D01*
X232950Y362500D02*X234450D01*
X232200Y363250D02*X232950Y362500D01*
X237000Y368500D02*Y363250D01*
X237750Y362500D01*
X240000D02*X242250D01*
X239250Y363250D02*X240000Y362500D01*
X239250Y364750D02*Y363250D01*
Y364750D02*X240000Y365500D01*
X241500D01*
X242250Y364750D01*
X239250Y364000D02*X242250D01*
Y364750D02*Y364000D01*
X244800Y362500D02*X247050D01*
X247800Y363250D01*
X247050Y364000D02*X247800Y363250D01*
X244800Y364000D02*X247050D01*
X244050Y364750D02*X244800Y364000D01*
X244050Y364750D02*X244800Y365500D01*
X247050D01*
X247800Y364750D01*
X244050Y363250D02*X244800Y362500D01*
X253050Y368500D02*Y363250D01*
X253800Y362500D01*
X252300Y366250D02*X253800D01*
X255300Y364750D02*Y363250D01*
Y364750D02*X256050Y365500D01*
X257550D01*
X258300Y364750D01*
Y363250D01*
X257550Y362500D02*X258300Y363250D01*
X256050Y362500D02*X257550D01*
X255300Y363250D02*X256050Y362500D01*
X260850Y368500D02*Y363250D01*
X261600Y362500D01*
X260100Y366250D02*X261600D01*
X265350Y365500D02*X266100Y364750D01*
X263850Y365500D02*X265350D01*
X263100Y364750D02*X263850Y365500D01*
X263100Y364750D02*Y363250D01*
X263850Y362500D01*
X266100Y365500D02*Y363250D01*
X266850Y362500D01*
X263850D02*X265350D01*
X266100Y363250D01*
X268650Y368500D02*Y363250D01*
X269400Y362500D01*
G54D106*X20000Y23500D02*X362500D01*
Y33500D02*Y18500D01*
Y33500D02*X377500D01*
X372500D02*Y230000D01*
X362500D02*X377500D01*
X20000Y33500D02*Y18500D01*
Y23500D02*X25000Y26000D01*
X20000Y23500D02*X25000Y21000D01*
X372500Y33500D02*X370000Y38500D01*
X372500Y33500D02*X375000Y38500D01*
X362500Y23500D02*X357500Y21000D01*
X362500Y23500D02*X357500Y26000D01*
X372500Y230000D02*X375000Y225000D01*
X372500Y230000D02*X370000Y225000D01*
X24000Y230000D02*X358500D01*
X20000Y37500D02*Y226000D01*
X358500Y33500D02*X24000D01*
X362500Y226000D02*Y37500D01*
X24000Y230000D02*G75*G03X20000Y226000I0J-4000D01*G01*
Y37500D02*G75*G03X24000Y33500I4000J0D01*G01*
X362500Y37500D02*G75*G02X358500Y33500I-4000J0D01*G01*
Y230000D02*G75*G02X362500Y226000I0J-4000D01*G01*
G54D107*X177000Y29000D02*X177500Y29500D01*
X178500D01*
X179000Y29000D01*
X178500Y25500D02*X179000Y26000D01*
X177500Y25500D02*X178500D01*
X177000Y26000D02*X177500Y25500D01*
Y27700D02*X178500D01*
X179000Y29000D02*Y28200D01*
Y27200D02*Y26000D01*
Y27200D02*X178500Y27700D01*
X179000Y28200D02*X178500Y27700D01*
X180200Y27000D02*X182200Y29500D01*
X180200Y27000D02*X182700D01*
X182200Y29500D02*Y25500D01*
X183900Y29000D02*X184400Y29500D01*
X185900D01*
X186400Y29000D01*
Y28000D01*
X183900Y25500D02*X186400Y28000D01*
X183900Y25500D02*X186400D01*
X187600Y29500D02*X189600D01*
X187600D02*Y27500D01*
X188100Y28000D01*
X189100D01*
X189600Y27500D01*
Y26000D01*
X189100Y25500D02*X189600Y26000D01*
X188100Y25500D02*X189100D01*
X187600Y26000D02*X188100Y25500D01*
X191300Y27000D02*Y25500D01*
Y27000D02*X191800Y27500D01*
X192300D01*
X192800Y27000D01*
Y25500D01*
Y27000D02*X193300Y27500D01*
X193800D01*
X194300Y27000D01*
Y25500D01*
X190800Y27500D02*X191300Y27000D01*
G54D108*X195500Y28500D02*Y28400D01*
G54D107*Y27000D02*Y25500D01*
X196500Y29500D02*Y26000D01*
X197000Y25500D01*
X199800Y26000D02*X202800Y29000D01*
X205800Y26000D02*X206300Y25500D01*
X205800Y26800D02*Y26000D01*
Y26800D02*X206500Y27500D01*
X207100D01*
X207800Y26800D01*
Y26000D01*
X207300Y25500D02*X207800Y26000D01*
X206300Y25500D02*X207300D01*
X205800Y28200D02*X206500Y27500D01*
X205800Y29000D02*Y28200D01*
Y29000D02*X206300Y29500D01*
X207300D01*
X207800Y29000D01*
Y28200D01*
X207100Y27500D02*X207800Y28200D01*
X209500Y25500D02*X211500Y29500D01*
X209000D02*X211500D01*
X212700Y25500D02*X213200D01*
X214400Y26000D02*X214900Y25500D01*
X214400Y29000D02*Y26000D01*
Y29000D02*X214900Y29500D01*
X215900D01*
X216400Y29000D01*
Y26000D01*
X215900Y25500D02*X216400Y26000D01*
X214900Y25500D02*X215900D01*
X214400Y26500D02*X216400Y28500D01*
X217600Y26000D02*X218100Y25500D01*
X217600Y29000D02*Y26000D01*
Y29000D02*X218100Y29500D01*
X219100D01*
X219600Y29000D01*
Y26000D01*
X219100Y25500D02*X219600Y26000D01*
X218100Y25500D02*X219100D01*
X217600Y26500D02*X219600Y28500D01*
X221300Y27000D02*Y25500D01*
Y27000D02*X221800Y27500D01*
X222300D01*
X222800Y27000D01*
Y25500D01*
Y27000D02*X223300Y27500D01*
X223800D01*
X224300Y27000D01*
Y25500D01*
X220800Y27500D02*X221300Y27000D01*
X226000D02*Y25500D01*
Y27000D02*X226500Y27500D01*
X227000D01*
X227500Y27000D01*
Y25500D01*
Y27000D02*X228000Y27500D01*
X228500D01*
X229000Y27000D01*
Y25500D01*
X225500Y27500D02*X226000Y27000D01*
X367300Y106000D02*X366500Y106800D01*
X370500D01*
Y107500D02*Y106000D01*
Y109200D02*X368500Y110700D01*
X367000D02*X368500D01*
X366500Y110200D02*X367000Y110700D01*
X366500Y110200D02*Y109200D01*
X367000Y108700D02*X366500Y109200D01*
X367000Y108700D02*X368000D01*
X368500Y109200D01*
Y110700D02*Y109200D01*
X366500Y113400D02*X367000Y113900D01*
X366500Y113400D02*Y112400D01*
X367000Y111900D02*X366500Y112400D01*
X367000Y111900D02*X370000D01*
X370500Y112400D01*
X368300Y113400D02*X368800Y113900D01*
X368300Y113400D02*Y111900D01*
X370500Y113400D02*Y112400D01*
Y113400D02*X370000Y113900D01*
X368800D02*X370000D01*
X366500Y117100D02*Y115100D01*
X368500D01*
X368000Y115600D01*
Y116600D02*Y115600D01*
Y116600D02*X368500Y117100D01*
X370000D01*
X370500Y116600D02*X370000Y117100D01*
X370500Y116600D02*Y115600D01*
X370000Y115100D02*X370500Y115600D01*
X369000Y118800D02*X370500D01*
X369000D02*X368500Y119300D01*
Y119800D02*Y119300D01*
Y119800D02*X369000Y120300D01*
X370500D01*
X369000D02*X368500Y120800D01*
Y121300D02*Y120800D01*
Y121300D02*X369000Y121800D01*
X370500D01*
X368500Y118300D02*X369000Y118800D01*
G54D108*X367500Y123000D02*X367600D01*
G54D107*X369000D02*X370500D01*
X366500Y124000D02*X370000D01*
X370500Y124500D01*
X370000Y127300D02*X367000Y130300D01*
X369000Y133300D02*X366500Y135300D01*
X369000Y135800D02*Y133300D01*
X366500Y135300D02*X370500D01*
Y137500D02*X368500Y139000D01*
X367000D02*X368500D01*
X366500Y138500D02*X367000Y139000D01*
X366500Y138500D02*Y137500D01*
X367000Y137000D02*X366500Y137500D01*
X367000Y137000D02*X368000D01*
X368500Y137500D01*
Y139000D02*Y137500D01*
X370500Y140700D02*Y140200D01*
Y142400D02*X368500Y143900D01*
X367000D02*X368500D01*
X366500Y143400D02*X367000Y143900D01*
X366500Y143400D02*Y142400D01*
X367000Y141900D02*X366500Y142400D01*
X367000Y141900D02*X368000D01*
X368500Y142400D01*
Y143900D02*Y142400D01*
X367300Y145100D02*X366500Y145900D01*
X370500D01*
Y146600D02*Y145100D01*
X369000Y148300D02*X370500D01*
X369000D02*X368500Y148800D01*
Y149300D02*Y148800D01*
Y149300D02*X369000Y149800D01*
X370500D01*
X369000D02*X368500Y150300D01*
Y150800D02*Y150300D01*
Y150800D02*X369000Y151300D01*
X370500D01*
X368500Y147800D02*X369000Y148300D01*
Y153000D02*X370500D01*
X369000D02*X368500Y153500D01*
Y154000D02*Y153500D01*
Y154000D02*X369000Y154500D01*
X370500D01*
X369000D02*X368500Y155000D01*
Y155500D02*Y155000D01*
Y155500D02*X369000Y156000D01*
X370500D01*
X368500Y152500D02*X369000Y153000D01*
G54D104*X138675Y-9500D02*X141675D01*
X142425Y-8750D01*
Y-6950D02*Y-8750D01*
X141675Y-6200D02*X142425Y-6950D01*
X139425Y-6200D02*X141675D01*
X139425Y-3500D02*Y-9500D01*
X138675Y-3500D02*X141675D01*
X142425Y-4250D01*
Y-5450D01*
X141675Y-6200D02*X142425Y-5450D01*
X144225Y-7250D02*Y-8750D01*
Y-7250D02*X144975Y-6500D01*
X146475D01*
X147225Y-7250D01*
Y-8750D01*
X146475Y-9500D02*X147225Y-8750D01*
X144975Y-9500D02*X146475D01*
X144225Y-8750D02*X144975Y-9500D01*
X151275Y-6500D02*X152025Y-7250D01*
X149775Y-6500D02*X151275D01*
X149025Y-7250D02*X149775Y-6500D01*
X149025Y-7250D02*Y-8750D01*
X149775Y-9500D01*
X152025Y-6500D02*Y-8750D01*
X152775Y-9500D01*
X149775D02*X151275D01*
X152025Y-8750D01*
X155325Y-7250D02*Y-9500D01*
Y-7250D02*X156075Y-6500D01*
X157575D01*
X154575D02*X155325Y-7250D01*
X162375Y-3500D02*Y-9500D01*
X161625D02*X162375Y-8750D01*
X160125Y-9500D02*X161625D01*
X159375Y-8750D02*X160125Y-9500D01*
X159375Y-7250D02*Y-8750D01*
Y-7250D02*X160125Y-6500D01*
X161625D01*
X162375Y-7250D01*
X166875D02*Y-8750D01*
Y-7250D02*X167625Y-6500D01*
X169125D01*
X169875Y-7250D01*
Y-8750D01*
X169125Y-9500D02*X169875Y-8750D01*
X167625Y-9500D02*X169125D01*
X166875Y-8750D02*X167625Y-9500D01*
X171675Y-6500D02*Y-8750D01*
X172425Y-9500D01*
X173925D01*
X174675Y-8750D01*
Y-6500D02*Y-8750D01*
X177225Y-3500D02*Y-8750D01*
X177975Y-9500D01*
X176475Y-5750D02*X177975D01*
X179475Y-3500D02*Y-8750D01*
X180225Y-9500D01*
G54D105*X181725Y-5000D02*Y-5150D01*
G54D104*Y-7250D02*Y-9500D01*
X183975Y-7250D02*Y-9500D01*
Y-7250D02*X184725Y-6500D01*
X185475D01*
X186225Y-7250D01*
Y-9500D01*
X183225Y-6500D02*X183975Y-7250D01*
X188775Y-9500D02*X191025D01*
X188025Y-8750D02*X188775Y-9500D01*
X188025Y-7250D02*Y-8750D01*
Y-7250D02*X188775Y-6500D01*
X190275D01*
X191025Y-7250D01*
X188025Y-8000D02*X191025D01*
Y-7250D02*Y-8000D01*
G54D105*X195525Y-5000D02*Y-5150D01*
G54D104*Y-7250D02*Y-9500D01*
X197775D02*X200025D01*
X200775Y-8750D01*
X200025Y-8000D02*X200775Y-8750D01*
X197775Y-8000D02*X200025D01*
X197025Y-7250D02*X197775Y-8000D01*
X197025Y-7250D02*X197775Y-6500D01*
X200025D01*
X200775Y-7250D01*
X197025Y-8750D02*X197775Y-9500D01*
X206025Y-3500D02*Y-8750D01*
X206775Y-9500D01*
X205275Y-5750D02*X206775D01*
X208275Y-3500D02*Y-9500D01*
Y-7250D02*X209025Y-6500D01*
X210525D01*
X211275Y-7250D01*
Y-9500D01*
X213825D02*X216075D01*
X213075Y-8750D02*X213825Y-9500D01*
X213075Y-7250D02*Y-8750D01*
Y-7250D02*X213825Y-6500D01*
X215325D01*
X216075Y-7250D01*
X213075Y-8000D02*X216075D01*
Y-7250D02*Y-8000D01*
X221325Y-6500D02*X223575D01*
X220575Y-7250D02*X221325Y-6500D01*
X220575Y-7250D02*Y-8750D01*
X221325Y-9500D01*
X223575D01*
X226125D02*X228375D01*
X225375Y-8750D02*X226125Y-9500D01*
X225375Y-7250D02*Y-8750D01*
Y-7250D02*X226125Y-6500D01*
X227625D01*
X228375Y-7250D01*
X225375Y-8000D02*X228375D01*
Y-7250D02*Y-8000D01*
X230925Y-7250D02*Y-9500D01*
Y-7250D02*X231675Y-6500D01*
X232425D01*
X233175Y-7250D01*
Y-9500D01*
X230175Y-6500D02*X230925Y-7250D01*
X235725Y-3500D02*Y-8750D01*
X236475Y-9500D01*
X234975Y-5750D02*X236475D01*
X238725Y-9500D02*X240975D01*
X237975Y-8750D02*X238725Y-9500D01*
X237975Y-7250D02*Y-8750D01*
Y-7250D02*X238725Y-6500D01*
X240225D01*
X240975Y-7250D01*
X237975Y-8000D02*X240975D01*
Y-7250D02*Y-8000D01*
X243525Y-7250D02*Y-9500D01*
Y-7250D02*X244275Y-6500D01*
X245775D01*
X242775D02*X243525Y-7250D01*
X247575Y-3500D02*Y-8750D01*
X248325Y-9500D01*
G54D105*X249825Y-5000D02*Y-5150D01*
G54D104*Y-7250D02*Y-9500D01*
X252075Y-7250D02*Y-9500D01*
Y-7250D02*X252825Y-6500D01*
X253575D01*
X254325Y-7250D01*
Y-9500D01*
X251325Y-6500D02*X252075Y-7250D01*
X256875Y-9500D02*X259125D01*
X256125Y-8750D02*X256875Y-9500D01*
X256125Y-7250D02*Y-8750D01*
Y-7250D02*X256875Y-6500D01*
X258375D01*
X259125Y-7250D01*
X256125Y-8000D02*X259125D01*
Y-7250D02*Y-8000D01*
X263625Y-7250D02*Y-8750D01*
Y-7250D02*X264375Y-6500D01*
X265875D01*
X266625Y-7250D01*
Y-8750D01*
X265875Y-9500D02*X266625Y-8750D01*
X264375Y-9500D02*X265875D01*
X263625Y-8750D02*X264375Y-9500D01*
X269175Y-4250D02*Y-9500D01*
Y-4250D02*X269925Y-3500D01*
X270675D01*
X268425Y-6500D02*X269925D01*
X275625Y-3500D02*Y-8750D01*
X276375Y-9500D01*
X274875Y-5750D02*X276375D01*
X277875Y-3500D02*Y-9500D01*
Y-7250D02*X278625Y-6500D01*
X280125D01*
X280875Y-7250D01*
Y-9500D01*
G54D105*X282675Y-5000D02*Y-5150D01*
G54D104*Y-7250D02*Y-9500D01*
X284925D02*X287175D01*
X287925Y-8750D01*
X287175Y-8000D02*X287925Y-8750D01*
X284925Y-8000D02*X287175D01*
X284175Y-7250D02*X284925Y-8000D01*
X284175Y-7250D02*X284925Y-6500D01*
X287175D01*
X287925Y-7250D01*
X284175Y-8750D02*X284925Y-9500D01*
X293175Y-7250D02*Y-11750D01*
X292425Y-6500D02*X293175Y-7250D01*
X293925Y-6500D01*
X295425D01*
X296175Y-7250D01*
Y-8750D01*
X295425Y-9500D02*X296175Y-8750D01*
X293925Y-9500D02*X295425D01*
X293175Y-8750D02*X293925Y-9500D01*
X300225Y-6500D02*X300975Y-7250D01*
X298725Y-6500D02*X300225D01*
X297975Y-7250D02*X298725Y-6500D01*
X297975Y-7250D02*Y-8750D01*
X298725Y-9500D01*
X300975Y-6500D02*Y-8750D01*
X301725Y-9500D01*
X298725D02*X300225D01*
X300975Y-8750D01*
X304275Y-3500D02*Y-8750D01*
X305025Y-9500D01*
X303525Y-5750D02*X305025D01*
X306525Y-3500D02*Y-9500D01*
Y-7250D02*X307275Y-6500D01*
X308775D01*
X309525Y-7250D01*
Y-9500D01*
X200750Y278500D02*Y272500D01*
X202700Y278500D02*X203750Y277450D01*
Y273550D01*
X202700Y272500D02*X203750Y273550D01*
X200000Y272500D02*X202700D01*
X200000Y278500D02*X202700D01*
X207800Y275500D02*X208550Y274750D01*
X206300Y275500D02*X207800D01*
X205550Y274750D02*X206300Y275500D01*
X205550Y274750D02*Y273250D01*
X206300Y272500D01*
X208550Y275500D02*Y273250D01*
X209300Y272500D01*
X206300D02*X207800D01*
X208550Y273250D01*
X211850Y278500D02*Y273250D01*
X212600Y272500D01*
X211100Y276250D02*X212600D01*
X214850Y272500D02*X217100D01*
X214100Y273250D02*X214850Y272500D01*
X214100Y274750D02*Y273250D01*
Y274750D02*X214850Y275500D01*
X216350D01*
X217100Y274750D01*
X214100Y274000D02*X217100D01*
Y274750D02*Y274000D01*
X218900Y276250D02*X219650D01*
X218900Y274750D02*X219650D01*
X224150Y278500D02*X227150D01*
X225650D02*Y272500D01*
X228950Y275500D02*Y273250D01*
X229700Y272500D01*
X231200D01*
X231950Y273250D01*
Y275500D02*Y273250D01*
X234500Y272500D02*X236750D01*
X233750Y273250D02*X234500Y272500D01*
X233750Y274750D02*Y273250D01*
Y274750D02*X234500Y275500D01*
X236000D01*
X236750Y274750D01*
X233750Y274000D02*X236750D01*
Y274750D02*Y274000D01*
X241250Y273250D02*X242000Y272500D01*
X241250Y277750D02*Y273250D01*
Y277750D02*X242000Y278500D01*
X243500D01*
X244250Y277750D01*
Y273250D01*
X243500Y272500D02*X244250Y273250D01*
X242000Y272500D02*X243500D01*
X241250Y274000D02*X244250Y277000D01*
X246050Y274750D02*X249050Y278500D01*
X246050Y274750D02*X249800D01*
X249050Y278500D02*Y272500D01*
X255050Y278500D02*Y272500D01*
X257000Y278500D02*X258050Y277450D01*
Y273550D01*
X257000Y272500D02*X258050Y273550D01*
X254300Y272500D02*X257000D01*
X254300Y278500D02*X257000D01*
X260600Y272500D02*X262850D01*
X259850Y273250D02*X260600Y272500D01*
X259850Y274750D02*Y273250D01*
Y274750D02*X260600Y275500D01*
X262100D01*
X262850Y274750D01*
X259850Y274000D02*X262850D01*
Y274750D02*Y274000D01*
X265400Y275500D02*X267650D01*
X264650Y274750D02*X265400Y275500D01*
X264650Y274750D02*Y273250D01*
X265400Y272500D01*
X267650D01*
X272150Y277750D02*X272900Y278500D01*
X275150D01*
X275900Y277750D01*
Y276250D01*
X272150Y272500D02*X275900Y276250D01*
X272150Y272500D02*X275900D01*
X277700Y273250D02*X278450Y272500D01*
X277700Y277750D02*Y273250D01*
Y277750D02*X278450Y278500D01*
X279950D01*
X280700Y277750D01*
Y273250D01*
X279950Y272500D02*X280700Y273250D01*
X278450Y272500D02*X279950D01*
X277700Y274000D02*X280700Y277000D01*
X282500Y277300D02*X283700Y278500D01*
Y272500D01*
X282500D02*X284750D01*
X286550Y277750D02*X287300Y278500D01*
X289550D01*
X290300Y277750D01*
Y276250D01*
X286550Y272500D02*X290300Y276250D01*
X286550Y272500D02*X290300D01*
X294800Y273250D02*X295550Y272500D01*
X294800Y277750D02*Y273250D01*
Y277750D02*X295550Y278500D01*
X297050D01*
X297800Y277750D01*
Y273250D01*
X297050Y272500D02*X297800Y273250D01*
X295550Y272500D02*X297050D01*
X294800Y274000D02*X297800Y277000D01*
X300350Y272500D02*X302600Y275500D01*
Y277750D02*Y275500D01*
X301850Y278500D02*X302600Y277750D01*
X300350Y278500D02*X301850D01*
X299600Y277750D02*X300350Y278500D01*
X299600Y277750D02*Y276250D01*
X300350Y275500D01*
X302600D01*
X304400Y276250D02*X305150D01*
X304400Y274750D02*X305150D01*
X306950Y277750D02*X307700Y278500D01*
X309950D01*
X310700Y277750D01*
Y276250D01*
X306950Y272500D02*X310700Y276250D01*
X306950Y272500D02*X310700D01*
X312500Y273250D02*X313250Y272500D01*
X312500Y274450D02*Y273250D01*
Y274450D02*X313550Y275500D01*
X314450D01*
X315500Y274450D01*
Y273250D01*
X314750Y272500D02*X315500Y273250D01*
X313250Y272500D02*X314750D01*
X312500Y276550D02*X313550Y275500D01*
X312500Y277750D02*Y276550D01*
Y277750D02*X313250Y278500D01*
X314750D01*
X315500Y277750D01*
Y276550D01*
X314450Y275500D02*X315500Y276550D01*
X317300Y276250D02*X318050D01*
X317300Y274750D02*X318050D01*
X319850Y278500D02*X322850D01*
X319850D02*Y275500D01*
X320600Y276250D01*
X322100D01*
X322850Y275500D01*
Y273250D01*
X322100Y272500D02*X322850Y273250D01*
X320600Y272500D02*X322100D01*
X319850Y273250D02*X320600Y272500D01*
X324650Y274750D02*X327650Y278500D01*
X324650Y274750D02*X328400D01*
X327650Y278500D02*Y272500D01*
X332900Y277000D02*Y272500D01*
Y277000D02*X333950Y278500D01*
X335600D01*
X336650Y277000D01*
Y272500D01*
X332900Y275500D02*X336650D01*
X338450Y278500D02*Y272500D01*
Y278500D02*X340700Y275500D01*
X342950Y278500D01*
Y272500D01*
X350450Y278500D02*X351200Y277750D01*
X348200Y278500D02*X350450D01*
X347450Y277750D02*X348200Y278500D01*
X347450Y277750D02*Y273250D01*
X348200Y272500D01*
X350450D01*
X351200Y273250D01*
Y274750D02*Y273250D01*
X350450Y275500D02*X351200Y274750D01*
X348950Y275500D02*X350450D01*
X353000Y278500D02*Y272500D01*
Y278500D02*X355250Y275500D01*
X357500Y278500D01*
Y272500D01*
X359300Y278500D02*X362300D01*
X360800D02*Y272500D01*
X366800Y278500D02*Y273250D01*
X367550Y272500D01*
X369050D01*
X369800Y273250D01*
Y278500D02*Y273250D01*
X371600Y278500D02*X374600D01*
X373100D02*Y272500D01*
X377450D02*X379400D01*
X376400Y273550D02*X377450Y272500D01*
X376400Y277450D02*Y273550D01*
Y277450D02*X377450Y278500D01*
X379400D01*
X200000Y292000D02*Y287500D01*
Y292000D02*X201050Y293500D01*
X202700D01*
X203750Y292000D01*
Y287500D01*
X200000Y290500D02*X203750D01*
X205550D02*Y288250D01*
X206300Y287500D01*
X207800D01*
X208550Y288250D01*
Y290500D02*Y288250D01*
X211100Y293500D02*Y288250D01*
X211850Y287500D01*
X210350Y291250D02*X211850D01*
X213350Y293500D02*Y287500D01*
Y289750D02*X214100Y290500D01*
X215600D01*
X216350Y289750D01*
Y287500D01*
X218150Y289750D02*Y288250D01*
Y289750D02*X218900Y290500D01*
X220400D01*
X221150Y289750D01*
Y288250D01*
X220400Y287500D02*X221150Y288250D01*
X218900Y287500D02*X220400D01*
X218150Y288250D02*X218900Y287500D01*
X223700Y289750D02*Y287500D01*
Y289750D02*X224450Y290500D01*
X225950D01*
X222950D02*X223700Y289750D01*
X227750Y291250D02*X228500D01*
X227750Y289750D02*X228500D01*
X233000Y287500D02*X236000D01*
X236750Y288250D01*
Y290050D02*Y288250D01*
X236000Y290800D02*X236750Y290050D01*
X233750Y290800D02*X236000D01*
X233750Y293500D02*Y287500D01*
X233000Y293500D02*X236000D01*
X236750Y292750D01*
Y291550D01*
X236000Y290800D02*X236750Y291550D01*
X239300Y287500D02*X241550D01*
X238550Y288250D02*X239300Y287500D01*
X238550Y289750D02*Y288250D01*
Y289750D02*X239300Y290500D01*
X240800D01*
X241550Y289750D01*
X238550Y289000D02*X241550D01*
Y289750D02*Y289000D01*
X244100Y289750D02*Y287500D01*
Y289750D02*X244850Y290500D01*
X246350D01*
X243350D02*X244100Y289750D01*
X248900Y293500D02*Y288250D01*
X249650Y287500D01*
X248150Y291250D02*X249650D01*
X251150Y293500D02*Y287500D01*
Y289750D02*X251900Y290500D01*
X253400D01*
X254150Y289750D01*
Y287500D01*
X255950Y289750D02*Y288250D01*
Y289750D02*X256700Y290500D01*
X258200D01*
X258950Y289750D01*
Y288250D01*
X258200Y287500D02*X258950Y288250D01*
X256700Y287500D02*X258200D01*
X255950Y288250D02*X256700Y287500D01*
X266450Y293500D02*X267200Y292750D01*
X264200Y293500D02*X266450D01*
X263450Y292750D02*X264200Y293500D01*
X263450Y292750D02*Y291250D01*
X264200Y290500D01*
X266450D01*
X267200Y289750D01*
Y288250D01*
X266450Y287500D02*X267200Y288250D01*
X264200Y287500D02*X266450D01*
X263450Y288250D02*X264200Y287500D01*
X269750Y293500D02*Y288250D01*
X270500Y287500D01*
X269000Y291250D02*X270500D01*
X272000Y290500D02*Y288250D01*
X272750Y287500D01*
X274250D01*
X275000Y288250D01*
Y290500D02*Y288250D01*
X276800Y293500D02*Y288250D01*
X277550Y287500D01*
X279800Y293500D02*Y288250D01*
X280550Y287500D01*
X279050Y291250D02*X280550D01*
G54D105*X282050Y292000D02*Y291850D01*
G54D104*Y289750D02*Y287500D01*
X284300D02*X286550D01*
X283550Y288250D02*X284300Y287500D01*
X283550Y289750D02*Y288250D01*
Y289750D02*X284300Y290500D01*
X285800D01*
X286550Y289750D01*
X283550Y289000D02*X286550D01*
Y289750D02*Y289000D01*
X289100Y289750D02*Y287500D01*
Y289750D02*X289850Y290500D01*
X290600D01*
X291350Y289750D01*
Y287500D01*
X288350Y290500D02*X289100Y289750D01*
X293900Y287500D02*X296150D01*
X296900Y288250D01*
X296150Y289000D02*X296900Y288250D01*
X293900Y289000D02*X296150D01*
X293150Y289750D02*X293900Y289000D01*
X293150Y289750D02*X293900Y290500D01*
X296150D01*
X296900Y289750D01*
X293150Y288250D02*X293900Y287500D01*
X200000Y308500D02*X203000D01*
X201500D02*Y302500D01*
G54D105*X204800Y307000D02*Y306850D01*
G54D104*Y304750D02*Y302500D01*
X207050Y308500D02*Y303250D01*
X207800Y302500D01*
X206300Y306250D02*X207800D01*
X209300Y308500D02*Y303250D01*
X210050Y302500D01*
X212300D02*X214550D01*
X211550Y303250D02*X212300Y302500D01*
X211550Y304750D02*Y303250D01*
Y304750D02*X212300Y305500D01*
X213800D01*
X214550Y304750D01*
X211550Y304000D02*X214550D01*
Y304750D02*Y304000D01*
X216350Y306250D02*X217100D01*
X216350Y304750D02*X217100D01*
X222350Y308500D02*Y302500D01*
X224300Y308500D02*X225350Y307450D01*
Y303550D01*
X224300Y302500D02*X225350Y303550D01*
X221600Y302500D02*X224300D01*
X221600Y308500D02*X224300D01*
X227150Y304750D02*Y303250D01*
Y304750D02*X227900Y305500D01*
X229400D01*
X230150Y304750D01*
Y303250D01*
X229400Y302500D02*X230150Y303250D01*
X227900Y302500D02*X229400D01*
X227150Y303250D02*X227900Y302500D01*
X232700Y308500D02*Y303250D01*
X233450Y302500D01*
X231950Y306250D02*X233450D01*
X234950Y305500D02*X237950D01*
X239750Y308500D02*Y302500D01*
Y308500D02*X242750D01*
X239750Y305800D02*X242000D01*
X244550Y308500D02*Y303250D01*
X245300Y302500D01*
G54D105*X246800Y307000D02*Y306850D01*
G54D104*Y304750D02*Y302500D01*
X249050Y304750D02*Y300250D01*
X248300Y305500D02*X249050Y304750D01*
X249800Y305500D01*
X251300D01*
X252050Y304750D01*
Y303250D01*
X251300Y302500D02*X252050Y303250D01*
X249800Y302500D02*X251300D01*
X249050Y303250D02*X249800Y302500D01*
X257600D02*X259550D01*
X256550Y303550D02*X257600Y302500D01*
X256550Y307450D02*Y303550D01*
Y307450D02*X257600Y308500D01*
X259550D01*
X261350Y304750D02*Y303250D01*
Y304750D02*X262100Y305500D01*
X263600D01*
X264350Y304750D01*
Y303250D01*
X263600Y302500D02*X264350Y303250D01*
X262100Y302500D02*X263600D01*
X261350Y303250D02*X262100Y302500D01*
X266900Y304750D02*Y302500D01*
Y304750D02*X267650Y305500D01*
X268400D01*
X269150Y304750D01*
Y302500D01*
X266150Y305500D02*X266900Y304750D01*
X271700Y308500D02*Y303250D01*
X272450Y302500D01*
X270950Y306250D02*X272450D01*
X274700Y304750D02*Y302500D01*
Y304750D02*X275450Y305500D01*
X276950D01*
X273950D02*X274700Y304750D01*
X278750D02*Y303250D01*
Y304750D02*X279500Y305500D01*
X281000D01*
X281750Y304750D01*
Y303250D01*
X281000Y302500D02*X281750Y303250D01*
X279500Y302500D02*X281000D01*
X278750Y303250D02*X279500Y302500D01*
X283550Y308500D02*Y303250D01*
X284300Y302500D01*
X288500Y305500D02*X291500D01*
X296000Y308500D02*Y302500D01*
Y308500D02*X299000D01*
X296000Y305800D02*X298250D01*
X303050Y305500D02*X303800Y304750D01*
X301550Y305500D02*X303050D01*
X300800Y304750D02*X301550Y305500D01*
X300800Y304750D02*Y303250D01*
X301550Y302500D01*
X303800Y305500D02*Y303250D01*
X304550Y302500D01*
X301550D02*X303050D01*
X303800Y303250D01*
X306350Y308500D02*Y302500D01*
Y303250D02*X307100Y302500D01*
X308600D01*
X309350Y303250D01*
Y304750D02*Y303250D01*
X308600Y305500D02*X309350Y304750D01*
X307100Y305500D02*X308600D01*
X306350Y304750D02*X307100Y305500D01*
X311900Y304750D02*Y302500D01*
Y304750D02*X312650Y305500D01*
X314150D01*
X311150D02*X311900Y304750D01*
G54D105*X315950Y307000D02*Y306850D01*
G54D104*Y304750D02*Y302500D01*
X318200Y305500D02*X320450D01*
X317450Y304750D02*X318200Y305500D01*
X317450Y304750D02*Y303250D01*
X318200Y302500D01*
X320450D01*
X324500Y305500D02*X325250Y304750D01*
X323000Y305500D02*X324500D01*
X322250Y304750D02*X323000Y305500D01*
X322250Y304750D02*Y303250D01*
X323000Y302500D01*
X325250Y305500D02*Y303250D01*
X326000Y302500D01*
X323000D02*X324500D01*
X325250Y303250D01*
X328550Y308500D02*Y303250D01*
X329300Y302500D01*
X327800Y306250D02*X329300D01*
G54D105*X330800Y307000D02*Y306850D01*
G54D104*Y304750D02*Y302500D01*
X332300Y304750D02*Y303250D01*
Y304750D02*X333050Y305500D01*
X334550D01*
X335300Y304750D01*
Y303250D01*
X334550Y302500D02*X335300Y303250D01*
X333050Y302500D02*X334550D01*
X332300Y303250D02*X333050Y302500D01*
X337850Y304750D02*Y302500D01*
Y304750D02*X338600Y305500D01*
X339350D01*
X340100Y304750D01*
Y302500D01*
X337100Y305500D02*X337850Y304750D01*
X345350Y308500D02*Y302500D01*
X347300Y308500D02*X348350Y307450D01*
Y303550D01*
X347300Y302500D02*X348350Y303550D01*
X344600Y302500D02*X347300D01*
X344600Y308500D02*X347300D01*
X350900Y304750D02*Y302500D01*
Y304750D02*X351650Y305500D01*
X353150D01*
X350150D02*X350900Y304750D01*
X357200Y305500D02*X357950Y304750D01*
X355700Y305500D02*X357200D01*
X354950Y304750D02*X355700Y305500D01*
X354950Y304750D02*Y303250D01*
X355700Y302500D01*
X357950Y305500D02*Y303250D01*
X358700Y302500D01*
X355700D02*X357200D01*
X357950Y303250D01*
X360500Y305500D02*Y303250D01*
X361250Y302500D01*
X362000D01*
X362750Y303250D01*
Y305500D02*Y303250D01*
X363500Y302500D01*
X364250D01*
X365000Y303250D01*
Y305500D02*Y303250D01*
G54D105*X366800Y307000D02*Y306850D01*
G54D104*Y304750D02*Y302500D01*
X369050Y304750D02*Y302500D01*
Y304750D02*X369800Y305500D01*
X370550D01*
X371300Y304750D01*
Y302500D01*
X368300Y305500D02*X369050Y304750D01*
X375350Y305500D02*X376100Y304750D01*
X373850Y305500D02*X375350D01*
X373100Y304750D02*X373850Y305500D01*
X373100Y304750D02*Y303250D01*
X373850Y302500D01*
X375350D01*
X376100Y303250D01*
X373100Y301000D02*X373850Y300250D01*
X375350D01*
X376100Y301000D01*
Y305500D02*Y301000D01*
M02*
