G04 start of page 4 for group 2 idx 2 *
G04 Title: Dot-Flip Control, outline *
G04 Creator: pcb 20110918 *
G04 CreationDate: Tue 04 Dec 2012 09:28:54 AM GMT UTC *
G04 For: bertho *
G04 Format: Gerber/RS-274X *
G04 PCB-Dimensions: 450000 250000 *
G04 PCB-Coordinate-Origin: lower left *
%MOIN*%
%FSLAX25Y25*%
%LNOUTLINE*%
%ADD57C,0.0080*%
G54D57*X362500Y230000D02*X377500D01*
X372500D02*X375000Y225000D01*
X372500Y230000D02*X370000Y225000D01*
X20000Y23500D02*X362500D01*
Y33500D02*Y18500D01*
Y33500D02*X377500D01*
X372500D02*Y230000D01*
X358500Y33500D02*X24000D01*
X362500Y226000D02*Y37500D01*
X20000Y33500D02*Y18500D01*
Y23500D02*X25000Y26000D01*
X20000Y23500D02*X25000Y21000D01*
X372500Y33500D02*X370000Y38500D01*
X372500Y33500D02*X375000Y38500D01*
X362500Y23500D02*X357500Y21000D01*
X362500Y23500D02*X357500Y26000D01*
X24000Y230000D02*X358500D01*
X20000Y37500D02*Y226000D01*
X24000Y230000D02*G75*G03X20000Y226000I0J-4000D01*G01*
Y37500D02*G75*G03X24000Y33500I4000J0D01*G01*
X362500Y37500D02*G75*G02X358500Y33500I-4000J0D01*G01*
Y230000D02*G75*G02X362500Y226000I0J-4000D01*G01*
X177000Y29000D02*X177500Y29500D01*
X178500D01*
X179000Y29000D01*
X178500Y25500D02*X179000Y26000D01*
X177500Y25500D02*X178500D01*
X177000Y26000D02*X177500Y25500D01*
Y27700D02*X178500D01*
X179000Y29000D02*Y28200D01*
Y27200D02*Y26000D01*
Y27200D02*X178500Y27700D01*
X179000Y28200D02*X178500Y27700D01*
X180200Y27000D02*X182200Y29500D01*
X180200Y27000D02*X182700D01*
X182200Y29500D02*Y25500D01*
X183900Y29000D02*X184400Y29500D01*
X185900D01*
X186400Y29000D01*
Y28000D01*
X183900Y25500D02*X186400Y28000D01*
X183900Y25500D02*X186400D01*
X187600Y29500D02*X189600D01*
X187600D02*Y27500D01*
X188100Y28000D01*
X189100D01*
X189600Y27500D01*
Y26000D01*
X189100Y25500D02*X189600Y26000D01*
X188100Y25500D02*X189100D01*
X187600Y26000D02*X188100Y25500D01*
X191300Y27000D02*Y25500D01*
Y27000D02*X191800Y27500D01*
X192300D01*
X192800Y27000D01*
Y25500D01*
Y27000D02*X193300Y27500D01*
X193800D01*
X194300Y27000D01*
Y25500D01*
X190800Y27500D02*X191300Y27000D01*
X195500Y28500D02*Y28400D01*
Y27000D02*Y25500D01*
X196500Y29500D02*Y26000D01*
X197000Y25500D01*
X199800Y26000D02*X202800Y29000D01*
X205800Y26000D02*X206300Y25500D01*
X205800Y26800D02*Y26000D01*
Y26800D02*X206500Y27500D01*
X207100D01*
X207800Y26800D01*
Y26000D01*
X207300Y25500D02*X207800Y26000D01*
X206300Y25500D02*X207300D01*
X205800Y28200D02*X206500Y27500D01*
X205800Y29000D02*Y28200D01*
Y29000D02*X206300Y29500D01*
X207300D01*
X207800Y29000D01*
Y28200D01*
X207100Y27500D02*X207800Y28200D01*
X209500Y25500D02*X211500Y29500D01*
X209000D02*X211500D01*
X212700Y25500D02*X213200D01*
X214400Y26000D02*X214900Y25500D01*
X214400Y29000D02*Y26000D01*
Y29000D02*X214900Y29500D01*
X215900D01*
X216400Y29000D01*
Y26000D01*
X215900Y25500D02*X216400Y26000D01*
X214900Y25500D02*X215900D01*
X214400Y26500D02*X216400Y28500D01*
X217600Y26000D02*X218100Y25500D01*
X217600Y29000D02*Y26000D01*
Y29000D02*X218100Y29500D01*
X219100D01*
X219600Y29000D01*
Y26000D01*
X219100Y25500D02*X219600Y26000D01*
X218100Y25500D02*X219100D01*
X217600Y26500D02*X219600Y28500D01*
X221300Y27000D02*Y25500D01*
Y27000D02*X221800Y27500D01*
X222300D01*
X222800Y27000D01*
Y25500D01*
Y27000D02*X223300Y27500D01*
X223800D01*
X224300Y27000D01*
Y25500D01*
X220800Y27500D02*X221300Y27000D01*
X226000D02*Y25500D01*
Y27000D02*X226500Y27500D01*
X227000D01*
X227500Y27000D01*
Y25500D01*
Y27000D02*X228000Y27500D01*
X228500D01*
X229000Y27000D01*
Y25500D01*
X225500Y27500D02*X226000Y27000D01*
X367300Y106000D02*X366500Y106800D01*
X370500D01*
Y107500D02*Y106000D01*
Y109200D02*X368500Y110700D01*
X367000D02*X368500D01*
X366500Y110200D02*X367000Y110700D01*
X366500Y110200D02*Y109200D01*
X367000Y108700D02*X366500Y109200D01*
X367000Y108700D02*X368000D01*
X368500Y109200D01*
Y110700D02*Y109200D01*
X366500Y113400D02*X367000Y113900D01*
X366500Y113400D02*Y112400D01*
X367000Y111900D02*X366500Y112400D01*
X367000Y111900D02*X370000D01*
X370500Y112400D01*
X368300Y113400D02*X368800Y113900D01*
X368300Y113400D02*Y111900D01*
X370500Y113400D02*Y112400D01*
Y113400D02*X370000Y113900D01*
X368800D02*X370000D01*
X366500Y117100D02*Y115100D01*
X368500D01*
X368000Y115600D01*
Y116600D02*Y115600D01*
Y116600D02*X368500Y117100D01*
X370000D01*
X370500Y116600D02*X370000Y117100D01*
X370500Y116600D02*Y115600D01*
X370000Y115100D02*X370500Y115600D01*
X369000Y118800D02*X370500D01*
X369000D02*X368500Y119300D01*
Y119800D02*Y119300D01*
Y119800D02*X369000Y120300D01*
X370500D01*
X369000D02*X368500Y120800D01*
Y121300D02*Y120800D01*
Y121300D02*X369000Y121800D01*
X370500D01*
X368500Y118300D02*X369000Y118800D01*
X367500Y123000D02*X367600D01*
X369000D02*X370500D01*
X366500Y124000D02*X370000D01*
X370500Y124500D01*
X370000Y127300D02*X367000Y130300D01*
X369000Y133300D02*X366500Y135300D01*
X369000Y135800D02*Y133300D01*
X366500Y135300D02*X370500D01*
Y137500D02*X368500Y139000D01*
X367000D02*X368500D01*
X366500Y138500D02*X367000Y139000D01*
X366500Y138500D02*Y137500D01*
X367000Y137000D02*X366500Y137500D01*
X367000Y137000D02*X368000D01*
X368500Y137500D01*
Y139000D02*Y137500D01*
X370500Y140700D02*Y140200D01*
Y142400D02*X368500Y143900D01*
X367000D02*X368500D01*
X366500Y143400D02*X367000Y143900D01*
X366500Y143400D02*Y142400D01*
X367000Y141900D02*X366500Y142400D01*
X367000Y141900D02*X368000D01*
X368500Y142400D01*
Y143900D02*Y142400D01*
X367300Y145100D02*X366500Y145900D01*
X370500D01*
Y146600D02*Y145100D01*
X369000Y148300D02*X370500D01*
X369000D02*X368500Y148800D01*
Y149300D02*Y148800D01*
Y149300D02*X369000Y149800D01*
X370500D01*
X369000D02*X368500Y150300D01*
Y150800D02*Y150300D01*
Y150800D02*X369000Y151300D01*
X370500D01*
X368500Y147800D02*X369000Y148300D01*
Y153000D02*X370500D01*
X369000D02*X368500Y153500D01*
Y154000D02*Y153500D01*
Y154000D02*X369000Y154500D01*
X370500D01*
X369000D02*X368500Y155000D01*
Y155500D02*Y155000D01*
Y155500D02*X369000Y156000D01*
X370500D01*
X368500Y152500D02*X369000Y153000D01*
M02*
