G04 start of page 2 for group 0 idx 0 *
G04 Title: Dot-Flip Control, component *
G04 Creator: pcb 20110918 *
G04 CreationDate: Tue 04 Dec 2012 09:28:54 AM GMT UTC *
G04 For: bertho *
G04 Format: Gerber/RS-274X *
G04 PCB-Dimensions: 450000 250000 *
G04 PCB-Coordinate-Origin: lower left *
%MOIN*%
%FSLAX25Y25*%
%LNTOP*%
%ADD41C,0.0433*%
%ADD40C,0.1102*%
%ADD39C,0.1300*%
%ADD38C,0.0197*%
%ADD37C,0.0354*%
%ADD36C,0.0157*%
%ADD35C,0.0317*%
%ADD34R,0.0157X0.0157*%
%ADD33R,0.0984X0.0984*%
%ADD32R,0.0197X0.0197*%
%ADD31R,0.1516X0.1516*%
%ADD30R,0.0200X0.0200*%
%ADD29R,0.0669X0.0669*%
%ADD28R,0.0633X0.0633*%
%ADD27R,0.0788X0.0788*%
%ADD26C,0.0160*%
%ADD25R,0.0295X0.0295*%
%ADD24R,0.0340X0.0340*%
%ADD23C,0.0933*%
%ADD22C,0.2200*%
%ADD21C,0.2600*%
%ADD20C,0.0674*%
%ADD19C,0.0130*%
%ADD18C,0.0200*%
%ADD17C,0.0400*%
%ADD16C,0.0450*%
%ADD15C,0.0120*%
%ADD14C,0.0250*%
%ADD13C,0.0600*%
%ADD12C,0.0080*%
%ADD11C,0.0001*%
G54D11*G36*
X77296Y192500D02*X85538D01*
X85542Y183068D01*
X85572Y182946D01*
X85620Y182830D01*
X85686Y182722D01*
X85768Y182627D01*
X85863Y182545D01*
X85971Y182479D01*
X86087Y182431D01*
X86209Y182401D01*
X86335Y182394D01*
X92791Y182401D01*
X92913Y182431D01*
X93029Y182479D01*
X93137Y182545D01*
X93232Y182627D01*
X93314Y182722D01*
X93380Y182830D01*
X93428Y182946D01*
X93458Y183068D01*
X93465Y183194D01*
X93460Y192500D01*
X97500D01*
Y178000D01*
X89500Y170000D01*
Y158500D01*
X77296Y146296D01*
Y159039D01*
X84524Y159042D01*
X84646Y159072D01*
X84762Y159120D01*
X84870Y159186D01*
X84965Y159268D01*
X85047Y159363D01*
X85113Y159471D01*
X85161Y159587D01*
X85191Y159709D01*
X85198Y159835D01*
X85191Y166291D01*
X85161Y166413D01*
X85113Y166529D01*
X85047Y166637D01*
X84965Y166732D01*
X84870Y166814D01*
X84762Y166880D01*
X84646Y166928D01*
X84524Y166958D01*
X84398Y166965D01*
X77296Y166961D01*
Y192500D01*
G37*
G36*
X47223D02*X77296D01*
Y166961D01*
X70068Y166958D01*
X69946Y166928D01*
X69830Y166880D01*
X69722Y166814D01*
X69627Y166732D01*
X69545Y166637D01*
X69479Y166529D01*
X69431Y166413D01*
X69401Y166291D01*
X69394Y166165D01*
X69401Y159709D01*
X69431Y159587D01*
X69479Y159471D01*
X69545Y159363D01*
X69627Y159268D01*
X69722Y159186D01*
X69830Y159120D01*
X69946Y159072D01*
X70068Y159042D01*
X70194Y159035D01*
X77296Y159039D01*
Y146296D01*
X63500Y132500D01*
X47223D01*
Y159365D01*
X47564Y159920D01*
X47905Y160744D01*
X48113Y161611D01*
X48166Y162500D01*
X48113Y163389D01*
X47905Y164256D01*
X47564Y165080D01*
X47223Y165635D01*
Y179374D01*
X47475Y179777D01*
X47702Y180241D01*
X47886Y180723D01*
X48025Y181220D01*
X48119Y181728D01*
X48165Y182242D01*
Y182758D01*
X48119Y183272D01*
X48025Y183780D01*
X47886Y184277D01*
X47702Y184759D01*
X47475Y185223D01*
X47223Y185637D01*
Y192500D01*
G37*
G36*
Y132500D02*X44500D01*
Y144000D01*
X42502D01*
Y156817D01*
X43389Y156887D01*
X44256Y157095D01*
X45080Y157436D01*
X45840Y157902D01*
X46518Y158482D01*
X47098Y159160D01*
X47223Y159365D01*
Y132500D01*
G37*
G36*
X42502Y192500D02*X47223D01*
Y185637D01*
X47207Y185664D01*
X47158Y185726D01*
X47099Y185780D01*
X47033Y185824D01*
X46961Y185857D01*
X46884Y185879D01*
X46806Y185888D01*
X46726Y185884D01*
X46648Y185869D01*
X46574Y185841D01*
X46505Y185802D01*
X46442Y185753D01*
X46388Y185694D01*
X46345Y185628D01*
X46311Y185556D01*
X46290Y185479D01*
X46281Y185400D01*
X46284Y185321D01*
X46300Y185243D01*
X46328Y185168D01*
X46368Y185100D01*
X46593Y184740D01*
X46779Y184358D01*
X46931Y183962D01*
X47045Y183553D01*
X47122Y183135D01*
X47161Y182712D01*
Y182288D01*
X47122Y181865D01*
X47045Y181447D01*
X46931Y181038D01*
X46779Y180642D01*
X46593Y180260D01*
X46372Y179897D01*
X46332Y179830D01*
X46305Y179756D01*
X46289Y179679D01*
X46286Y179600D01*
X46295Y179522D01*
X46316Y179446D01*
X46349Y179375D01*
X46392Y179309D01*
X46446Y179251D01*
X46507Y179202D01*
X46576Y179163D01*
X46650Y179136D01*
X46727Y179120D01*
X46805Y179117D01*
X46884Y179126D01*
X46959Y179147D01*
X47031Y179180D01*
X47096Y179224D01*
X47154Y179277D01*
X47202Y179339D01*
X47223Y179374D01*
Y165635D01*
X47098Y165840D01*
X46518Y166518D01*
X45840Y167098D01*
X45080Y167564D01*
X44256Y167905D01*
X43389Y168113D01*
X42502Y168183D01*
Y176835D01*
X42758D01*
X43272Y176881D01*
X43780Y176975D01*
X44277Y177114D01*
X44759Y177298D01*
X45223Y177525D01*
X45664Y177793D01*
X45726Y177842D01*
X45780Y177901D01*
X45824Y177967D01*
X45857Y178039D01*
X45879Y178116D01*
X45888Y178194D01*
X45884Y178274D01*
X45869Y178352D01*
X45841Y178426D01*
X45802Y178495D01*
X45753Y178558D01*
X45694Y178612D01*
X45628Y178655D01*
X45556Y178689D01*
X45479Y178710D01*
X45400Y178719D01*
X45321Y178716D01*
X45243Y178700D01*
X45168Y178672D01*
X45100Y178632D01*
X44740Y178407D01*
X44358Y178221D01*
X43962Y178069D01*
X43553Y177955D01*
X43135Y177878D01*
X42712Y177839D01*
X42502D01*
Y187161D01*
X42712D01*
X43135Y187122D01*
X43553Y187045D01*
X43962Y186931D01*
X44358Y186779D01*
X44740Y186593D01*
X45103Y186372D01*
X45170Y186332D01*
X45244Y186305D01*
X45321Y186289D01*
X45400Y186286D01*
X45478Y186295D01*
X45554Y186316D01*
X45625Y186349D01*
X45691Y186392D01*
X45749Y186446D01*
X45798Y186507D01*
X45837Y186576D01*
X45864Y186650D01*
X45880Y186727D01*
X45883Y186805D01*
X45874Y186884D01*
X45853Y186959D01*
X45820Y187031D01*
X45776Y187096D01*
X45723Y187154D01*
X45661Y187202D01*
X45223Y187475D01*
X44759Y187702D01*
X44277Y187886D01*
X43780Y188025D01*
X43272Y188119D01*
X42758Y188165D01*
X42502D01*
Y192500D01*
G37*
G36*
X37777Y159365D02*X37902Y159160D01*
X38482Y158482D01*
X39160Y157902D01*
X39920Y157436D01*
X40744Y157095D01*
X41611Y156887D01*
X42500Y156817D01*
X42502Y156817D01*
Y144000D01*
X37777D01*
Y159365D01*
G37*
G36*
Y192500D02*X42502D01*
Y188165D01*
X42242D01*
X41728Y188119D01*
X41220Y188025D01*
X40723Y187886D01*
X40241Y187702D01*
X39777Y187475D01*
X39336Y187207D01*
X39274Y187158D01*
X39220Y187099D01*
X39176Y187033D01*
X39143Y186961D01*
X39121Y186884D01*
X39112Y186806D01*
X39116Y186726D01*
X39131Y186648D01*
X39159Y186574D01*
X39198Y186505D01*
X39247Y186442D01*
X39306Y186388D01*
X39372Y186345D01*
X39444Y186311D01*
X39521Y186290D01*
X39600Y186281D01*
X39679Y186284D01*
X39757Y186300D01*
X39832Y186328D01*
X39900Y186368D01*
X40260Y186593D01*
X40642Y186779D01*
X41038Y186931D01*
X41447Y187045D01*
X41865Y187122D01*
X42288Y187161D01*
X42502D01*
Y177839D01*
X42288D01*
X41865Y177878D01*
X41447Y177955D01*
X41038Y178069D01*
X40642Y178221D01*
X40260Y178407D01*
X39897Y178628D01*
X39830Y178668D01*
X39756Y178695D01*
X39679Y178711D01*
X39600Y178714D01*
X39522Y178705D01*
X39446Y178684D01*
X39375Y178651D01*
X39309Y178608D01*
X39251Y178554D01*
X39202Y178493D01*
X39163Y178424D01*
X39136Y178350D01*
X39120Y178273D01*
X39117Y178195D01*
X39126Y178116D01*
X39147Y178041D01*
X39180Y177969D01*
X39224Y177904D01*
X39277Y177846D01*
X39339Y177798D01*
X39777Y177525D01*
X40241Y177298D01*
X40723Y177114D01*
X41220Y176975D01*
X41728Y176881D01*
X42242Y176835D01*
X42502D01*
Y168183D01*
X42500Y168183D01*
X41611Y168113D01*
X40744Y167905D01*
X39920Y167564D01*
X39160Y167098D01*
X38482Y166518D01*
X37902Y165840D01*
X37777Y165635D01*
Y179363D01*
X37793Y179336D01*
X37842Y179274D01*
X37901Y179220D01*
X37967Y179176D01*
X38039Y179143D01*
X38116Y179121D01*
X38194Y179112D01*
X38274Y179116D01*
X38352Y179131D01*
X38426Y179159D01*
X38495Y179198D01*
X38558Y179247D01*
X38612Y179306D01*
X38655Y179372D01*
X38689Y179444D01*
X38710Y179521D01*
X38719Y179600D01*
X38716Y179679D01*
X38700Y179757D01*
X38672Y179832D01*
X38632Y179900D01*
X38407Y180260D01*
X38221Y180642D01*
X38069Y181038D01*
X37955Y181447D01*
X37878Y181865D01*
X37839Y182288D01*
Y182712D01*
X37878Y183135D01*
X37955Y183553D01*
X38069Y183962D01*
X38221Y184358D01*
X38407Y184740D01*
X38628Y185103D01*
X38668Y185170D01*
X38695Y185244D01*
X38711Y185321D01*
X38714Y185400D01*
X38705Y185478D01*
X38684Y185554D01*
X38651Y185625D01*
X38608Y185691D01*
X38554Y185749D01*
X38493Y185798D01*
X38424Y185837D01*
X38350Y185864D01*
X38273Y185880D01*
X38195Y185883D01*
X38116Y185874D01*
X38041Y185853D01*
X37969Y185820D01*
X37904Y185776D01*
X37846Y185723D01*
X37798Y185661D01*
X37777Y185627D01*
Y192500D01*
G37*
G36*
X21400D02*X37777D01*
Y185627D01*
X37525Y185223D01*
X37298Y184759D01*
X37114Y184277D01*
X36975Y183780D01*
X36881Y183272D01*
X36835Y182758D01*
Y182242D01*
X36881Y181728D01*
X36975Y181220D01*
X37114Y180723D01*
X37298Y180241D01*
X37525Y179777D01*
X37777Y179363D01*
Y165635D01*
X37436Y165080D01*
X37095Y164256D01*
X36887Y163389D01*
X36817Y162500D01*
X36887Y161611D01*
X37095Y160744D01*
X37436Y159920D01*
X37777Y159365D01*
Y144000D01*
X21400D01*
Y192500D01*
G37*
G36*
X88626Y144500D02*X94000D01*
X97000Y141500D01*
Y132500D01*
X88626Y124126D01*
Y132658D01*
X93704Y132663D01*
X93857Y132700D01*
X94003Y132760D01*
X94137Y132842D01*
X94257Y132944D01*
X94359Y133064D01*
X94441Y133198D01*
X94501Y133344D01*
X94538Y133497D01*
X94547Y133654D01*
X94538Y140503D01*
X94501Y140656D01*
X94441Y140802D01*
X94359Y140936D01*
X94257Y141056D01*
X94137Y141158D01*
X94003Y141240D01*
X93857Y141300D01*
X93704Y141337D01*
X93547Y141346D01*
X88626Y141342D01*
Y144500D01*
G37*
G36*
X65815Y132315D02*X78000Y144500D01*
X88626D01*
Y141342D01*
X83548Y141337D01*
X83395Y141300D01*
X83249Y141240D01*
X83115Y141158D01*
X82995Y141056D01*
X82893Y140936D01*
X82811Y140802D01*
X82751Y140656D01*
X82714Y140503D01*
X82704Y140346D01*
X82714Y133497D01*
X82751Y133344D01*
X82811Y133198D01*
X82893Y133064D01*
X82995Y132944D01*
X83115Y132842D01*
X83249Y132760D01*
X83395Y132700D01*
X83548Y132663D01*
X83704Y132654D01*
X88626Y132658D01*
Y124126D01*
X85500Y121000D01*
Y92000D01*
X80000Y86500D01*
X65815D01*
Y92580D01*
X73550Y92585D01*
X73703Y92622D01*
X73849Y92682D01*
X73983Y92764D01*
X74103Y92866D01*
X74205Y92986D01*
X74287Y93120D01*
X74347Y93266D01*
X74384Y93419D01*
X74394Y93576D01*
X74384Y115581D01*
X74347Y115734D01*
X74287Y115880D01*
X74205Y116014D01*
X74103Y116134D01*
X73983Y116236D01*
X73849Y116318D01*
X73703Y116378D01*
X73550Y116415D01*
X73394Y116425D01*
X65815Y116420D01*
Y132315D01*
G37*
G36*
X49932Y102500D02*X49500D01*
Y126500D01*
X54000Y131000D01*
X64500D01*
X65815Y132315D01*
Y116420D01*
X58080Y116415D01*
X57927Y116378D01*
X57781Y116318D01*
X57647Y116236D01*
X57527Y116134D01*
X57425Y116014D01*
X57343Y115880D01*
X57283Y115734D01*
X57246Y115581D01*
X57236Y115425D01*
X57246Y93419D01*
X57283Y93266D01*
X57343Y93120D01*
X57425Y92986D01*
X57527Y92866D01*
X57647Y92764D01*
X57781Y92682D01*
X57927Y92622D01*
X58080Y92585D01*
X58236Y92576D01*
X65815Y92580D01*
Y86500D01*
X54500D01*
Y94195D01*
X54633Y94413D01*
X54777Y94760D01*
X54865Y95125D01*
X54887Y95500D01*
X54865Y95875D01*
X54777Y96240D01*
X54633Y96587D01*
X54500Y96805D01*
Y97390D01*
X54544Y97442D01*
X54626Y97576D01*
X54686Y97722D01*
X54723Y97875D01*
X54732Y98032D01*
X54723Y102125D01*
X54686Y102278D01*
X54626Y102424D01*
X54544Y102558D01*
X54442Y102678D01*
X54322Y102780D01*
X54188Y102862D01*
X54042Y102922D01*
X53889Y102959D01*
X53732Y102968D01*
X50623Y102959D01*
X50470Y102922D01*
X50324Y102862D01*
X50190Y102780D01*
X50070Y102678D01*
X49968Y102558D01*
X49932Y102500D01*
G37*
G36*
X170493Y113507D02*X177500Y106500D01*
Y103687D01*
X177399Y103601D01*
X176952Y103077D01*
X176593Y102491D01*
X176330Y101855D01*
X176169Y101186D01*
X176115Y100500D01*
X176169Y99814D01*
X176330Y99145D01*
X176593Y98509D01*
X176952Y97923D01*
X177399Y97399D01*
X177500Y97313D01*
Y93687D01*
X177399Y93601D01*
X176952Y93077D01*
X176593Y92491D01*
X176330Y91855D01*
X176169Y91186D01*
X176115Y90500D01*
X176169Y89814D01*
X176330Y89145D01*
X176593Y88509D01*
X176952Y87923D01*
X177399Y87399D01*
X177500Y87313D01*
Y84500D01*
X175500Y82500D01*
X170493D01*
Y86116D01*
X170500Y86115D01*
X171186Y86169D01*
X171855Y86330D01*
X172491Y86593D01*
X173077Y86952D01*
X173601Y87399D01*
X174048Y87923D01*
X174407Y88509D01*
X174670Y89145D01*
X174831Y89814D01*
X174872Y90500D01*
X174831Y91186D01*
X174670Y91855D01*
X174407Y92491D01*
X174048Y93077D01*
X173601Y93601D01*
X173077Y94048D01*
X172491Y94407D01*
X171855Y94670D01*
X171186Y94831D01*
X170500Y94885D01*
X170493Y94884D01*
Y96116D01*
X170500Y96115D01*
X171186Y96169D01*
X171855Y96330D01*
X172491Y96593D01*
X173077Y96952D01*
X173601Y97399D01*
X174048Y97923D01*
X174407Y98509D01*
X174670Y99145D01*
X174831Y99814D01*
X174872Y100500D01*
X174831Y101186D01*
X174670Y101855D01*
X174407Y102491D01*
X174048Y103077D01*
X173601Y103601D01*
X173077Y104048D01*
X172491Y104407D01*
X171855Y104670D01*
X171186Y104831D01*
X170500Y104885D01*
X170493Y104884D01*
Y113507D01*
G37*
G36*
X167909Y86964D02*X167923Y86952D01*
X168509Y86593D01*
X169145Y86330D01*
X169814Y86169D01*
X170493Y86116D01*
Y82500D01*
X167909D01*
Y86964D01*
G37*
G36*
Y96964D02*X167923Y96952D01*
X168509Y96593D01*
X169145Y96330D01*
X169814Y96169D01*
X170493Y96116D01*
Y94884D01*
X169814Y94831D01*
X169145Y94670D01*
X168509Y94407D01*
X167923Y94048D01*
X167909Y94036D01*
Y96964D01*
G37*
G36*
Y116091D02*X170493Y113507D01*
Y104884D01*
X169814Y104831D01*
X169145Y104670D01*
X168509Y104407D01*
X167923Y104048D01*
X167909Y104036D01*
Y110569D01*
X167937Y110573D01*
X168012Y110598D01*
X168082Y110634D01*
X168145Y110681D01*
X168200Y110737D01*
X168246Y110801D01*
X168280Y110872D01*
X168379Y111144D01*
X168448Y111425D01*
X168490Y111711D01*
X168503Y112000D01*
X168490Y112289D01*
X168448Y112575D01*
X168379Y112856D01*
X168283Y113129D01*
X168248Y113200D01*
X168202Y113264D01*
X168147Y113321D01*
X168083Y113368D01*
X168013Y113404D01*
X167938Y113429D01*
X167909Y113434D01*
Y116091D01*
G37*
G36*
X165501Y118499D02*X167909Y116091D01*
Y113434D01*
X167860Y113442D01*
X167781Y113442D01*
X167703Y113431D01*
X167627Y113407D01*
X167556Y113371D01*
X167492Y113325D01*
X167436Y113270D01*
X167389Y113206D01*
X167353Y113136D01*
X167328Y113061D01*
X167315Y112983D01*
X167314Y112904D01*
X167326Y112826D01*
X167351Y112751D01*
X167417Y112570D01*
X167463Y112383D01*
X167491Y112192D01*
X167500Y112000D01*
X167491Y111808D01*
X167463Y111617D01*
X167417Y111430D01*
X167353Y111248D01*
X167328Y111174D01*
X167316Y111096D01*
X167317Y111017D01*
X167330Y110940D01*
X167355Y110865D01*
X167391Y110795D01*
X167438Y110732D01*
X167494Y110676D01*
X167558Y110631D01*
X167628Y110595D01*
X167703Y110572D01*
X167781Y110560D01*
X167860Y110560D01*
X167909Y110569D01*
Y104036D01*
X167399Y103601D01*
X166952Y103077D01*
X166593Y102491D01*
X166330Y101855D01*
X166169Y101186D01*
X166115Y100500D01*
X166169Y99814D01*
X166330Y99145D01*
X166593Y98509D01*
X166952Y97923D01*
X167399Y97399D01*
X167909Y96964D01*
Y94036D01*
X167399Y93601D01*
X166952Y93077D01*
X166593Y92491D01*
X166330Y91855D01*
X166169Y91186D01*
X166115Y90500D01*
X166169Y89814D01*
X166330Y89145D01*
X166593Y88509D01*
X166952Y87923D01*
X167399Y87399D01*
X167909Y86964D01*
Y82500D01*
X165501D01*
Y108997D01*
X165789Y109010D01*
X166075Y109052D01*
X166356Y109121D01*
X166629Y109217D01*
X166700Y109252D01*
X166764Y109298D01*
X166821Y109353D01*
X166868Y109417D01*
X166904Y109487D01*
X166929Y109562D01*
X166942Y109640D01*
X166942Y109719D01*
X166931Y109797D01*
X166907Y109873D01*
X166871Y109944D01*
X166825Y110008D01*
X166770Y110064D01*
X166706Y110111D01*
X166636Y110147D01*
X166561Y110172D01*
X166483Y110185D01*
X166404Y110186D01*
X166326Y110174D01*
X166251Y110149D01*
X166070Y110083D01*
X165883Y110037D01*
X165692Y110009D01*
X165501Y110000D01*
Y114000D01*
X165692Y113991D01*
X165883Y113963D01*
X166070Y113917D01*
X166252Y113853D01*
X166326Y113828D01*
X166404Y113816D01*
X166483Y113817D01*
X166560Y113830D01*
X166635Y113855D01*
X166705Y113891D01*
X166768Y113938D01*
X166824Y113994D01*
X166869Y114058D01*
X166905Y114128D01*
X166928Y114203D01*
X166940Y114281D01*
X166940Y114360D01*
X166927Y114437D01*
X166902Y114512D01*
X166866Y114582D01*
X166819Y114645D01*
X166763Y114700D01*
X166699Y114746D01*
X166628Y114780D01*
X166356Y114879D01*
X166075Y114948D01*
X165789Y114990D01*
X165501Y115003D01*
Y118499D01*
G37*
G36*
X164109Y109468D02*X164134Y109418D01*
X164181Y109355D01*
X164237Y109300D01*
X164301Y109254D01*
X164372Y109220D01*
X164644Y109121D01*
X164925Y109052D01*
X165211Y109010D01*
X165500Y108997D01*
X165501Y108997D01*
Y82500D01*
X164109D01*
Y88126D01*
X164118Y88131D01*
X164180Y88179D01*
X164235Y88236D01*
X164278Y88301D01*
X164460Y88639D01*
X164608Y88994D01*
X164725Y89360D01*
X164808Y89735D01*
X164859Y90116D01*
X164876Y90500D01*
X164859Y90884D01*
X164808Y91265D01*
X164725Y91640D01*
X164608Y92006D01*
X164460Y92361D01*
X164282Y92701D01*
X164237Y92767D01*
X164182Y92824D01*
X164119Y92872D01*
X164109Y92878D01*
Y98023D01*
X164407Y98509D01*
X164670Y99145D01*
X164831Y99814D01*
X164872Y100500D01*
X164831Y101186D01*
X164670Y101855D01*
X164407Y102491D01*
X164109Y102977D01*
Y109468D01*
G37*
G36*
Y114096D02*X164129Y114056D01*
X164175Y113992D01*
X164230Y113936D01*
X164294Y113889D01*
X164364Y113853D01*
X164439Y113828D01*
X164517Y113815D01*
X164596Y113814D01*
X164674Y113826D01*
X164749Y113851D01*
X164930Y113917D01*
X165117Y113963D01*
X165308Y113991D01*
X165500Y114000D01*
X165501Y114000D01*
Y110000D01*
X165500Y110000D01*
X165308Y110009D01*
X165117Y110037D01*
X164930Y110083D01*
X164748Y110147D01*
X164674Y110172D01*
X164596Y110184D01*
X164517Y110183D01*
X164440Y110170D01*
X164365Y110145D01*
X164295Y110109D01*
X164232Y110062D01*
X164176Y110006D01*
X164131Y109942D01*
X164109Y109899D01*
Y114096D01*
G37*
G36*
Y119891D02*X165501Y118499D01*
Y115003D01*
X165500Y115003D01*
X165211Y114990D01*
X164925Y114948D01*
X164644Y114879D01*
X164371Y114783D01*
X164300Y114748D01*
X164236Y114702D01*
X164179Y114647D01*
X164132Y114583D01*
X164109Y114537D01*
Y119891D01*
G37*
G36*
Y82500D02*X163091D01*
Y96964D01*
X163601Y97399D01*
X164048Y97923D01*
X164109Y98023D01*
Y92878D01*
X164050Y92909D01*
X163975Y92936D01*
X163897Y92950D01*
X163818Y92951D01*
X163739Y92941D01*
X163663Y92918D01*
X163592Y92884D01*
X163527Y92839D01*
X163470Y92784D01*
X163422Y92721D01*
X163384Y92651D01*
X163358Y92576D01*
X163344Y92498D01*
X163342Y92419D01*
X163353Y92341D01*
X163375Y92265D01*
X163411Y92194D01*
X163551Y91934D01*
X163665Y91661D01*
X163755Y91378D01*
X163820Y91089D01*
X163858Y90796D01*
X163872Y90500D01*
X163858Y90204D01*
X163820Y89911D01*
X163755Y89622D01*
X163665Y89339D01*
X163551Y89066D01*
X163414Y88804D01*
X163378Y88734D01*
X163356Y88659D01*
X163345Y88581D01*
X163347Y88502D01*
X163361Y88424D01*
X163387Y88350D01*
X163424Y88281D01*
X163472Y88218D01*
X163529Y88164D01*
X163594Y88119D01*
X163665Y88085D01*
X163740Y88062D01*
X163818Y88052D01*
X163897Y88054D01*
X163974Y88068D01*
X164048Y88094D01*
X164109Y88126D01*
Y82500D01*
G37*
G36*
X163091Y120909D02*X164109Y119891D01*
Y114537D01*
X164096Y114513D01*
X164071Y114438D01*
X164058Y114360D01*
X164058Y114281D01*
X164069Y114203D01*
X164093Y114127D01*
X164109Y114096D01*
Y109899D01*
X164095Y109872D01*
X164072Y109797D01*
X164060Y109719D01*
X164060Y109640D01*
X164073Y109563D01*
X164098Y109488D01*
X164109Y109468D01*
Y102977D01*
X164048Y103077D01*
X163601Y103601D01*
X163091Y104036D01*
Y110566D01*
X163140Y110558D01*
X163219Y110558D01*
X163297Y110569D01*
X163373Y110593D01*
X163444Y110629D01*
X163508Y110675D01*
X163564Y110730D01*
X163611Y110794D01*
X163647Y110864D01*
X163672Y110939D01*
X163685Y111017D01*
X163686Y111096D01*
X163674Y111174D01*
X163649Y111249D01*
X163583Y111430D01*
X163537Y111617D01*
X163509Y111808D01*
X163500Y112000D01*
X163509Y112192D01*
X163537Y112383D01*
X163583Y112570D01*
X163647Y112752D01*
X163672Y112826D01*
X163684Y112904D01*
X163683Y112983D01*
X163670Y113060D01*
X163645Y113135D01*
X163609Y113205D01*
X163562Y113268D01*
X163506Y113324D01*
X163442Y113369D01*
X163372Y113405D01*
X163297Y113428D01*
X163219Y113440D01*
X163140Y113440D01*
X163091Y113431D01*
Y120909D01*
G37*
G36*
Y82500D02*X160493D01*
Y86125D01*
X160500Y86124D01*
X160884Y86141D01*
X161265Y86192D01*
X161640Y86275D01*
X162006Y86392D01*
X162361Y86540D01*
X162701Y86718D01*
X162767Y86763D01*
X162824Y86818D01*
X162872Y86881D01*
X162909Y86950D01*
X162936Y87025D01*
X162950Y87103D01*
X162951Y87182D01*
X162941Y87261D01*
X162918Y87337D01*
X162884Y87408D01*
X162839Y87473D01*
X162784Y87530D01*
X162721Y87578D01*
X162651Y87616D01*
X162576Y87642D01*
X162498Y87656D01*
X162419Y87658D01*
X162341Y87647D01*
X162265Y87625D01*
X162194Y87589D01*
X161934Y87449D01*
X161661Y87335D01*
X161378Y87245D01*
X161089Y87180D01*
X160796Y87142D01*
X160500Y87128D01*
X160493Y87129D01*
Y93871D01*
X160500Y93872D01*
X160796Y93858D01*
X161089Y93820D01*
X161378Y93755D01*
X161661Y93665D01*
X161934Y93551D01*
X162196Y93414D01*
X162266Y93378D01*
X162341Y93356D01*
X162419Y93345D01*
X162498Y93347D01*
X162576Y93361D01*
X162650Y93387D01*
X162719Y93424D01*
X162782Y93472D01*
X162836Y93529D01*
X162881Y93594D01*
X162915Y93665D01*
X162938Y93740D01*
X162948Y93818D01*
X162946Y93897D01*
X162932Y93974D01*
X162906Y94048D01*
X162869Y94118D01*
X162821Y94180D01*
X162764Y94235D01*
X162699Y94278D01*
X162361Y94460D01*
X162006Y94608D01*
X161640Y94725D01*
X161265Y94808D01*
X160884Y94859D01*
X160500Y94876D01*
X160493Y94875D01*
Y96116D01*
X160500Y96115D01*
X161186Y96169D01*
X161855Y96330D01*
X162491Y96593D01*
X163077Y96952D01*
X163091Y96964D01*
Y82500D01*
G37*
G36*
X160493Y123507D02*X163091Y120909D01*
Y113431D01*
X163063Y113427D01*
X162988Y113402D01*
X162918Y113366D01*
X162855Y113319D01*
X162800Y113263D01*
X162754Y113199D01*
X162720Y113128D01*
X162621Y112856D01*
X162552Y112575D01*
X162510Y112289D01*
X162497Y112000D01*
X162510Y111711D01*
X162552Y111425D01*
X162621Y111144D01*
X162717Y110871D01*
X162752Y110800D01*
X162798Y110736D01*
X162853Y110679D01*
X162917Y110632D01*
X162987Y110596D01*
X163062Y110571D01*
X163091Y110566D01*
Y104036D01*
X163077Y104048D01*
X162491Y104407D01*
X161855Y104670D01*
X161186Y104831D01*
X160500Y104885D01*
X160493Y104884D01*
Y123507D01*
G37*
G36*
X156891Y98023D02*X156952Y97923D01*
X157399Y97399D01*
X157923Y96952D01*
X158509Y96593D01*
X159145Y96330D01*
X159814Y96169D01*
X160493Y96116D01*
Y94875D01*
X160116Y94859D01*
X159735Y94808D01*
X159360Y94725D01*
X158994Y94608D01*
X158639Y94460D01*
X158299Y94282D01*
X158233Y94237D01*
X158176Y94182D01*
X158128Y94119D01*
X158091Y94050D01*
X158064Y93975D01*
X158050Y93897D01*
X158049Y93818D01*
X158059Y93739D01*
X158082Y93663D01*
X158116Y93592D01*
X158161Y93527D01*
X158216Y93470D01*
X158279Y93422D01*
X158349Y93384D01*
X158424Y93358D01*
X158502Y93344D01*
X158581Y93342D01*
X158659Y93353D01*
X158735Y93375D01*
X158806Y93411D01*
X159066Y93551D01*
X159339Y93665D01*
X159622Y93755D01*
X159911Y93820D01*
X160204Y93858D01*
X160493Y93871D01*
Y87129D01*
X160204Y87142D01*
X159911Y87180D01*
X159622Y87245D01*
X159339Y87335D01*
X159066Y87449D01*
X158804Y87586D01*
X158734Y87622D01*
X158659Y87644D01*
X158581Y87655D01*
X158502Y87653D01*
X158424Y87639D01*
X158350Y87613D01*
X158281Y87576D01*
X158218Y87528D01*
X158164Y87471D01*
X158119Y87406D01*
X158085Y87335D01*
X158062Y87260D01*
X158052Y87182D01*
X158054Y87103D01*
X158068Y87026D01*
X158094Y86952D01*
X158131Y86882D01*
X158179Y86820D01*
X158236Y86765D01*
X158301Y86722D01*
X158639Y86540D01*
X158994Y86392D01*
X159360Y86275D01*
X159735Y86192D01*
X160116Y86141D01*
X160493Y86125D01*
Y82500D01*
X156891D01*
Y88122D01*
X156950Y88091D01*
X157025Y88064D01*
X157103Y88050D01*
X157182Y88049D01*
X157261Y88059D01*
X157337Y88082D01*
X157408Y88116D01*
X157473Y88161D01*
X157530Y88216D01*
X157578Y88279D01*
X157616Y88349D01*
X157642Y88424D01*
X157656Y88502D01*
X157658Y88581D01*
X157647Y88659D01*
X157625Y88735D01*
X157589Y88806D01*
X157449Y89066D01*
X157335Y89339D01*
X157245Y89622D01*
X157180Y89911D01*
X157142Y90204D01*
X157128Y90500D01*
X157142Y90796D01*
X157180Y91089D01*
X157245Y91378D01*
X157335Y91661D01*
X157449Y91934D01*
X157586Y92196D01*
X157622Y92266D01*
X157644Y92341D01*
X157655Y92419D01*
X157653Y92498D01*
X157639Y92576D01*
X157613Y92650D01*
X157576Y92719D01*
X157528Y92782D01*
X157471Y92836D01*
X157406Y92881D01*
X157335Y92915D01*
X157260Y92938D01*
X157182Y92948D01*
X157103Y92946D01*
X157026Y92932D01*
X156952Y92906D01*
X156891Y92874D01*
Y98023D01*
G37*
G36*
Y127109D02*X160493Y123507D01*
Y104884D01*
X159814Y104831D01*
X159145Y104670D01*
X158509Y104407D01*
X157923Y104048D01*
X157399Y103601D01*
X156952Y103077D01*
X156891Y102977D01*
Y127109D01*
G37*
G36*
X137500Y129000D02*X155000D01*
X156891Y127109D01*
Y102977D01*
X156593Y102491D01*
X156330Y101855D01*
X156169Y101186D01*
X156115Y100500D01*
X156169Y99814D01*
X156330Y99145D01*
X156593Y98509D01*
X156891Y98023D01*
Y92874D01*
X156882Y92869D01*
X156820Y92821D01*
X156765Y92764D01*
X156722Y92699D01*
X156540Y92361D01*
X156392Y92006D01*
X156275Y91640D01*
X156192Y91265D01*
X156141Y90884D01*
X156124Y90500D01*
X156141Y90116D01*
X156192Y89735D01*
X156275Y89360D01*
X156392Y88994D01*
X156540Y88639D01*
X156718Y88299D01*
X156763Y88233D01*
X156818Y88176D01*
X156881Y88128D01*
X156891Y88122D01*
Y82500D01*
X151500D01*
X149500Y84500D01*
Y88938D01*
X149884Y90539D01*
X150000Y92500D01*
X149884Y94461D01*
X149425Y96375D01*
X148672Y98192D01*
X147644Y99870D01*
X146366Y101366D01*
X144870Y102644D01*
X143192Y103672D01*
X141375Y104425D01*
X139461Y104884D01*
X137500Y105039D01*
Y110398D01*
X140791Y110401D01*
X140913Y110431D01*
X141029Y110479D01*
X141137Y110545D01*
X141232Y110627D01*
X141314Y110722D01*
X141380Y110830D01*
X141428Y110946D01*
X141458Y111068D01*
X141465Y111194D01*
X141458Y125524D01*
X141428Y125646D01*
X141380Y125762D01*
X141314Y125870D01*
X141232Y125965D01*
X141137Y126047D01*
X141029Y126113D01*
X140913Y126161D01*
X140791Y126191D01*
X140665Y126198D01*
X137500Y126194D01*
Y129000D01*
G37*
G36*
X105185D02*X137500D01*
Y126194D01*
X134209Y126191D01*
X134087Y126161D01*
X133971Y126113D01*
X133863Y126047D01*
X133768Y125965D01*
X133686Y125870D01*
X133620Y125762D01*
X133572Y125646D01*
X133542Y125524D01*
X133535Y125398D01*
X133542Y111068D01*
X133572Y110946D01*
X133620Y110830D01*
X133686Y110722D01*
X133768Y110627D01*
X133863Y110545D01*
X133971Y110479D01*
X134087Y110431D01*
X134209Y110401D01*
X134335Y110394D01*
X137500Y110398D01*
Y105039D01*
X135539Y104884D01*
X133625Y104425D01*
X131808Y103672D01*
X130130Y102644D01*
X128634Y101366D01*
X127356Y99870D01*
X126328Y98192D01*
X125575Y96375D01*
X125481Y95981D01*
X116000Y86500D01*
X105185D01*
Y92580D01*
X112920Y92585D01*
X113073Y92622D01*
X113219Y92682D01*
X113353Y92764D01*
X113473Y92866D01*
X113575Y92986D01*
X113657Y93120D01*
X113717Y93266D01*
X113754Y93419D01*
X113764Y93576D01*
X113754Y115581D01*
X113717Y115734D01*
X113657Y115880D01*
X113575Y116014D01*
X113473Y116134D01*
X113353Y116236D01*
X113219Y116318D01*
X113073Y116378D01*
X112920Y116415D01*
X112764Y116425D01*
X105185Y116420D01*
Y129000D01*
G37*
G36*
X87000Y120000D02*X96000Y129000D01*
X105185D01*
Y116420D01*
X97450Y116415D01*
X97297Y116378D01*
X97151Y116318D01*
X97017Y116236D01*
X96897Y116134D01*
X96795Y116014D01*
X96713Y115880D01*
X96653Y115734D01*
X96616Y115581D01*
X96606Y115425D01*
X96616Y93419D01*
X96653Y93266D01*
X96713Y93120D01*
X96795Y92986D01*
X96897Y92866D01*
X97017Y92764D01*
X97151Y92682D01*
X97297Y92622D01*
X97450Y92585D01*
X97606Y92576D01*
X105185Y92580D01*
Y86500D01*
X92500D01*
X87000Y92000D01*
Y120000D01*
G37*
G36*
X137500Y153000D02*X153000D01*
X158000Y148000D01*
Y133500D01*
X155000Y130500D01*
X137500D01*
Y134806D01*
X140791Y134809D01*
X140913Y134839D01*
X141029Y134887D01*
X141137Y134953D01*
X141232Y135035D01*
X141314Y135130D01*
X141380Y135238D01*
X141428Y135354D01*
X141458Y135476D01*
X141465Y135602D01*
X141458Y149932D01*
X141428Y150054D01*
X141380Y150170D01*
X141314Y150278D01*
X141232Y150373D01*
X141137Y150455D01*
X141029Y150521D01*
X140913Y150569D01*
X140791Y150599D01*
X140665Y150606D01*
X137500Y150602D01*
Y153000D01*
G37*
G36*
X101704Y176000D02*X107000D01*
X117500Y165500D01*
Y154500D01*
X119000Y153000D01*
X137500D01*
Y150602D01*
X134209Y150599D01*
X134087Y150569D01*
X133971Y150521D01*
X133863Y150455D01*
X133768Y150373D01*
X133686Y150278D01*
X133620Y150170D01*
X133572Y150054D01*
X133542Y149932D01*
X133535Y149806D01*
X133542Y135476D01*
X133572Y135354D01*
X133620Y135238D01*
X133686Y135130D01*
X133768Y135035D01*
X133863Y134953D01*
X133971Y134887D01*
X134087Y134839D01*
X134209Y134809D01*
X134335Y134802D01*
X137500Y134806D01*
Y130500D01*
X101704D01*
Y132656D01*
X109452Y132663D01*
X109605Y132700D01*
X109751Y132760D01*
X109885Y132842D01*
X110005Y132944D01*
X110107Y133064D01*
X110189Y133198D01*
X110249Y133344D01*
X110286Y133497D01*
X110295Y133654D01*
X110286Y140503D01*
X110249Y140656D01*
X110189Y140802D01*
X110107Y140936D01*
X110005Y141056D01*
X109885Y141158D01*
X109751Y141240D01*
X109605Y141300D01*
X109452Y141337D01*
X109295Y141346D01*
X101704Y141339D01*
Y159039D01*
X108932Y159042D01*
X109054Y159072D01*
X109170Y159120D01*
X109278Y159186D01*
X109373Y159268D01*
X109455Y159363D01*
X109521Y159471D01*
X109569Y159587D01*
X109599Y159709D01*
X109606Y159835D01*
X109599Y166291D01*
X109569Y166413D01*
X109521Y166529D01*
X109455Y166637D01*
X109373Y166732D01*
X109278Y166814D01*
X109170Y166880D01*
X109054Y166928D01*
X108932Y166958D01*
X108806Y166965D01*
X101704Y166961D01*
Y176000D01*
G37*
G36*
Y130500D02*X99500D01*
Y132654D01*
X101704Y132656D01*
Y130500D01*
G37*
G36*
X97500Y176000D02*X101704D01*
Y166961D01*
X94476Y166958D01*
X94354Y166928D01*
X94238Y166880D01*
X94130Y166814D01*
X94035Y166732D01*
X93953Y166637D01*
X93887Y166529D01*
X93839Y166413D01*
X93809Y166291D01*
X93802Y166165D01*
X93809Y159709D01*
X93839Y159587D01*
X93887Y159471D01*
X93953Y159363D01*
X94035Y159268D01*
X94130Y159186D01*
X94238Y159120D01*
X94354Y159072D01*
X94476Y159042D01*
X94602Y159035D01*
X101704Y159039D01*
Y141339D01*
X99500Y141337D01*
Y141500D01*
X95000Y146000D01*
X79000D01*
X91000Y158000D01*
Y169500D01*
X97500Y176000D01*
G37*
G54D12*X24000Y230000D02*X358500D01*
G54D13*X182204Y175500D02*X204500D01*
G54D14*X211256Y150000D02*Y169244D01*
X204500Y176000D01*
X181811Y175893D02*X182204Y175500D01*
X197500Y169500D02*Y175500D01*
G54D15*X205744Y150000D02*Y149744D01*
G54D13*X181811Y210000D02*Y175893D01*
G54D15*X182204Y175500D02*X178500D01*
G54D12*X220000Y157000D02*Y196256D01*
X219756Y196500D01*
G54D16*X290000Y178000D02*Y153500D01*
G54D12*X254500Y157000D02*Y168500D01*
G54D13*X143500Y209874D02*X158063D01*
G54D17*X158189Y210000D01*
G54D18*X143374D02*X143500Y209874D01*
G54D14*X124500Y202750D02*Y208500D01*
X126000Y210000D01*
X143374D01*
G54D18*X119500Y202750D02*Y213244D01*
X119756Y213500D01*
X114500Y213244D02*X114244Y213500D01*
X114500Y213244D02*Y196000D01*
G54D17*X83000Y190000D02*X119500D01*
X83500Y214500D02*X95500D01*
G54D14*X129500Y173988D02*X127256Y171744D01*
X119500Y173988D02*X121744Y171744D01*
G54D15*Y156500D02*Y164000D01*
X121500D01*
X127256Y156500D02*X127500D01*
X121500Y164000D02*X114500Y171000D01*
G54D14*X92500Y163000D02*X111500D01*
X104500Y169000D02*Y157000D01*
X99000D02*Y169000D01*
G54D15*X114500Y171000D02*Y182250D01*
G54D14*X119500Y173988D02*Y190000D01*
X89500Y190296D02*Y180000D01*
X68000Y163000D02*X87000D01*
X74500Y168500D02*Y157000D01*
X80000Y168000D02*Y157500D01*
G54D13*X143500Y194126D02*Y180000D01*
G54D14*X129500Y202750D02*Y173988D01*
G54D18*X124500Y182250D02*X129500D01*
G54D13*X143500Y180000D02*X148000Y175500D01*
X157796D01*
G54D15*X127256Y164000D02*X167000D01*
X178500Y175500D01*
X127500Y156500D02*X131000Y160000D01*
G54D12*X362500Y226000D02*Y37500D01*
G54D15*X257779Y145725D02*X265481D01*
X307756Y143500D02*X315244D01*
G54D12*X302244D02*Y146744D01*
X320756Y143500D02*Y147744D01*
X319500Y149000D01*
X313500D01*
G54D15*X265481Y145725D02*X266500Y146744D01*
X257779Y139425D02*X266169D01*
X257779Y142575D02*X253575D01*
X250500Y139500D01*
X253724Y136276D02*X250500Y139500D01*
X271000Y152500D02*X266744D01*
X266500Y152256D01*
X271000Y134000D02*X266744D01*
X264468Y136276D02*X266744Y134000D01*
X264468Y136276D02*X253724D01*
G54D12*X234275Y159779D02*Y154275D01*
X234000Y154000D01*
X237425Y159779D02*Y150075D01*
X238000Y149500D01*
X240575Y159779D02*Y154425D01*
X241000Y154000D01*
X243724Y159779D02*Y155776D01*
X244000Y155500D01*
X231126Y149874D02*Y172126D01*
X227976Y154024D02*Y173976D01*
X224000Y189000D02*Y152500D01*
X249000Y196500D02*X244000Y191500D01*
X237000D01*
X234000Y188500D01*
X239000Y196500D02*X234000Y191500D01*
X226500D01*
X224000Y189000D01*
X234000Y188500D02*Y180000D01*
X239000Y186500D02*Y180000D01*
X231126Y172126D02*X239000Y180000D01*
X227976Y173976D02*X234000Y180000D01*
X307642Y157130D02*Y152142D01*
X302244Y146744D02*X307642Y152142D01*
X329500Y153000D02*X340500D01*
X341000Y152500D01*
G54D19*X343756Y149000D02*Y157000D01*
G54D12*X341000Y152500D02*Y144000D01*
X338244Y141000D02*Y141244D01*
Y157000D02*Y165000D01*
Y141244D02*X341000Y144000D01*
X326500Y149000D02*X338244D01*
X310201Y157130D02*Y152299D01*
X313500Y149000D02*X310201Y152299D01*
X312760Y157130D02*Y153240D01*
X314500Y151500D01*
X328114Y157130D02*Y154386D01*
X329500Y153000D01*
X314500Y151500D02*X324000D01*
X326500Y149000D01*
X307642Y194358D02*X300000Y202000D01*
Y207000D01*
X303150D02*Y201850D01*
X310201Y194799D01*
X307642Y185870D02*Y194358D01*
X310201Y185870D02*Y194799D01*
X322996Y185870D02*Y190496D01*
X358500Y33500D02*X24000D01*
X210500Y100500D02*X227977Y117977D01*
X226500Y107500D02*X223000D01*
X220500Y105000D02*Y100500D01*
X223000Y107500D02*X220500Y105000D01*
X225500Y103500D02*Y98000D01*
X223000Y95500D01*
X205500D01*
X230500Y100500D02*X235500Y95500D01*
X205500D02*X200500Y90500D01*
X180500D02*X188000Y83000D01*
X260500D01*
X235500Y95500D02*Y87500D01*
X238000Y85000D01*
X252500D01*
X255500Y88000D01*
X190500Y125500D02*X194500D01*
X195000Y125000D01*
X231126Y122221D02*Y116626D01*
X227977Y122221D02*Y117977D01*
X234276Y122221D02*Y115224D01*
X237425Y122221D02*Y115425D01*
X250024Y122221D02*Y113024D01*
X245500Y108500D01*
Y95500D01*
X240500Y90500D01*
X225500Y111000D02*X231126Y116626D01*
X234276Y115224D02*X226500Y107500D01*
X237425Y115425D02*X225500Y103500D01*
X240575Y122221D02*Y127925D01*
X239000Y129500D01*
X236000D01*
X260500Y83000D02*X265500Y88000D01*
Y126500D01*
G54D13*X270500Y100500D02*Y114500D01*
X277000Y121000D01*
G54D12*X257779Y129977D02*X262023D01*
X265500Y126500D01*
X257779Y133126D02*X253626D01*
X252500Y132000D01*
Y127500D01*
X255500Y124500D01*
Y88000D01*
X221500Y125000D02*X230500Y134000D01*
X221500Y122500D02*X232500Y133500D01*
X227976Y154024D02*X228000Y154000D01*
X231126Y149874D02*X231000Y149500D01*
X224275Y136275D02*X225000Y137000D01*
Y145000D01*
X224276Y145724D02*X225000Y145000D01*
X223523Y152023D02*X224000Y152500D01*
X230500Y135500D02*Y134000D01*
X232500Y135000D02*Y133500D01*
X217476Y129976D02*X215500Y128000D01*
X211500D02*X200500D01*
X195000Y125000D02*X221500D01*
X180500Y122500D02*X221500D01*
X195500Y119500D02*X221000D01*
X220221Y129976D02*X217476D01*
X220221Y133126D02*X216626D01*
X205744Y135000D02*Y135244D01*
X208500Y138000D01*
X216626Y133126D02*X211500Y128000D01*
X212531Y136275D02*X211256Y135000D01*
X212531Y136275D02*X224275D01*
X220221Y142575D02*X211331D01*
G54D15*X215075Y139425D02*X215000Y139500D01*
X220221Y148874D02*X212382D01*
G54D12*X220221Y145724D02*X224276D01*
G54D15*X220221Y139425D02*X215075D01*
G54D12*X211331Y142575D02*X211256Y142500D01*
X208500Y138000D02*Y147244D01*
G54D15*X205744Y142500D02*Y143256D01*
X202500Y146500D01*
X205744Y149744D02*X202500Y146500D01*
X212382Y148874D02*X211256Y150000D01*
G54D12*X208500Y147244D01*
X220221Y152023D02*X223523D01*
X322996Y190496D02*X323500Y191000D01*
X328114Y185870D02*Y190386D01*
X327500Y191000D01*
X323500D01*
G54D15*X326500Y196500D02*X334500Y188500D01*
X328724Y127000D02*Y135532D01*
X320756Y143500D01*
G54D12*X344000Y136000D02*Y140756D01*
X343756Y141000D01*
G54D15*X306299Y207000D02*Y203701D01*
X313500Y196500D01*
X326500D01*
X293701Y207000D02*Y201201D01*
X293500Y201000D01*
G54D12*X332500Y165000D02*X338244D01*
G54D19*X346600Y177000D02*X347000D01*
G54D15*X344000Y184000D02*Y188256D01*
X343756Y188500D01*
X338400Y180900D02*Y188344D01*
X338244Y188500D01*
X334500D02*X338244D01*
G54D19*X347000Y177000D02*X349000Y175000D01*
G54D15*X305083Y181839D02*X297500Y174256D01*
G54D12*X302000Y179000D02*Y179244D01*
X297500Y183744D01*
G54D15*X333500Y173000D02*X338300D01*
X338400Y173100D01*
G54D19*X349000Y175000D02*Y162244D01*
X343756Y157000D01*
G54D15*X305083Y157130D02*Y161161D01*
X297500Y168744D01*
G54D12*X344000Y169500D02*Y165244D01*
X343756Y165000D01*
X325555Y185870D02*Y171945D01*
X332500Y165000D01*
G54D15*X294276Y127000D02*Y135532D01*
X302244Y143500D01*
X305083Y185870D02*Y181839D01*
G54D13*X277000Y173000D02*X263500Y186500D01*
Y203000D01*
G54D15*X312760Y185870D02*Y190760D01*
X314000Y192000D01*
X302500D02*X300244D01*
X297500Y189256D01*
G54D13*X277000Y121000D02*Y173000D01*
G54D15*Y146500D02*X266744D01*
X266500Y146744D01*
X277000Y140000D02*X266744D01*
X266169Y139425D02*X266744Y140000D01*
G54D12*X246874Y122221D02*Y140874D01*
Y159779D02*Y151874D01*
X243725Y122221D02*Y140725D01*
X246874Y140874D02*X253000Y147000D01*
X244000Y151500D02*X227500Y135000D01*
X246874Y151874D02*X230500Y135500D01*
X249000Y151500D02*X232500Y135000D01*
X243725Y140725D02*X251000Y148000D01*
X253000Y147000D02*Y153000D01*
X249000Y154500D02*Y151500D01*
X251000Y148000D02*Y153500D01*
X253000Y153000D02*X269500Y169500D01*
X244000Y155500D02*Y151500D01*
X250023Y159779D02*Y155523D01*
X249000Y154500D01*
X251000Y153500D02*X254500Y157000D01*
G54D13*X249000Y186500D02*X263500D01*
Y203000D02*X253500Y213000D01*
X213000D01*
X204500Y204500D01*
Y175500D01*
G54D12*X219756Y196500D02*X229000D01*
X214244D02*X204500D01*
X20000Y37500D02*Y226000D01*
G54D14*X37000Y131500D02*Y138250D01*
Y131500D02*X42000D01*
X37000Y136500D02*X42000D01*
X37000Y134500D02*X42000D01*
X37000Y133500D02*X42000D01*
Y131500D02*Y138250D01*
X37000D01*
G54D15*X29000Y137256D02*Y146000D01*
Y131744D02*Y124256D01*
X36244D01*
X37000Y123500D01*
Y117750D01*
X33744Y100000D02*Y78756D01*
X39250Y73250D01*
X39500Y79500D02*Y83756D01*
X39256Y84000D01*
Y92000D02*Y100000D01*
X46744D01*
X39500Y109500D02*Y100244D01*
X39256Y100000D01*
X47000Y117750D02*Y108256D01*
X46744Y108000D01*
X42000Y117750D02*Y112000D01*
X39500Y109500D01*
X29000Y114500D02*Y118744D01*
X52500Y95500D02*Y99756D01*
G54D14*X65500Y91500D02*Y119000D01*
X55756Y104500D02*X52256Y108000D01*
G54D15*X52500Y99756D02*X52256Y100000D01*
G54D14*X76500Y104500D02*X55756D01*
X56000Y110500D02*X76500D01*
X56000Y97500D02*X76000D01*
G54D15*X39250Y73250D02*X154500Y73500D01*
X39500Y79500D02*X43000Y76000D01*
X151500D01*
X153000Y77500D02*X151500Y76000D01*
G54D14*X95000Y98000D02*X116000D01*
G54D15*X154500Y73500D02*X160500Y79500D01*
Y95500D02*Y79500D01*
G54D14*X105000Y118000D02*Y90000D01*
X94500Y104500D02*X115500D01*
X94500Y110500D02*X115500D01*
X137500Y109000D02*Y127500D01*
X131500Y121000D02*X143000D01*
X132000Y115500D02*X143500D01*
X131500Y145500D02*X143500D01*
Y140000D02*X131500D01*
X137500Y133500D02*Y151500D01*
X80500Y137000D02*X95500D01*
X88500Y131000D02*Y143000D01*
X104500Y143500D02*Y132000D01*
X112500Y137000D02*X104500D01*
G54D12*X362500Y37500D02*G75*G02X358500Y33500I-4000J0D01*G01*
Y230000D02*G75*G02X362500Y226000I0J-4000D01*G01*
X20000Y37500D02*G75*G03X24000Y33500I4000J0D01*G01*
Y230000D02*G75*G03X20000Y226000I0J-4000D01*G01*
X360000Y86000D02*Y84700D01*
X359300Y84000D02*X360000Y84700D01*
X356700Y84000D02*X359300D01*
X356700D02*X356000Y84700D01*
Y86000D02*Y84700D01*
X356500Y87200D02*X359500D01*
X356500D02*X356000Y87700D01*
Y88700D02*Y87700D01*
Y88700D02*X356500Y89200D01*
X359500D01*
X360000Y88700D02*X359500Y89200D01*
X360000Y88700D02*Y87700D01*
X359500Y87200D02*X360000Y87700D01*
X356000Y90400D02*X360000D01*
X356000D02*X358000Y91900D01*
X356000Y93400D01*
X360000D01*
X356000Y95100D02*X360000D01*
X356000Y96600D02*Y94600D01*
Y96600D02*X356500Y97100D01*
X357500D01*
X358000Y96600D02*X357500Y97100D01*
X358000Y96600D02*Y95100D01*
G54D11*G36*
X245628Y199872D02*Y193128D01*
X252372D01*
Y199872D01*
X245628D01*
G37*
G54D20*X239000Y196500D03*
X229000D03*
X249000Y186500D03*
X239000D03*
X229000D03*
G54D17*X269500Y169500D03*
X254500Y168500D03*
G54D21*X343500Y53000D03*
Y210500D03*
G54D20*X240500Y100500D03*
X230500D03*
X220500D03*
X210500D03*
X200500D03*
X190500D03*
X220500Y90500D03*
X210500D03*
X200500D03*
G54D17*X197500Y160500D03*
Y169500D03*
G54D20*X180500Y100500D03*
X170500D03*
X160500D03*
G54D17*X165500Y112000D03*
G54D20*X190500Y90500D03*
X180500D03*
X170500D03*
X160500D03*
G54D22*X137500Y92500D03*
G54D21*X39000Y53000D03*
Y210500D03*
G54D23*X42500Y182500D03*
Y162500D03*
G54D11*G36*
X277128Y103871D02*Y97128D01*
X283872D01*
Y103871D01*
X277128D01*
G37*
G54D20*X280500Y90500D03*
G54D17*Y111500D03*
G54D20*X250500Y100500D03*
Y90500D03*
X240500D03*
X230500D03*
G54D22*X303500Y92500D03*
G54D20*X270500Y100500D03*
Y90500D03*
X260500Y100500D03*
Y90500D03*
G54D24*X346300Y177000D02*X346900D01*
G54D25*X343756Y157492D02*Y156508D01*
Y165492D02*Y164508D01*
G54D24*X338100Y173100D02*X338700D01*
G54D25*X338244Y157492D02*Y156508D01*
Y165492D02*Y164508D01*
G54D24*X338100Y180900D02*X338700D01*
G54D25*X343756Y149492D02*Y148508D01*
Y141492D02*Y140508D01*
X338244Y149492D02*Y148508D01*
Y141492D02*Y140508D01*
X343756Y188992D02*Y188008D01*
X338244Y188992D02*Y188008D01*
X297008Y174256D02*X297992D01*
X297008Y168744D02*X297992D01*
X297008Y183744D02*X297992D01*
X297008Y189256D02*X297992D01*
G54D26*X305083Y188626D02*Y183114D01*
X307642Y188626D02*Y183114D01*
X310201Y188626D02*Y183114D01*
X312760Y188626D02*Y183114D01*
X315319Y188626D02*Y183114D01*
X317878Y188626D02*Y183114D01*
X320437Y188626D02*Y183114D01*
X322996Y188626D02*Y183114D01*
X325555Y188626D02*Y183114D01*
X328114Y188626D02*Y183114D01*
Y159886D02*Y154374D01*
G54D27*X323310Y127000D02*X334137D01*
G54D26*X325555Y159886D02*Y154374D01*
X322996Y159886D02*Y154374D01*
X320437Y159886D02*Y154374D01*
X317878Y159886D02*Y154374D01*
X315319Y159886D02*Y154374D01*
X312760Y159886D02*Y154374D01*
X310201Y159886D02*Y154374D01*
X307642Y159886D02*Y154374D01*
X305083Y159886D02*Y154374D01*
G54D25*X307756Y143992D02*Y143008D01*
X302244Y143992D02*Y143008D01*
X315244Y143992D02*Y143008D01*
X320756Y143992D02*Y143008D01*
G54D28*X137500Y122233D02*Y114359D01*
Y146641D02*Y138767D01*
G54D29*X102799Y137000D02*X105949D01*
G54D25*X121744Y156992D02*Y156008D01*
X127256Y156992D02*Y156008D01*
Y164492D02*Y163508D01*
X121744Y164492D02*Y163508D01*
G54D28*X178267Y175500D02*X186141D01*
X153859D02*X161733D01*
G54D29*X143500Y195701D02*Y192551D01*
G54D28*X89500Y194233D02*Y186359D01*
G54D30*X129500Y185500D02*Y179000D01*
X124500Y185500D02*Y179000D01*
X119500Y185500D02*Y179000D01*
X114500Y185500D02*Y179000D01*
Y206000D02*Y199500D01*
X119500Y206000D02*Y199500D01*
G54D25*X121744Y172236D02*Y171252D01*
G54D30*X124500Y206000D02*Y199500D01*
X129500Y206000D02*Y199500D01*
G54D25*X127256Y172236D02*Y171252D01*
G54D28*X73359Y163000D02*X81233D01*
X97767D02*X105641D01*
G54D31*X105185Y107846D02*Y101154D01*
G54D25*X39256Y84492D02*Y83508D01*
X33744Y84492D02*Y83508D01*
X39256Y100492D02*Y99508D01*
X33744Y100492D02*Y99508D01*
X39256Y92492D02*Y91508D01*
X33744Y92492D02*Y91508D01*
G54D29*X87051Y137000D02*X90201D01*
G54D31*X65815Y107846D02*Y101154D01*
G54D25*X52256Y100492D02*Y99508D01*
Y108492D02*Y107508D01*
G54D30*X52000Y121000D02*Y114500D01*
Y141500D02*Y135000D01*
G54D25*X46744Y100492D02*Y99508D01*
Y108492D02*Y107508D01*
G54D30*X47000Y121000D02*Y114500D01*
Y141500D02*Y135000D01*
G54D25*X28508Y118744D02*X29492D01*
X28508Y124256D02*X29492D01*
G54D30*X37000Y121000D02*Y114500D01*
X42000Y121000D02*Y114500D01*
G54D25*X28508Y131744D02*X29492D01*
X28508Y137256D02*X29492D01*
G54D30*X42000Y141500D02*Y135000D01*
X37000Y141500D02*Y135000D01*
G54D32*X306299Y208969D02*Y205031D01*
X303150Y208969D02*Y205031D01*
X300000Y208969D02*Y205031D01*
X296850Y208969D02*Y205031D01*
X293701Y208969D02*Y205031D01*
G54D33*X283465Y218024D02*Y209362D01*
X316535Y218024D02*Y209362D01*
X181811Y211575D02*Y208425D01*
X158189Y211575D02*Y208425D01*
G54D29*X143500Y211449D02*Y208299D01*
G54D25*X119756Y213992D02*Y213008D01*
X114244Y213992D02*Y213008D01*
G54D28*X89500Y218641D02*Y210767D01*
G54D34*X255566Y129977D02*X259992D01*
X255566Y133126D02*X259992D01*
X255566Y136276D02*X259992D01*
X255566Y139425D02*X259992D01*
X255566Y142575D02*X259992D01*
X255566Y145725D02*X259992D01*
G54D25*X266008Y134244D02*X266992D01*
G54D27*X288863Y127000D02*X299690D01*
G54D25*X266008Y139756D02*X266992D01*
G54D34*X255566Y148874D02*X259992D01*
X255566Y152024D02*X259992D01*
X250023Y161992D02*Y157566D01*
X246874Y161992D02*Y157566D01*
X243724Y161992D02*Y157566D01*
X240575Y161992D02*Y157566D01*
X237425Y161992D02*Y157566D01*
X234275Y161992D02*Y157566D01*
G54D25*X266008Y152256D02*X266992D01*
X266008Y146744D02*X266992D01*
G54D34*X231126Y161992D02*Y157566D01*
X227976Y161992D02*Y157566D01*
X218008Y152023D02*X222434D01*
X218008Y148874D02*X222434D01*
X218008Y145724D02*X222434D01*
G54D25*X205744Y150492D02*Y149508D01*
X211256Y150492D02*Y149508D01*
X214244Y196992D02*Y196008D01*
X219756Y196992D02*Y196008D01*
G54D34*X218008Y142575D02*X222434D01*
X218008Y139425D02*X222434D01*
X218008Y136275D02*X222434D01*
X218008Y133126D02*X222434D01*
X218008Y129976D02*X222434D01*
X227977Y124434D02*Y120008D01*
X231126Y124434D02*Y120008D01*
X234276Y124434D02*Y120008D01*
X237425Y124434D02*Y120008D01*
X240575Y124434D02*Y120008D01*
X243725Y124434D02*Y120008D01*
X246874Y124434D02*Y120008D01*
X250024Y124434D02*Y120008D01*
G54D25*X205744Y135492D02*Y134508D01*
X211256Y135492D02*Y134508D01*
X205744Y142992D02*Y142008D01*
X211256Y142992D02*Y142008D01*
G54D35*X227500Y135000D03*
X215000Y139500D03*
X271000Y134000D03*
X311500Y143500D03*
X250500Y139500D03*
X271000Y152500D03*
X254500Y159000D03*
X220000Y157000D03*
X231000Y149500D03*
X290000Y153500D03*
X344000Y184000D03*
X333500Y173000D03*
X344000Y169500D03*
X349000Y164000D03*
X344000Y136000D03*
X293500Y201000D03*
X314000Y192000D03*
X302500D03*
X302000Y164000D03*
Y179244D03*
X290000Y178000D03*
X277000Y173000D03*
X225500Y111000D03*
X215500Y128000D03*
X200500D03*
X221000Y119500D03*
X236000Y129500D03*
X228000Y154000D03*
X234000D03*
X241000D03*
X238000Y149500D03*
X180500Y122500D03*
X202500Y146500D03*
X190500Y125500D03*
X37000Y131500D03*
X42000D03*
X195500Y119500D03*
X29000Y114500D03*
X52500Y95500D03*
X39500Y79500D03*
X153000Y77500D03*
X114500Y196000D03*
X83500Y214500D03*
X95500D03*
X148000Y175500D03*
X143500Y186500D03*
X131000Y160000D03*
X131500Y145500D03*
X143500Y140000D03*
X104500Y169000D03*
X99000Y157000D03*
G54D36*G54D37*G54D38*G54D39*G54D37*G54D38*G54D37*G54D38*G54D37*G54D40*G54D39*G54D41*G54D37*G54D38*G54D37*G54D40*G54D37*M02*
