G04 start of page 7 for group -4062 idx -4062 *
G04 Title: Dot-Flip Control, soldermask *
G04 Creator: pcb 20110918 *
G04 CreationDate: Tue 04 Dec 2012 09:28:54 AM GMT UTC *
G04 For: bertho *
G04 Format: Gerber/RS-274X *
G04 PCB-Dimensions: 450000 250000 *
G04 PCB-Coordinate-Origin: lower left *
%MOIN*%
%FSLAX25Y25*%
%LNBOTTOMMASK*%
%ADD86C,0.1033*%
%ADD85C,0.2300*%
%ADD84C,0.2700*%
%ADD83C,0.0500*%
%ADD82C,0.0774*%
%ADD81C,0.0001*%
G54D81*G36*
X245128Y200372D02*Y192628D01*
X252872D01*
Y200372D01*
X245128D01*
G37*
G54D82*X239000Y196500D03*
X229000D03*
X249000Y186500D03*
X239000D03*
X229000D03*
G54D83*X269500Y169500D03*
X254500Y168500D03*
G54D84*X343500Y53000D03*
Y210500D03*
G54D82*X240500Y100500D03*
X230500D03*
X220500D03*
X210500D03*
X200500D03*
X190500D03*
X220500Y90500D03*
X210500D03*
X200500D03*
G54D83*X197500Y160500D03*
Y169500D03*
G54D82*X180500Y100500D03*
X170500D03*
X160500D03*
G54D83*X165500Y112000D03*
G54D82*X190500Y90500D03*
X180500D03*
X170500D03*
X160500D03*
G54D85*X137500Y92500D03*
G54D84*X39000Y53000D03*
Y210500D03*
G54D86*X42500Y182500D03*
Y162500D03*
G54D81*G36*
X276628Y104371D02*Y96628D01*
X284372D01*
Y104371D01*
X276628D01*
G37*
G54D82*X280500Y90500D03*
G54D83*Y111500D03*
G54D82*X250500Y100500D03*
Y90500D03*
X240500D03*
X230500D03*
G54D85*X303500Y92500D03*
G54D82*X270500Y100500D03*
Y90500D03*
X260500Y100500D03*
Y90500D03*
M02*
