M48
INCH
T63C0.016
T62C0.043
T61C0.110
T60C0.130
T59C0.020
T58C0.035
%
T63
X022750Y013500
X021500Y013950
X027100Y013400
X031150Y014350
X025050Y013950
X027100Y015250
X025450Y015900
X022000Y015700
X023100Y014950
X029000Y015350
X034400Y018400
X033350Y017300
X034400Y016950
X034900Y016400
X034400Y013600
X029350Y020100
X031400Y019200
X030250Y019200
X030200Y016400
X030200Y017924
X029000Y017800
X027700Y017300
X022550Y011100
X021550Y012800
X020050Y012800
X022100Y011950
X023600Y012950
X022800Y015400
X023400Y015400
X024100Y015400
X023800Y014950
X018050Y012250
X020250Y014650
X019050Y012550
X003700Y013150
X004200Y013150
X019550Y011950
X002900Y011450
X005250Y009550
X003950Y007950
X015300Y007750
X011450Y019600
X008350Y021450
X009550Y021450
X014800Y017550
X014350Y018650
X013100Y016000
X013150Y014550
X014350Y014000
X010450Y016900
X009900Y015700
T59
X026950Y016950
X025450Y016850
X019750Y016050
X019750Y016950
X016550Y011200
X028050Y011150
T58
X024900Y019650
X023900Y019650
X022900Y019650
X024900Y018650
X023900Y018650
X022900Y018650
X024050Y010050
X023050Y010050
X022050Y010050
X021050Y010050
X020050Y010050
X019050Y010050
X022050Y009050
X021050Y009050
X020050Y009050
X018050Y010050
X017050Y010050
X016050Y010050
X019050Y009050
X018050Y009050
X017050Y009050
X016050Y009050
X028050Y010050
X028050Y009050
X025050Y010050
X025050Y009050
X024050Y009050
X023050Y009050
X027050Y010050
X027050Y009050
X026050Y010050
X026050Y009050
T62
X004250Y018250
X004250Y016250
T61
X013750Y009250
X030350Y009250
T60
X034350Y005300
X034350Y021050
X003900Y005300
X003900Y021050
M30
